SplineFontDB: 3.2
FontName: SteMiNormal
FullName: SteMiNormal LIGA
FamilyName: SteMi LIGA
Weight: Light
Copyright: Created by Krzysztof Stenografow (Smirnow), with FontForge 2.0 (http://www.stenografia.pl)
Version: 002.000
ItalicAngle: 0
UnderlinePosition: -298
UnderlineWidth: 148
Ascent: 2000
Descent: 1000
InvalidEm: 0
sfntRevision: 0x00020000
LayerCount: 2
Layer: 0 1 "Warstwa t+AUIA-a" 1
Layer: 1 1 "Plan pierwszy" 0
HasVMetrics: 1
XUID: [1021 102 369710040 9179092]
StyleMap: 0x0040
FSType: 0
OS2Version: 4
OS2_WeightWidthSlopeOnly: 0
OS2_UseTypoMetrics: 1
CreationTime: 1379607424
ModificationTime: 1690364453
PfmFamily: 17
TTFWeight: 300
TTFWidth: 3
LineGap: 270
VLineGap: 270
Panose: 2 0 5 3 0 0 0 0 0 0
OS2TypoAscent: 2000
OS2TypoAOffset: 0
OS2TypoDescent: -1000
OS2TypoDOffset: 0
OS2TypoLinegap: 270
OS2WinAscent: 3557
OS2WinAOffset: 0
OS2WinDescent: 1092
OS2WinDOffset: 0
HheadAscent: 3557
HheadAOffset: 0
HheadDescent: -1092
HheadDOffset: 0
OS2SubXSize: 1950
OS2SubYSize: 2100
OS2SubXOff: 0
OS2SubYOff: 420
OS2SupXSize: 1950
OS2SupYSize: 2100
OS2SupXOff: 0
OS2SupYOff: 1440
OS2StrikeYSize: 149
OS2StrikeYPos: 776
OS2CapHeight: 3432
OS2XHeight: 1520
OS2FamilyClass: 2560
OS2Vendor: 'KsMi'
OS2CodePages: 00000001.00000000
OS2UnicodeRanges: 00000007.02000000.04000000.00000000
Lookup: 1 0 0 "'liga' Standard Ligatures in Latin lookup 0" { "'liga' Standard Ligatures in Latin lookup 0 subtable"  } ['liga' ('DFLT' <'dflt' > 'latn' <'dflt' > ) ]
Lookup: 4 0 1 "'liga' Standard Ligatures in Latin lookup 1" { "'liga' Standard Ligatures in Latin lookup 1 subtable"  } ['liga' ('DFLT' <'dflt' > 'latn' <'dflt' > ) ]
Lookup: 258 0 0 "Wzgl+ARkA-dne pozycjonowanie pary (kerning) w tablicy 0" { "Wzgl+ARkA-dne pozycjonowanie pary (kerning) w tablicy 0-1" [450,45,0] } ['    ' ('DFLT' <'dflt' > 'arab' <'dflt' > 'grek' <'dflt' > 'knd2' <'dflt' > 'latn' <'dflt' > ) ]

StartChar: .notdef
Encoding: 1114112 -1 0
Width: 1500
Flags: W
LayerCount: 2
Fore
SplineSet
150 0 m 1,0,-1
 150 1333 l 1,1,-1
 1350 1333 l 1,2,-1
 1350 0 l 1,3,-1
 150 0 l 1,0,-1
300 150 m 1,4,-1
 1200 150 l 1,5,-1
 1200 1183 l 1,6,-1
 300 1183 l 1,7,-1
 300 150 l 1,4,-1
EndSplineSet
EndChar

StartChar: exclam
Encoding: 33 33 5
Width: 1233
VWidth: 2048
GlyphClass: 2
Flags: W
LayerCount: 2
Fore
SplineSet
484 1532 m 0,0,1
 469 1471 469 1471 469 1295 c 0,2,3
 469 1091 469 1091 483 912 c 0,4,5
 493 814 493 814 515 734 c 1,6,7
 532 647 532 647 557 602 c 128,-1,8
 582 557 582 557 610 557 c 0,9,10
 670 557 670 557 709 734 c 1,11,12
 738 822 738 822 750 912 c 1,13,14
 770 1023 770 1023 770 1264 c 0,15,16
 770 1466 770 1466 749 1532 c 0,17,18
 683 1783 683 1783 616 1783 c 0,19,20
 550 1783 550 1783 484 1532 c 0,0,1
671 200 m 1,21,-1
 853 201 l 1,22,-1
 685 10 l 1,23,-1
 843 -182 l 1,24,-1
 661 -184 l 1,25,-1
 611 -74 l 1,26,-1
 540 -188 l 1,27,-1
 379 -185 l 1,28,-1
 540 3 l 1,29,-1
 380 201 l 1,30,-1
 557 201 l 1,31,-1
 617 97 l 1,32,-1
 671 200 l 1,21,-1
351 1638 m 1,33,34
 408 1823 408 1823 473.5 1916.5 c 128,-1,35
 539 2010 539 2010 609 2010 c 0,36,37
 678 2010 678 2010 747.5 1916.5 c 128,-1,38
 817 1823 817 1823 882 1638 c 1,39,40
 926 1496 926 1496 926 1268 c 0,41,42
 926 1038 926 1038 888 838 c 1,43,44
 862 677 862 677 760 481 c 1,45,46
 684 382 684 382 610 382 c 256,47,48
 536 382 536 382 467 481 c 1,49,50
 367 659 367 659 345 838 c 1,51,52
 322 1089 322 1089 322 1289 c 0,53,54
 322 1504 322 1504 351 1638 c 1,33,34
EndSplineSet
EndChar

StartChar: quotedbl
Encoding: 34 34 6
Width: 1233
VWidth: 2048
GlyphClass: 2
Flags: W
LayerCount: 2
Fore
SplineSet
895 1493 m 1,0,-1
 895 938 l 1,1,-1
 721 938 l 1,2,-1
 721 1493 l 1,3,-1
 895 1493 l 1,0,-1
512 1493 m 1,4,-1
 512 938 l 1,5,-1
 338 938 l 1,6,-1
 338 1493 l 1,7,-1
 512 1493 l 1,4,-1
EndSplineSet
EndChar

StartChar: numbersign
Encoding: 35 35 7
Width: 2923
VWidth: 2048
GlyphClass: 2
Flags: W
LayerCount: 2
Fore
SplineSet
1852 257 m 1,0,-1
 1660 257 l 1,1,-1
 1490 837 l 1,2,-1
 1306 837 l 1,3,-1
 1306 257 l 1,4,-1
 1083 257 l 1,5,-1
 1082 837 l 1,6,-1
 684 837 l 1,7,-1
 684 1051 l 1,8,-1
 1089 1222 l 1,9,-1
 1087 1518 l 1,10,-1
 681 1518 l 1,11,-1
 681 1734 l 1,12,-1
 1083 1734 l 1,13,-1
 1083 2315 l 1,14,-1
 1300 2315 l 1,15,-1
 1470 1734 l 1,16,-1
 1650 1734 l 1,17,-1
 1648 2315 l 1,18,-1
 1880 2315 l 1,19,-1
 1874 1734 l 1,20,-1
 2301 1734 l 1,21,-1
 2301 1518 l 1,22,-1
 1879 1341 l 1,23,-1
 1881 1051 l 1,24,-1
 2260 1051 l 1,25,-1
 2260 837 l 1,26,-1
 1872 837 l 1,27,-1
 1852 257 l 1,0,-1
1085 987 m 1,28,-1
 1085 1036 l 1,29,-1
 897 988 l 1,30,-1
 897 986 l 1,31,-1
 1085 987 l 1,28,-1
1877 1580 m 1,32,-1
 1877 1531 l 1,33,-1
 2065 1580 l 1,34,-1
 2065 1581 l 1,35,-1
 1877 1580 l 1,32,-1
1242 1734 m 1,36,-1
 1291 1734 l 1,37,-1
 1243 1922 l 1,38,-1
 1241 1922 l 1,39,-1
 1242 1734 l 1,36,-1
1714 836 m 1,40,-1
 1665 836 l 1,41,-1
 1713 648 l 1,42,-1
 1714 648 l 1,43,-1
 1714 836 l 1,40,-1
1314 1102 m 1,44,-1
 1314 1051 l 1,45,-1
 1431 1051 l 1,46,-1
 1406 1141 l 1,47,-1
 1314 1102 l 1,44,-1
1669 1265 m 1,48,-1
 1609 1227 l 1,49,-1
 1657 1051 l 1,50,-1
 1658 1051 l 1,51,-1
 1669 1265 l 1,48,-1
1297 1288 m 1,52,-1
 1353 1334 l 1,53,-1
 1301 1510 l 1,54,-1
 1297 1288 l 1,52,-1
1657 1462 m 1,55,-1
 1657 1518 l 1,56,-1
 1529 1518 l 1,57,-1
 1556 1419 l 1,58,-1
 1657 1462 l 1,55,-1
EndSplineSet
EndChar

StartChar: dollar
Encoding: 36 36 8
Width: 1520
VWidth: 2048
GlyphClass: 2
Flags: W
LayerCount: 2
Fore
SplineSet
807 -122 m 1,0,-1
 687 -122 l 1,1,-1
 686 240 l 1,2,3
 563 246 563 246 443 273 c 0,4,5
 317 302 317 302 205 350 c 1,6,-1
 205 566 l 1,7,8
 326 491 326 491 446 452 c 0,9,10
 569 413 569 413 687 410 c 1,11,-1
 687 960 l 1,12,13
 448 996 448 996 326 1106 c 0,14,15
 205 1215 205 1215 205 1395 c 0,16,17
 205 1584 205 1584 331 1696 c 0,18,19
 459 1809 459 1809 687 1825 c 1,20,-1
 687 2107 l 1,21,-1
 807 2107 l 1,22,-1
 1198 1752 l 1,23,-1
 1198 1544 l 1,24,25
 1094 1596 1094 1596 1000 1624 c 0,26,27
 902 1653 902 1653 807 1657 c 1,28,-1
 807 1140 l 1,29,30
 1054 1103 1054 1103 1184 986 c 0,31,32
 1313 869 1313 869 1313 685 c 0,33,34
 1313 500 1313 500 1174 376 c 0,35,36
 1032 252 1032 252 808 242 c 1,37,-1
 807 -122 l 1,0,-1
687 1164 m 1,38,-1
 687 1659 l 1,39,40
 562 1654 562 1654 492 1587 c 256,41,42
 422 1520 422 1520 422 1407 c 0,43,44
 422 1304 422 1304 487 1244 c 0,45,46
 554 1183 554 1183 687 1164 c 1,38,-1
807 936 m 1,47,-1
 807 415 l 1,48,49
 938 418 938 418 1013 488 c 0,50,51
 1088 557 1088 557 1088 678 c 0,52,53
 1088 789 1088 789 1021 851 c 0,54,55
 954 912 954 912 807 936 c 1,47,-1
808 1974 m 1,56,-1
 808 1825 l 1,57,58
 878 1821 878 1821 958 1808 c 1,59,-1
 808 1974 l 1,56,-1
EndSplineSet
EndChar

StartChar: percent
Encoding: 37 37 9
Width: 2128
VWidth: 2048
GlyphClass: 2
Flags: W
LayerCount: 2
Fore
SplineSet
302 1216 m 0,0,1
 302 1350 302 1350 394 1444 c 0,2,3
 486 1536 486 1536 621 1536 c 0,4,5
 684 1536 684 1536 744 1512 c 0,6,7
 803 1487 803 1487 847 1443 c 128,-1,8
 891 1399 891 1399 916 1340 c 0,9,10
 937 1291 937 1291 940 1237 c 1,11,-1
 1563 2001 l 1,12,-1
 1750 2001 l 1,13,-1
 610 -474 l 1,14,-1
 1264 391 l 2,15,16
 1274 403 1274 403 1280 408 c 0,17,18
 1372 501 1372 501 1506 501 c 0,19,20
 1570 501 1570 501 1628 477 c 0,21,22
 1685 453 1685 453 1731 407 c 0,23,24
 1776 362 1776 362 1802 302 c 0,25,26
 1827 245 1827 245 1827 181 c 0,27,28
 1827 48 1827 48 1734 -45 c 128,-1,29
 1641 -138 1641 -138 1506 -138 c 0,30,31
 1370 -138 1370 -138 1279 -46 c 0,32,33
 1206 27 1206 27 1191 130 c 1,34,-1
 541 -749 l 1,35,-1
 348 -749 l 1,36,-1
 1532 1809 l 1,37,-1
 848 990 l 1,38,39
 755 897 755 897 621 897 c 0,40,41
 486 897 486 897 394 989 c 128,-1,42
 302 1081 302 1081 302 1216 c 0,0,1
437 1216 m 0,43,44
 437 1137 437 1137 490 1084 c 0,45,46
 542 1032 542 1032 621 1032 c 0,47,48
 698 1032 698 1032 752 1086 c 0,49,50
 806 1138 806 1138 806 1216 c 128,-1,51
 806 1294 806 1294 752 1346 c 0,52,53
 698 1400 698 1400 621 1400 c 0,54,55
 545 1400 545 1400 490 1347 c 0,56,57
 437 1294 437 1294 437 1216 c 0,43,44
1323 181 m 0,58,59
 1323 102 1323 102 1376 50 c 0,60,61
 1427 -3 1427 -3 1506 -3 c 0,62,63
 1583 -3 1583 -3 1636 50 c 0,64,65
 1690 104 1690 104 1690 181 c 128,-1,66
 1690 258 1690 258 1636 312 c 128,-1,67
 1582 366 1582 366 1506 366 c 0,68,69
 1427 366 1427 366 1376 313 c 0,70,71
 1323 261 1323 261 1323 181 c 0,58,59
EndSplineSet
EndChar

StartChar: ampersand
Encoding: 38 38 10
Width: 1233
VWidth: 2048
GlyphClass: 2
Flags: W
LayerCount: 2
Fore
SplineSet
233 475 m 0,0,1
 233 324 233 324 334 224.5 c 128,-1,2
 435 125 435 125 588 125 c 0,3,4
 724 125 724 125 844 223 c 1,5,-1
 416 803 l 1,6,7
 331 735 331 735 282 657.5 c 128,-1,8
 233 580 233 580 233 475 c 0,0,1
492 985 m 1,9,10
 536 1000 536 1000 574 1043.5 c 128,-1,11
 612 1087 612 1087 631.5 1134 c 128,-1,12
 651 1181 651 1181 652 1217 c 2,13,-1
 652 1221 l 2,14,15
 652 1252 652 1252 631.5 1280.5 c 128,-1,16
 611 1309 611 1309 580 1325 c 0,17,18
 545 1344 545 1344 522 1344 c 0,19,20
 497 1344 497 1344 468 1320 c 0,21,22
 412 1275 412 1275 412 1198 c 0,23,24
 412 1141 412 1141 433 1092 c 128,-1,25
 454 1043 454 1043 492 985 c 1,9,10
334 915 m 1,26,27
 287 984 287 984 261.5 1049.5 c 128,-1,28
 236 1115 236 1115 236 1196 c 0,29,30
 236 1346 236 1346 336 1433 c 0,31,32
 381 1473 381 1473 419 1491 c 128,-1,33
 457 1509 457 1509 511 1509 c 0,34,35
 539 1509 539 1509 567 1505 c 0,36,37
 639 1495 639 1495 716 1437.5 c 128,-1,38
 793 1380 793 1380 808 1325 c 0,39,40
 820 1280 820 1280 820 1237 c 0,41,42
 820 1132 820 1132 755 1034.5 c 128,-1,43
 690 937 690 937 580 862 c 1,44,-1
 963 348 l 1,45,46
 1040 444 1040 444 1040 651 c 2,47,-1
 1040 686 l 2,48,49
 1040 734 1040 734 1036 760 c 1,50,-1
 1200 760 l 1,51,-1
 1200 721 l 2,52,53
 1200 403 1200 403 1051 229 c 1,54,-1
 1221 0 l 1,55,-1
 1008 0 l 1,56,-1
 930 109 l 1,57,58
 767 -29 767 -29 555 -29 c 128,-1,59
 343 -29 343 -29 200 104.5 c 128,-1,60
 57 238 57 238 57 444 c 0,61,62
 57 525 57 525 78.5 596 c 128,-1,63
 100 667 100 667 140.5 724.5 c 128,-1,64
 181 782 181 782 227 826.5 c 128,-1,65
 273 871 273 871 334 915 c 1,26,27
EndSplineSet
EndChar

StartChar: quotesingle
Encoding: 39 39 11
Width: 1233
VWidth: 2048
GlyphClass: 2
Flags: W
LayerCount: 2
Fore
SplineSet
702 1493 m 1,0,-1
 702 938 l 1,1,-1
 528 938 l 1,2,-1
 528 1493 l 1,3,-1
 702 1493 l 1,0,-1
EndSplineSet
EndChar

StartChar: parenleft
Encoding: 40 40 12
Width: 1334
VWidth: 2048
GlyphClass: 2
Flags: W
LayerCount: 2
Fore
SplineSet
1052 3250 m 1,0,1
 1035 3208 1035 3208 974 3065 c 128,-1,2
 913 2922 913 2922 873.5 2826 c 128,-1,3
 834 2730 834 2730 789 2600.5 c 128,-1,4
 744 2471 744 2471 726 2384 c 0,5,6
 663 2087 663 2087 628.5 1867.5 c 128,-1,7
 594 1648 594 1648 594 1468 c 0,8,9
 594 1207 594 1207 597 1165 c 1,10,-1
 847 1165 l 1,11,-1
 846 935 l 1,12,-1
 596 935 l 1,13,14
 595 914 595 914 593.5 904 c 128,-1,15
 592 894 592 894 591.5 893.5 c 128,-1,16
 591 893 591 893 590 892 c 128,-1,17
 589 891 589 891 588.5 887.5 c 128,-1,18
 588 884 588 884 587.5 868.5 c 128,-1,19
 587 853 587 853 587 823 c 0,20,21
 587 268 587 268 688 -99 c 0,22,23
 710 -189 710 -189 758.5 -326 c 128,-1,24
 807 -463 807 -463 845 -558.5 c 128,-1,25
 883 -654 883 -654 948.5 -812.5 c 128,-1,26
 1014 -971 1014 -971 1026 -1000 c 1,27,-1
 869 -1000 l 1,28,29
 785 -813 785 -813 740 -709.5 c 128,-1,30
 695 -606 695 -606 617 -408.5 c 128,-1,31
 539 -211 539 -211 505 -90 c 0,32,33
 400 283 400 283 400 867 c 1,34,-1
 401 910 l 1,35,36
 402 909 402 909 402 908 c 0,37,38
 404 899 404 899 405 909 c 0,39,40
 405 917 405 917 406 936 c 1,41,-1
 327 936 l 1,42,-1
 327 1165 l 1,43,-1
 408 1165 l 1,44,45
 417 1428 417 1428 453 1790.5 c 128,-1,46
 489 2153 489 2153 543 2374 c 0,47,48
 558 2434 558 2434 586 2515 c 128,-1,49
 614 2596 614 2596 638 2659 c 128,-1,50
 662 2722 662 2722 707 2827.5 c 128,-1,51
 752 2933 752 2933 771.5 2976.5 c 128,-1,52
 791 3020 791 3020 841 3130.5 c 128,-1,53
 891 3241 891 3241 895 3250 c 1,54,-1
 1052 3250 l 1,0,1
EndSplineSet
EndChar

StartChar: parenright
Encoding: 41 41 13
Width: 1334
VWidth: 2048
GlyphClass: 2
Flags: W
LayerCount: 2
Fore
SplineSet
300 3250 m 1,0,-1
 457 3250 l 1,1,2
 461 3241 461 3241 511 3130.5 c 128,-1,3
 561 3020 561 3020 580.5 2976.5 c 128,-1,4
 600 2933 600 2933 645 2827.5 c 128,-1,5
 690 2722 690 2722 714 2659 c 128,-1,6
 738 2596 738 2596 766 2515 c 128,-1,7
 794 2434 794 2434 809 2374 c 0,8,9
 863 2153 863 2153 899 1790.5 c 128,-1,10
 935 1428 935 1428 944 1165 c 1,11,-1
 1025 1165 l 1,12,-1
 1025 936 l 1,13,-1
 946 936 l 1,14,-1
 949 903 l 1,15,16
 949 904 949 904 950 908 c 0,17,18
 951 914 951 914 952 907 c 0,19,20
 952 898 952 898 952 867 c 0,21,22
 952 283 952 283 847 -90 c 0,23,24
 813 -211 813 -211 735 -408.5 c 128,-1,25
 657 -606 657 -606 612 -709.5 c 128,-1,26
 567 -813 567 -813 483 -1000 c 1,27,-1
 326 -1000 l 1,28,29
 338 -971 338 -971 403.5 -812.5 c 128,-1,30
 469 -654 469 -654 507 -558.5 c 128,-1,31
 545 -463 545 -463 593.5 -326 c 128,-1,32
 642 -189 642 -189 664 -99 c 0,33,34
 765 268 765 268 765 823 c 0,35,36
 765 891 765 891 762 892 c 0,37,38
 758 894 758 894 756 935 c 1,39,-1
 506 935 l 1,40,-1
 505 1165 l 1,41,-1
 755 1165 l 1,42,43
 758 1207 758 1207 758 1468 c 0,44,45
 758 1648 758 1648 723.5 1867.5 c 128,-1,46
 689 2087 689 2087 626 2384 c 0,47,48
 608 2471 608 2471 563 2600.5 c 128,-1,49
 518 2730 518 2730 478.5 2826 c 128,-1,50
 439 2922 439 2922 378 3065 c 128,-1,51
 317 3208 317 3208 300 3250 c 1,0,-1
EndSplineSet
EndChar

StartChar: asterisk
Encoding: 42 42 14
Width: 1233
VWidth: 2048
GlyphClass: 2
Flags: W
LayerCount: 2
Fore
SplineSet
1067 1247 m 1,0,-1
 709 1053 l 1,1,-1
 1067 858 l 1,2,-1
 1010 760 l 1,3,-1
 674 963 l 1,4,-1
 674 586 l 1,5,-1
 559 586 l 1,6,-1
 559 963 l 1,7,-1
 223 760 l 1,8,-1
 166 858 l 1,9,-1
 524 1053 l 1,10,-1
 166 1247 l 1,11,-1
 223 1346 l 1,12,-1
 559 1143 l 1,13,-1
 559 1520 l 1,14,-1
 674 1520 l 1,15,-1
 674 1143 l 1,16,-1
 1010 1346 l 1,17,-1
 1067 1247 l 1,0,-1
EndSplineSet
EndChar

StartChar: plus
Encoding: 43 43 15
Width: 1479
VWidth: 2048
GlyphClass: 2
Flags: W
LayerCount: 2
Fore
SplineSet
858 1372 m 1,0,-1
 858 750 l 1,1,-1
 1341 756 l 1,2,-1
 1341 518 l 1,3,-1
 858 512 l 1,4,-1
 858 -109 l 1,5,-1
 623 -109 l 1,6,-1
 623 512 l 1,7,-1
 129 509 l 1,8,-1
 129 747 l 1,9,-1
 623 750 l 1,10,-1
 623 1372 l 1,11,-1
 858 1372 l 1,0,-1
EndSplineSet
EndChar

StartChar: comma
Encoding: 44 44 16
Width: 1233
VWidth: 2048
GlyphClass: 2
Flags: W
LayerCount: 2
Fore
SplineSet
528 250 m 1,0,-1
 859 250 l 1,1,-1
 858 0 l 1,2,-1
 422 -353 l 1,3,-1
 249 -353 l 1,4,-1
 528 0 l 1,5,-1
 528 250 l 1,0,-1
EndSplineSet
EndChar

StartChar: hyphen
Encoding: 45 45 17
Width: 1659
VWidth: 2048
GlyphClass: 2
Flags: W
LayerCount: 2
Fore
SplineSet
69 592 m 1,0,-1
 1549 592 l 1,1,-1
 1549 420 l 1,2,-1
 69 420 l 1,3,-1
 69 592 l 1,0,-1
69 868 m 1,4,-1
 1549 868 l 1,5,-1
 1549 698 l 1,6,-1
 69 698 l 1,7,-1
 69 868 l 1,4,-1
EndSplineSet
EndChar

StartChar: period
Encoding: 46 46 18
Width: 2250
VWidth: 0
GlyphClass: 2
Flags: W
LayerCount: 2
Fore
SplineSet
1152 196 m 1,0,-1
 1334 197 l 1,1,-1
 1166 6 l 1,2,-1
 1324 -186 l 1,3,-1
 1142 -188 l 1,4,-1
 1092 -78 l 1,5,-1
 1021 -192 l 1,6,-1
 860 -188 l 1,7,-1
 1021 -1 l 1,8,-1
 861 197 l 1,9,-1
 1038 197 l 1,10,-1
 1098 93 l 1,11,-1
 1152 196 l 1,0,-1
EndSplineSet
EndChar

StartChar: slash
Encoding: 47 47 19
Width: 2510
VWidth: 2048
GlyphClass: 2
Flags: W
LayerCount: 2
Fore
SplineSet
2320 3250 m 1,0,-1
 2510 3250 l 1,1,-1
 179 -995 l 1,2,-1
 -12 -995 l 1,3,-1
 2320 3250 l 1,0,-1
EndSplineSet
EndChar

StartChar: zero
Encoding: 48 48 20
Width: 1233
VWidth: 2048
GlyphClass: 2
Flags: W
LayerCount: 2
Fore
SplineSet
616 1520 m 0,0,1
 855 1520 855 1520 978 1324 c 0,2,3
 1100 1127 1100 1127 1100 745 c 0,4,5
 1100 364 1100 364 978 167 c 0,6,7
 855 -29 855 -29 616 -29 c 0,8,9
 376 -29 376 -29 255 167 c 0,10,11
 133 364 133 364 133 745 c 0,12,13
 133 1127 133 1127 255 1324 c 0,14,15
 376 1520 376 1520 616 1520 c 0,0,1
616 1360 m 0,16,17
 475 1360 475 1360 406 1208 c 0,18,19
 336 1058 336 1058 336 745 c 0,20,21
 336 471 336 471 390 321 c 1,22,-1
 780 1285 l 1,23,24
 716 1360 716 1360 616 1360 c 0,16,17
471 187 m 1,25,26
 532 131 532 131 616 131 c 0,27,28
 757 131 757 131 828 283 c 0,29,30
 897 434 897 434 897 745 c 0,31,32
 897 975 897 975 860 1116 c 1,33,-1
 471 187 l 1,25,26
EndSplineSet
EndChar

StartChar: one
Encoding: 49 49 21
Width: 1233
VWidth: 2048
GlyphClass: 2
Flags: W
LayerCount: 2
Fore
SplineSet
270 170 m 1,0,-1
 584 170 l 1,1,-1
 584 1311 l 1,2,-1
 246 1235 l 1,3,-1
 246 1419 l 1,4,-1
 582 1493 l 1,5,-1
 784 1493 l 1,6,-1
 784 170 l 1,7,-1
 1094 170 l 1,8,-1
 1094 0 l 1,9,-1
 270 0 l 1,10,-1
 270 170 l 1,0,-1
EndSplineSet
EndChar

StartChar: two
Encoding: 50 50 22
Width: 1233
VWidth: 2048
GlyphClass: 2
Flags: W
LayerCount: 2
Fore
SplineSet
373 170 m 1,0,-1
 1059 170 l 1,1,-1
 1059 0 l 1,2,-1
 152 0 l 1,3,-1
 152 170 l 1,4,5
 340 366 340 366 479 518 c 0,6,7
 632 684 632 684 672 731 c 0,8,9
 772 852 772 852 807 928 c 0,10,11
 842 1006 842 1006 842 1083 c 0,12,13
 842 1209 842 1209 769 1279 c 0,14,15
 695 1350 695 1350 567 1350 c 0,16,17
 476 1350 476 1350 376 1317 c 128,-1,18
 276 1284 276 1284 164 1217 c 1,19,-1
 164 1421 l 1,20,21
 264 1469 264 1469 367 1495 c 0,22,23
 464 1520 464 1520 563 1520 c 0,24,25
 782 1520 782 1520 916 1404 c 0,26,27
 1049 1287 1049 1287 1049 1098 c 0,28,29
 1049 1003 1049 1003 1005 906 c 0,30,31
 959 808 959 808 860 694 c 0,32,33
 831 660 831 660 698 514 c 0,34,35
 623 434 623 434 373 170 c 1,0,-1
EndSplineSet
EndChar

StartChar: three
Encoding: 51 51 23
Width: 1233
VWidth: 2048
GlyphClass: 2
Flags: W
LayerCount: 2
Fore
SplineSet
776 799 m 1,0,1
 923 760 923 760 1001 660 c 0,2,3
 1079 561 1079 561 1079 412 c 0,4,5
 1079 206 1079 206 940 88 c 0,6,7
 802 -29 802 -29 557 -29 c 0,8,9
 451 -29 451 -29 347 -10 c 0,10,11
 237 10 237 10 137 45 c 1,12,-1
 137 246 l 1,13,14
 243 191 243 191 338 167 c 0,15,16
 439 141 439 141 535 141 c 0,17,18
 702 141 702 141 790 216 c 0,19,20
 879 291 879 291 879 432 c 0,21,22
 879 563 879 563 790 638 c 0,23,24
 703 715 703 715 549 715 c 2,25,-1
 395 715 l 1,26,-1
 395 881 l 1,27,-1
 549 881 l 2,28,29
 689 881 689 881 766 942 c 0,30,31
 844 1004 844 1004 844 1112 c 0,32,33
 844 1228 844 1228 771 1289 c 0,34,35
 700 1350 700 1350 565 1350 c 0,36,37
 478 1350 478 1350 381 1330 c 128,-1,38
 284 1310 284 1310 182 1270 c 1,39,-1
 182 1456 l 1,40,41
 304 1488 304 1488 398 1504 c 0,42,43
 490 1520 490 1520 565 1520 c 0,44,45
 783 1520 783 1520 914 1411 c 0,46,47
 1044 1301 1044 1301 1044 1120 c 0,48,49
 1044 998 1044 998 976 915 c 0,50,51
 908 834 908 834 776 799 c 1,0,1
EndSplineSet
EndChar

StartChar: four
Encoding: 52 52 24
Width: 1233
VWidth: 2048
GlyphClass: 2
Flags: W
LayerCount: 2
Fore
SplineSet
735 1309 m 1,0,-1
 264 520 l 1,1,-1
 735 520 l 1,2,-1
 735 1309 l 1,0,-1
702 1493 m 1,3,-1
 936 1493 l 1,4,-1
 936 520 l 1,5,-1
 1135 520 l 1,6,-1
 1135 356 l 1,7,-1
 936 356 l 1,8,-1
 936 0 l 1,9,-1
 735 0 l 1,10,-1
 735 356 l 1,11,-1
 102 356 l 1,12,-1
 102 547 l 1,13,-1
 702 1493 l 1,3,-1
EndSplineSet
EndChar

StartChar: five
Encoding: 53 53 25
Width: 1233
VWidth: 2048
GlyphClass: 2
Flags: W
LayerCount: 2
Fore
SplineSet
207 1493 m 1,0,-1
 963 1493 l 1,1,-1
 963 1323 l 1,2,-1
 391 1323 l 1,3,-1
 391 956 l 1,4,5
 430 971 430 971 478 979 c 0,6,7
 524 987 524 987 565 987 c 0,8,9
 796 987 796 987 933 850 c 0,10,11
 1069 714 1069 714 1069 479 c 0,12,13
 1069 243 1069 243 927 107 c 128,-1,14
 785 -29 785 -29 537 -29 c 0,15,16
 415 -29 415 -29 320 -13 c 0,17,18
 221 4 221 4 143 35 c 1,19,-1
 143 240 l 1,20,21
 236 190 236 190 328 166 c 0,22,23
 419 141 419 141 518 141 c 0,24,25
 685 141 685 141 776 229 c 0,26,27
 866 318 866 318 866 479 c 128,-1,28
 866 640 866 640 772 728 c 0,29,30
 678 817 678 817 512 817 c 0,31,32
 429 817 429 817 354 798 c 0,33,34
 276 780 276 780 207 743 c 1,35,-1
 207 1493 l 1,0,-1
EndSplineSet
EndChar

StartChar: six
Encoding: 54 54 26
Width: 1233
VWidth: 2048
GlyphClass: 2
Flags: W
LayerCount: 2
Fore
SplineSet
991 1460 m 1,0,-1
 991 1274 l 1,1,2
 932 1309 932 1309 857 1330 c 0,3,4
 785 1350 785 1350 709 1350 c 0,5,6
 517 1350 517 1350 418 1205 c 0,7,8
 319 1061 319 1061 319 780 c 1,9,10
 367 880 367 880 452 934 c 0,11,12
 538 987 538 987 647 987 c 0,13,14
 864 987 864 987 982 854 c 0,15,16
 1100 723 1100 723 1100 479 c 0,17,18
 1100 238 1100 238 978 104 c 0,19,20
 857 -29 857 -29 635 -29 c 0,21,22
 375 -29 375 -29 254 158 c 0,23,24
 133 343 133 343 133 745 c 0,25,26
 133 1122 133 1122 279 1321 c 0,27,28
 424 1520 424 1520 700 1520 c 0,29,30
 777 1520 777 1520 848 1504 c 0,31,32
 920 1489 920 1489 991 1460 c 1,0,-1
631 829 m 0,33,34
 501 829 501 829 428 736 c 0,35,36
 354 642 354 642 354 479 c 128,-1,37
 354 316 354 316 428 222 c 0,38,39
 501 129 501 129 631 129 c 0,40,41
 766 129 766 129 833 217 c 0,42,43
 901 306 901 306 901 479 c 128,-1,44
 901 652 901 652 833 741 c 0,45,46
 766 829 766 829 631 829 c 0,33,34
EndSplineSet
EndChar

StartChar: seven
Encoding: 55 55 27
Width: 1233
VWidth: 2048
GlyphClass: 2
Flags: W
LayerCount: 2
Fore
SplineSet
139 1493 m 1,0,-1
 1079 1493 l 1,1,-1
 1079 1407 l 1,2,-1
 545 0 l 1,3,-1
 334 0 l 1,4,-1
 854 1323 l 1,5,-1
 139 1323 l 1,6,-1
 139 1493 l 1,0,-1
EndSplineSet
EndChar

StartChar: eight
Encoding: 56 56 28
Width: 1233
VWidth: 2048
GlyphClass: 2
Flags: W
LayerCount: 2
Fore
SplineSet
616 709 m 0,0,1
 480 709 480 709 407 634 c 0,2,3
 334 558 334 558 334 420 c 0,4,5
 334 283 334 283 408 206 c 0,6,7
 483 129 483 129 616 129 c 0,8,9
 751 129 751 129 826 205 c 0,10,11
 899 281 899 281 899 420 c 0,12,13
 899 556 899 556 824 633 c 0,14,15
 751 709 751 709 616 709 c 0,0,1
440 793 m 1,16,17
 312 826 312 826 238 916 c 0,18,19
 166 1006 166 1006 166 1133 c 0,20,21
 166 1311 166 1311 287 1416 c 0,22,23
 409 1520 409 1520 616 1520 c 0,24,25
 824 1520 824 1520 946 1416 c 0,26,27
 1067 1311 1067 1311 1067 1133 c 0,28,29
 1067 1005 1067 1005 994 916 c 0,30,31
 922 826 922 826 793 793 c 1,32,33
 943 760 943 760 1022 660 c 0,34,35
 1102 559 1102 559 1102 401 c 0,36,37
 1102 199 1102 199 973 85 c 128,-1,38
 844 -29 844 -29 616 -29 c 128,-1,39
 388 -29 388 -29 259 85 c 0,40,41
 131 198 131 198 131 399 c 0,42,43
 131 560 131 560 210 660 c 128,-1,44
 289 760 289 760 440 793 c 1,16,17
367 1114 m 0,45,46
 367 994 367 994 431 931 c 0,47,48
 496 868 496 868 616 868 c 0,49,50
 738 868 738 868 802 931 c 256,51,52
 866 994 866 994 866 1114 c 0,53,54
 866 1236 866 1236 802 1300 c 0,55,56
 739 1364 739 1364 616 1364 c 0,57,58
 497 1364 497 1364 431 1300 c 0,59,60
 367 1235 367 1235 367 1114 c 0,45,46
EndSplineSet
EndChar

StartChar: nine
Encoding: 57 57 29
Width: 1233
VWidth: 2048
GlyphClass: 2
Flags: W
LayerCount: 2
Fore
SplineSet
596 662 m 0,0,1
 724 662 724 662 798 755 c 0,2,3
 872 849 872 849 872 1012 c 128,-1,4
 872 1175 872 1175 798 1269 c 0,5,6
 724 1362 724 1362 596 1362 c 0,7,8
 462 1362 462 1362 394 1274 c 0,9,10
 326 1183 326 1183 326 1012 c 0,11,12
 326 837 326 837 394 750 c 0,13,14
 460 662 460 662 596 662 c 0,0,1
236 31 m 1,15,-1
 236 217 l 1,16,17
 295 182 295 182 370 161 c 0,18,19
 442 141 442 141 518 141 c 0,20,21
 711 141 711 141 808 286 c 0,22,23
 907 430 907 430 907 711 c 1,24,25
 860 610 860 610 775 558 c 0,26,27
 690 504 690 504 580 504 c 0,28,29
 363 504 363 504 245 637 c 128,-1,30
 127 770 127 770 127 1014 c 0,31,32
 127 1255 127 1255 248 1388 c 0,33,34
 370 1520 370 1520 592 1520 c 0,35,36
 852 1520 852 1520 973 1333 c 128,-1,37
 1094 1146 1094 1146 1094 745 c 0,38,39
 1094 369 1094 369 948 170 c 0,40,41
 803 -29 803 -29 526 -29 c 0,42,43
 450 -29 450 -29 379 -13 c 0,44,45
 307 2 307 2 236 31 c 1,15,-1
EndSplineSet
EndChar

StartChar: colon
Encoding: 58 58 30
Width: 1233
VWidth: 2048
GlyphClass: 2
Flags: W
LayerCount: 2
Fore
SplineSet
636 887 m 1,0,-1
 818 888 l 1,1,-1
 650 698 l 1,2,-1
 808 505 l 1,3,-1
 626 503 l 1,4,-1
 576 613 l 1,5,-1
 505 499 l 1,6,-1
 344 503 l 1,7,-1
 505 690 l 1,8,-1
 345 888 l 1,9,-1
 522 888 l 1,10,-1
 582 784 l 1,11,-1
 636 887 l 1,0,-1
636 197 m 1,12,-1
 818 198 l 1,13,-1
 650 8 l 1,14,-1
 808 -185 l 1,15,-1
 626 -187 l 1,16,-1
 576 -77 l 1,17,-1
 505 -191 l 1,18,-1
 344 -187 l 1,19,-1
 505 0 l 1,20,-1
 345 198 l 1,21,-1
 522 198 l 1,22,-1
 582 94 l 1,23,-1
 636 197 l 1,12,-1
EndSplineSet
EndChar

StartChar: semicolon
Encoding: 59 59 31
Width: 1233
VWidth: 2048
GlyphClass: 2
Flags: W
LayerCount: 2
Fore
SplineSet
528 250 m 1,0,-1
 859 250 l 1,1,-1
 858 0 l 1,2,-1
 422 -353 l 1,3,-1
 249 -353 l 1,4,-1
 528 0 l 1,5,-1
 528 250 l 1,0,-1
770 884 m 1,6,-1
 952 885 l 1,7,-1
 784 695 l 1,8,-1
 942 502 l 1,9,-1
 760 500 l 1,10,-1
 710 610 l 1,11,-1
 639 496 l 1,12,-1
 478 500 l 1,13,-1
 639 687 l 1,14,-1
 479 885 l 1,15,-1
 656 885 l 1,16,-1
 717 781 l 1,17,-1
 770 884 l 1,6,-1
EndSplineSet
EndChar

StartChar: less
Encoding: 60 60 32
Width: 2297
VWidth: 2048
GlyphClass: 2
Flags: W
LayerCount: 2
Fore
SplineSet
1994 1801 m 1,0,-1
 510 994 l 1,1,-1
 1994 183 l 1,2,-1
 1994 0 l 1,3,-1
 302 912 l 1,4,-1
 302 1078 l 1,5,-1
 1994 1983 l 1,6,-1
 1994 1801 l 1,0,-1
EndSplineSet
EndChar

StartChar: equal
Encoding: 61 61 33
Width: 1233
VWidth: 2048
GlyphClass: 2
Flags: W
LayerCount: 2
Fore
SplineSet
550 1098 m 1,0,-1
 718 1098 l 1,1,-1
 718 930 l 1,2,-1
 1145 930 l 1,3,-1
 1145 760 l 1,4,-1
 88 760 l 1,5,-1
 88 930 l 1,6,-1
 550 930 l 1,7,-1
 550 1098 l 1,0,-1
88 524 m 1,8,-1
 1145 524 l 1,9,-1
 1145 352 l 1,10,-1
 706 352 l 1,11,-1
 706 183 l 1,12,-1
 538 183 l 1,13,-1
 538 352 l 1,14,-1
 88 352 l 1,15,-1
 88 524 l 1,8,-1
EndSplineSet
EndChar

StartChar: greater
Encoding: 62 62 34
Width: 2297
VWidth: 2048
GlyphClass: 2
Flags: W
LayerCount: 2
Fore
SplineSet
302 1801 m 1,0,-1
 302 1983 l 1,1,-1
 1994 1078 l 1,2,-1
 1994 912 l 1,3,-1
 302 0 l 1,4,-1
 302 183 l 1,5,-1
 1786 994 l 1,6,-1
 302 1801 l 1,0,-1
EndSplineSet
EndChar

StartChar: question
Encoding: 63 63 35
Width: 1581
VWidth: 0
GlyphClass: 2
Flags: W
LayerCount: 2
Fore
SplineSet
777 197 m 1,0,-1
 959 199 l 1,1,-1
 792 8 l 1,2,-1
 949 -184 l 1,3,-1
 767 -187 l 1,4,-1
 717 -77 l 1,5,-1
 646 -190 l 1,6,-1
 485 -187 l 1,7,-1
 647 0 l 1,8,-1
 486 198 l 1,9,-1
 663 198 l 1,10,-1
 724 94 l 1,11,-1
 777 197 l 1,0,-1
819 542 m 1,12,-1
 647 542 l 1,13,-1
 647 719 l 2,14,15
 647 841 647 841 683 938 c 0,16,17
 712 1023 712 1023 823 1127 c 1,18,-1
 824 1129 l 1,19,-1
 942 1252 l 1,20,-1
 943 1254 l 1,21,22
 1015 1336 1015 1336 1043 1402 c 0,23,24
 1072 1472 1072 1472 1072 1538 c 0,25,26
 1072 1675 1072 1675 992 1756 c 0,27,28
 907 1841 907 1841 745 1841 c 0,29,30
 624 1841 624 1841 513 1794 c 0,31,32
 412 1754 412 1754 307 1685 c 1,33,-1
 307 1860 l 1,34,35
 415 1923 415 1923 541 1962 c 0,36,37
 659 2001 659 2001 790 2001 c 0,38,39
 994 2001 994 2001 1140 1876 c 0,40,41
 1278 1757 1278 1757 1278 1551 c 0,42,43
 1278 1450 1278 1450 1239 1375 c 0,44,45
 1196 1292 1196 1292 1073 1170 c 2,46,-1
 947 1048 l 1,47,-1
 944 1046 l 1,48,49
 861 949 861 949 840 890 c 0,50,51
 819 824 819 824 819 740 c 2,52,-1
 819 542 l 1,12,-1
EndSplineSet
EndChar

StartChar: at
Encoding: 64 64 36
Width: 1572
VWidth: 2048
GlyphClass: 2
Flags: W
LayerCount: 2
Fore
SplineSet
1220 526 m 0,0,1
 1220 656 1220 656 1156 732 c 0,2,3
 1092 810 1092 810 985 810 c 0,4,5
 877 810 877 810 814 732 c 0,6,7
 749 657 749 657 749 526 c 128,-1,8
 749 395 749 395 814 318 c 0,9,10
 877 241 877 241 985 241 c 0,11,12
 1091 241 1091 241 1156 318 c 0,13,14
 1220 395 1220 395 1220 526 c 0,0,1
1360 746 m 2,15,16
 1360 736 1360 736 1360.5 716.5 c 128,-1,17
 1361 697 1361 697 1361 688 c 0,18,19
 1361 566 1361 566 1340 437 c 1,20,21
 1314 328 1314 328 1257 251 c 0,22,23
 1240 222 1240 222 1195.5 186 c 128,-1,24
 1151 150 1151 150 1114 130 c 0,25,26
 1049 96 1049 96 966 96 c 0,27,28
 805 96 805 96 700 217 c 0,29,30
 594 338 594 338 594 526 c 128,-1,31
 594 714 594 714 700 835 c 0,32,33
 805 956 805 956 966 956 c 0,34,35
 1045 956 1045 956 1113 921 c 0,36,37
 1180 887 1180 887 1216 825 c 1,38,-1
 1216 888 l 2,39,40
 1216 1045 1216 1045 1128 1139 c 0,41,42
 1039 1234 1039 1234 895 1234 c 0,43,44
 648 1234 648 1234 504 1042 c 0,45,46
 358 853 358 853 358 524 c 128,-1,47
 358 195 358 195 523 0 c 128,-1,48
 688 -195 688 -195 962 -195 c 0,49,50
 1019 -195 1019 -195 1070 -185 c 0,51,52
 1127 -174 1127 -174 1181 -154 c 1,53,-1
 1229 -289 l 1,54,55
 1167 -314 1167 -314 1104 -326 c 0,56,57
 1044 -338 1044 -338 985 -338 c 0,58,59
 628 -338 628 -338 418 -105 c 0,60,61
 209 128 209 128 209 524 c 0,62,63
 209 913 209 913 397 1145 c 0,64,65
 584 1376 584 1376 901 1376 c 0,66,67
 1111 1376 1111 1376 1235 1243 c 0,68,69
 1360 1109 1360 1109 1360 886 c 2,70,-1
 1360 746 l 2,15,16
EndSplineSet
EndChar

StartChar: A
Encoding: 65 65 37
Width: 1663
VWidth: 0
GlyphClass: 2
Flags: W
LayerCount: 2
Fore
SplineSet
903 151 m 1025
EndSplineSet
Refer: 69 97 S 1 0 0 1 944 -56 2
Refer: 169 710 N 1 0 0 1 736 1808 2
EndChar

StartChar: K
Encoding: 75 75 47
Width: 1123
VWidth: 0
GlyphClass: 2
Flags: W
LayerCount: 2
Fore
SplineSet
773 2250 m 1,0,-1
 952 2250 l 1,1,-1
 953 110 l 2,2,3
 953 64 953 64 988 64 c 0,4,5
 1016 64 1016 64 1057 92.5 c 0,6,7
 1098 121 1098 121 1128 158 c 1,8,-1
 1242 68 l 1,9,10
 1154 -5 1154 -5 1096.5 -33 c 0,11,12
 1039 -61 1039 -61 953 -61 c 0,13,14
 877 -61 877 -61 825 -18 c 0,15,16
 773 25 773 25 773 92 c 2,17,-1
 773 2250 l 1,0,-1
EndSplineSet
Refer: 169 710 S 1 0 0 1 208 1808 2
EndChar

StartChar: M
Encoding: 77 77 49
Width: 1493
VWidth: 0
GlyphClass: 2
Flags: W
LayerCount: 2
Fore
SplineSet
1139 92 m 2,0,-1
 1136 896 l 2,1,2
 1137 910 1137 910 1137 931 c 0,3,4
 1137 1077 1137 1077 1064 1077 c 2,5,6
 1064 1077 1064 1077 1058 1077 c 0,7,8
 1023 1074 1023 1074 990 1053.5 c 0,9,10
 957 1033 957 1033 934 1006.5 c 0,11,12
 911 980 911 980 893.5 954.5 c 0,13,14
 876 929 876 929 868 911 c 2,15,-1
 859 893 l 1,16,-1
 704 997 l 1,17,18
 709 1007 709 1007 719.5 1024 c 0,19,20
 730 1041 730 1041 765.5 1084 c 0,21,22
 801 1127 801 1127 840.5 1160 c 0,23,24
 880 1193 880 1193 942 1220 c 0,25,26
 1004 1247 1004 1247 1068 1247 c 0,27,28
 1117 1247 1117 1247 1157 1233.5 c 0,29,30
 1197 1220 1197 1220 1222.5 1198 c 0,31,32
 1248 1176 1248 1176 1267 1150 c 0,33,34
 1286 1124 1286 1124 1295 1097.5 c 0,35,36
 1304 1071 1304 1071 1309.5 1049 c 0,37,38
 1315 1027 1315 1027 1316 1014 c 2,39,-1
 1317 1000 l 1,40,-1
 1318 110 l 2,41,42
 1318 64 1318 64 1353 64 c 0,43,44
 1381 64 1381 64 1422 92.5 c 0,45,46
 1463 121 1463 121 1493 158 c 1,47,-1
 1607 68 l 1,48,49
 1519 -5 1519 -5 1462 -33 c 0,50,51
 1405 -61 1405 -61 1318 -61 c 0,52,53
 1242 -61 1242 -61 1190.5 -18.5 c 0,54,55
 1139 24 1139 24 1139 92 c 2,0,-1
EndSplineSet
Refer: 169 710 S 1 0 0 1 432 1808 2
EndChar

StartChar: N
Encoding: 78 78 50
Width: 1469
VWidth: 0
GlyphClass: 2
Flags: W
LayerCount: 2
Fore
SplineSet
1027 92 m 0,0,1
 1028 106 1028 106 1028 127 c 0,2,3
 1028 273 1028 273 955 273 c 2,4,-1
 949 273 l 2,5,6
 914 270 914 270 881 249.5 c 0,7,8
 848 229 848 229 825 202.5 c 0,9,10
 802 176 802 176 784.5 150.5 c 0,11,12
 767 125 767 125 758 107 c 2,13,-1
 750 89 l 1,14,-1
 595 193 l 1,15,16
 600 203 600 203 610.5 220 c 0,17,18
 621 237 621 237 656.5 280 c 0,19,20
 692 323 692 323 731.5 356 c 0,21,22
 771 389 771 389 833 416 c 0,23,24
 895 443 895 443 959 443 c 0,25,26
 1008 443 1008 443 1048 429.5 c 0,27,28
 1088 416 1088 416 1113.5 394 c 0,29,30
 1139 372 1139 372 1158 346 c 0,31,32
 1177 320 1177 320 1186 293.5 c 0,33,34
 1195 267 1195 267 1200.5 245 c 0,35,36
 1206 223 1206 223 1207 210 c 2,37,-1
 1208 196 l 1,38,-1
 1206 110 l 2,39,40
 1206 64 1206 64 1241 64 c 0,41,42
 1269 64 1269 64 1310 92.5 c 0,43,44
 1351 121 1351 121 1381 158 c 1,45,-1
 1495 68 l 1,46,47
 1407 -5 1407 -5 1350 -33 c 0,48,49
 1293 -61 1293 -61 1206 -61 c 0,50,51
 1130 -61 1130 -61 1078.5 -18.5 c 0,52,53
 1027 24 1027 24 1027 92 c 0,0,1
EndSplineSet
Refer: 169 710 S 1 0 0 1 384 1792 2
EndChar

StartChar: O
Encoding: 79 79 51
Width: 1506
VWidth: 0
GlyphClass: 2
Flags: W
LayerCount: 2
Fore
SplineSet
1410 1092 m 1,0,-1
 1514 1055 l 1,1,2
 1472 842 1472 842 1412 686 c 0,3,4
 1352 530 1352 530 1261 407.5 c 0,5,6
 1170 285 1170 285 1043 204.5 c 0,7,8
 916 124 916 124 744 77 c 1,9,-1
 659 158 l 1,10,11
 826 197 826 197 955.5 280 c 0,12,13
 1085 363 1085 363 1174 486 c 0,14,15
 1263 609 1263 609 1320 757.5 c 0,16,17
 1377 906 1377 906 1410 1092 c 1,0,-1
EndSplineSet
Refer: 169 710 S 1 0 0 1 512 1808 2
EndChar

StartChar: Q
Encoding: 81 81 53
Width: 1123
VWidth: 0
GlyphClass: 2
Flags: W
LayerCount: 2
Fore
SplineSet
773 2250 m 1,0,-1
 952 2250 l 1,1,-1
 953 110 l 2,2,3
 953 64 953 64 988 64 c 0,4,5
 1016 64 1016 64 1057 92.5 c 0,6,7
 1098 121 1098 121 1128 158 c 1,8,-1
 1242 68 l 1,9,10
 1154 -5 1154 -5 1096.5 -33 c 0,11,12
 1039 -61 1039 -61 953 -61 c 0,13,14
 877 -61 877 -61 825 -18 c 0,15,16
 773 25 773 25 773 92 c 2,17,-1
 773 2250 l 1,0,-1
EndSplineSet
Refer: 169 710 S 1 0 0 1 176 1808 2
EndChar

StartChar: R
Encoding: 82 82 54
Width: 1375
VWidth: 0
GlyphClass: 2
Flags: W
LayerCount: 2
Fore
SplineSet
1288 299 m 1,0,-1
 1560 -88 l 1,1,-1
 1378 -88 l 1,2,-1
 1098 299 l 1,3,-1
 1288 299 l 1,0,-1
EndSplineSet
Refer: 169 710 S 1 0 0 1 432 1808 2
EndChar

StartChar: U
Encoding: 85 85 57
Width: 1271
VWidth: 0
GlyphClass: 2
Flags: W
LayerCount: 2
Fore
SplineSet
772 119 m 2,0,1
 772 40 772 40 809.5 3.5 c 0,2,3
 847 -33 847 -33 917 -38 c 1,4,-1
 928 -38 l 2,5,6
 1020 -38 1020 -38 1073.5 52 c 0,7,8
 1127 142 1127 142 1159 381.5 c 0,9,10
 1191 621 1191 621 1200 1055 c 1,11,-1
 1200 1060 l 1,12,-1
 1294 1057 l 1,13,-1
 1294 1028 l 2,14,15
 1294 741 1294 741 1275 529 c 0,16,17
 1256 317 1256 317 1224.5 187 c 0,18,19
 1193 57 1193 57 1143 -21 c 0,20,21
 1093 -99 1093 -99 1039.5 -127.5 c 0,22,23
 986 -156 986 -156 915 -156 c 2,24,-1
 911 -156 l 2,25,26
 821 -155 821 -155 757.5 -85 c 0,27,28
 694 -15 694 -15 694 69 c 2,29,-1
 694 76 l 1,30,-1
 694 78 l 1,31,-1
 772 128 l 1,32,-1
 772 119 l 2,0,1
EndSplineSet
Refer: 169 710 S 1 0 0 1 352 1808 2
EndChar

StartChar: X
Encoding: 88 88 60
Width: 356
VWidth: 0
GlyphClass: 3
Flags: W
LayerCount: 2
Fore
SplineSet
77 189 m 0,0,1
 142 189 142 189 189 211.5 c 0,2,3
 236 234 236 234 261 272.5 c 0,4,5
 286 311 286 311 297 353.5 c 0,6,7
 308 396 308 396 308 445 c 0,8,9
 308 500 308 500 296.5 545.5 c 0,10,11
 285 591 285 591 260 630.5 c 0,12,13
 235 670 235 670 188 692.5 c 0,14,15
 141 715 141 715 77 715 c 2,16,-1
 75 715 l 2,17,18
 17 715 17 715 -28.5 690 c 0,19,20
 -74 665 -74 665 -100.5 625 c 0,21,22
 -127 585 -127 585 -140.5 539.5 c 0,23,24
 -154 494 -154 494 -154 449 c 0,25,26
 -154 340 -154 340 -96 264.5 c 0,27,28
 -38 189 -38 189 77 189 c 0,0,1
72 872 m 0,29,30
 150 872 150 872 210.5 844.5 c 0,31,32
 271 817 271 817 329 764 c 0,33,34
 387 710 387 710 423 628.5 c 0,35,36
 459 547 459 547 459 449 c 0,37,38
 459 351 459 351 420 263 c 0,39,40
 381 175 381 175 329 134 c 0,41,42
 262 81 262 81 205 53.5 c 0,43,44
 148 26 148 26 72 26 c 0,45,46
 -5 26 -5 26 -63.5 53.5 c 0,47,48
 -122 81 -122 81 -184 134 c 0,49,50
 -240 180 -240 180 -275.5 264.5 c 0,51,52
 -311 349 -311 349 -311 449 c 0,53,54
 -311 650 -311 650 -184 764 c 0,55,56
 -126 816 -126 816 -66 844 c 0,57,58
 -6 872 -6 872 72 872 c 0,29,30
0 2250 m 1,59,-1
 179 2250 l 1,60,-1
 180 110 l 2,61,62
 180 64 180 64 215 64 c 0,63,64
 243 64 243 64 284 92.5 c 0,65,66
 325 121 325 121 355 158 c 1,67,-1
 469 68 l 1,68,69
 381 -5 381 -5 323.5 -33 c 0,70,71
 266 -61 266 -61 180 -61 c 0,72,73
 104 -61 104 -61 52 -18 c 0,74,75
 0 25 0 25 0 92 c 2,76,-1
 0 2250 l 1,59,-1
EndSplineSet
Refer: 169 710 S 1 0 0 1 -560 1808 2
LCarets2: 1 0
Ligature2: "'liga' Standard Ligatures in Latin lookup 1 subtable" K s
EndChar

StartChar: Y
Encoding: 89 89 61
Width: 1297
VWidth: 0
GlyphClass: 2
Flags: W
LayerCount: 2
Fore
SplineSet
1575 2020 m 1,0,-1
 1682 1927 l 1,1,-1
 362 71 l 1,2,-1
 259 150 l 1,3,-1
 1575 2020 l 1,0,-1
EndSplineSet
Refer: 169 710 S 1 0 0 1 336 1824 2
EndChar

StartChar: Z
Encoding: 90 90 62
Width: 1451
VWidth: 2048
GlyphClass: 2
Flags: W
LayerCount: 2
Fore
SplineSet
1339 120 m 0,0,1
 1402 120 1402 120 1435.5 176.5 c 0,2,3
 1469 233 1469 233 1469 292 c 0,4,5
 1469 357 1469 357 1435.5 415.5 c 0,6,7
 1402 474 1402 474 1339 474 c 0,8,9
 1281 474 1281 474 1241.5 414.5 c 0,10,11
 1202 355 1202 355 1202 301 c 0,12,13
 1202 242 1202 242 1241 181 c 0,14,15
 1280 120 1280 120 1339 120 c 0,0,1
1336 609 m 0,16,17
 1435 609 1435 609 1520 531 c 0,18,19
 1562 493 1562 493 1588.5 434 c 0,20,21
 1615 375 1615 375 1615 304 c 0,22,23
 1615 234 1615 234 1586.5 170.5 c 0,24,25
 1558 107 1558 107 1521 77 c 0,26,27
 1472 38 1472 38 1431.5 18.5 c 0,28,29
 1391 -1 1391 -1 1336 -1 c 0,30,31
 1281 -1 1281 -1 1239 19 c 0,32,33
 1197 39 1197 39 1151 77 c 0,34,35
 1111 111 1111 111 1085.5 171.5 c 0,36,37
 1060 232 1060 232 1060 304 c 0,38,39
 1060 448 1060 448 1151 531 c 0,40,41
 1238 609 1238 609 1336 609 c 0,16,17
EndSplineSet
Refer: 169 710 S 1 0 0 1 496 1808 2
EndChar

StartChar: bracketleft
Encoding: 91 91 63
Width: 1233
VWidth: 2048
GlyphClass: 2
Flags: W
LayerCount: 2
Fore
SplineSet
463 3250 m 1,0,-1
 887 3250 l 1,1,-1
 887 3107 l 1,2,-1
 647 3107 l 1,3,-1
 646 -857 l 1,4,-1
 886 -857 l 1,5,-1
 886 -1000 l 1,6,-1
 462 -1000 l 1,7,-1
 463 3250 l 1,0,-1
EndSplineSet
EndChar

StartChar: backslash
Encoding: 92 92 64
Width: 2510
VWidth: 2048
GlyphClass: 2
Flags: W
LayerCount: 2
Fore
SplineSet
178 3250 m 1,0,-1
 2510 -995 l 1,1,-1
 2319 -995 l 1,2,-1
 -12 3250 l 1,3,-1
 178 3250 l 1,0,-1
EndSplineSet
EndChar

StartChar: bracketright
Encoding: 93 93 65
Width: 1233
VWidth: 2048
GlyphClass: 2
Flags: W
LayerCount: 2
Fore
SplineSet
793 3250 m 1,0,-1
 794 -1000 l 1,1,-1
 370 -1000 l 1,2,-1
 370 -857 l 1,3,-1
 610 -857 l 1,4,-1
 609 3107 l 1,5,-1
 369 3107 l 1,6,-1
 369 3250 l 1,7,-1
 793 3250 l 1,0,-1
EndSplineSet
EndChar

StartChar: asciicircum
Encoding: 94 94 66
Width: 1233
VWidth: 2048
GlyphClass: 2
Flags: W
LayerCount: 2
Fore
SplineSet
705 1493 m 1,0,-1
 1161 936 l 1,1,-1
 983 936 l 1,2,-1
 616 1331 l 1,3,-1
 250 936 l 1,4,-1
 72 936 l 1,5,-1
 528 1493 l 1,6,-1
 705 1493 l 1,0,-1
EndSplineSet
EndChar

StartChar: underscore
Encoding: 95 95 67
Width: 1233
VWidth: 2048
GlyphClass: 2
Flags: W
LayerCount: 2
Fore
SplineSet
1233 -403 m 1,0,-1
 1233 -483 l 1,1,-1
 0 -483 l 1,2,-1
 0 -403 l 1,3,-1
 1233 -403 l 1,0,-1
EndSplineSet
EndChar

StartChar: grave
Encoding: 96 96 68
Width: 1233
VWidth: 2048
GlyphClass: 2
Flags: W
LayerCount: 2
Fore
SplineSet
477 1638 m 1,0,-1
 758 1262 l 1,1,-1
 604 1262 l 1,2,-1
 279 1638 l 1,3,-1
 477 1638 l 1,0,-1
EndSplineSet
EndChar

StartChar: a
Encoding: 97 97 69
Width: 698
VWidth: 0
GlyphClass: 2
Flags: W
LayerCount: 2
Fore
SplineSet
758 1092 m 1,0,-1
 852 1015 l 1,1,-1
 86 77 l 1,2,-1
 0 150 l 1,3,-1
 758 1092 l 1,0,-1
EndSplineSet
EndChar

StartChar: c
Encoding: 99 99 71
Width: 94
VWidth: 2048
GlyphClass: 2
Flags: W
LayerCount: 2
Fore
SplineSet
260 -515 m 0,0,1
 325 -515 325 -515 372 -492.5 c 128,-1,2
 419 -470 419 -470 444 -431.5 c 128,-1,3
 469 -393 469 -393 480 -350.5 c 128,-1,4
 491 -308 491 -308 491 -259 c 0,5,6
 491 -204 491 -204 479.5 -158.5 c 128,-1,7
 468 -113 468 -113 443 -73.5 c 128,-1,8
 418 -34 418 -34 371 -11.5 c 128,-1,9
 324 11 324 11 260 11 c 2,10,-1
 258 11 l 2,11,12
 200 11 200 11 154.5 -14 c 128,-1,13
 109 -39 109 -39 82.5 -79 c 128,-1,14
 56 -119 56 -119 42.5 -164.5 c 128,-1,15
 29 -210 29 -210 29 -255 c 0,16,17
 29 -364 29 -364 87 -439.5 c 128,-1,18
 145 -515 145 -515 260 -515 c 0,0,1
255 168 m 128,-1,20
 333 168 333 168 393.5 140.5 c 128,-1,21
 454 113 454 113 512 60 c 0,22,23
 570 6 570 6 606 -75.5 c 128,-1,24
 642 -157 642 -157 642 -255 c 128,-1,25
 642 -353 642 -353 603 -441 c 128,-1,26
 564 -529 564 -529 512 -570 c 0,27,28
 445 -623 445 -623 388 -650.5 c 128,-1,29
 331 -678 331 -678 255 -678 c 0,30,31
 178 -678 178 -678 119.5 -650.5 c 128,-1,32
 61 -623 61 -623 -1 -570 c 0,33,34
 -57 -524 -57 -524 -92.5 -439.5 c 128,-1,35
 -128 -355 -128 -355 -128 -255 c 0,36,37
 -128 -54 -128 -54 -1 60 c 0,38,39
 57 112 57 112 117 140 c 128,-1,19
 177 168 177 168 255 168 c 128,-1,20
EndSplineSet
EndChar

StartChar: d
Encoding: 100 100 72
Width: 56
VWidth: 0
GlyphClass: 2
Flags: W
LayerCount: 2
Fore
SplineSet
98 1251 m 1,0,-1
 277 1251 l 1,1,2
 174 1137 174 1137 174 992 c 0,3,4
 174 906 174 906 226 720 c 128,-1,5
 278 534 278 534 278 433 c 0,6,7
 278 235 278 235 124 69 c 1,8,-1
 -55 70 l 1,9,10
 96 232 96 232 96 431 c 0,11,12
 96 531 96 531 47 717 c 128,-1,13
 -2 903 -2 903 -2 989 c 0,14,15
 -2 1138 -2 1138 98 1251 c 1,0,-1
EndSplineSet
EndChar

StartChar: e
Encoding: 101 101 73
Width: 636
VWidth: 0
GlyphClass: 2
Flags: W
LayerCount: 2
Fore
SplineSet
650 181 m 1,0,-1
 665 74 l 1,1,-1
 17 54 l 1,2,-1
 0 163 l 1,3,-1
 650 181 l 1,0,-1
EndSplineSet
EndChar

StartChar: i
Encoding: 105 105 77
Width: 268
VWidth: 0
GlyphClass: 2
Flags: W
LayerCount: 2
Fore
SplineSet
271 155 m 1,0,-1
 399 58 l 1,1,-1
 111 -206 l 1,2,-1
 111 -26 l 1,3,-1
 271 155 l 1,0,-1
-50 154 m 1,4,-1
 111 154 l 1,5,-1
 111 -206 l 1,6,-1
 -50 -360 l 1,7,-1
 -50 154 l 1,4,-1
EndSplineSet
EndChar

StartChar: j
Encoding: 106 106 78
Width: 49
VWidth: 0
GlyphClass: 2
Flags: W
LayerCount: 2
Fore
SplineSet
120 584 m 5,0,-1
 120 26 l 5,1,-1
 -29 26 l 5,2,-1
 -29 584 l 5,3,-1
 120 584 l 5,0,-1
EndSplineSet
EndChar

StartChar: l
Encoding: 108 108 80
Width: 83
VWidth: 2048
GlyphClass: 2
Flags: W
LayerCount: 2
Fore
SplineSet
23 397 m 0,0,1
 83 397 83 397 133 350 c 0,2,3
 190 298 190 298 190 214 c 0,4,5
 190 172 190 172 173 134 c 128,-1,6
 156 96 156 96 134 78 c 0,7,8
 74 31 74 31 23 31 c 0,9,10
 -32 31 -32 31 -88 78 c 0,11,12
 -112 98 -112 98 -127.5 134.5 c 128,-1,13
 -143 171 -143 171 -143 214 c 0,14,15
 -143 300 -143 300 -88 350 c 0,16,17
 -36 397 -36 397 23 397 c 0,0,1
EndSplineSet
EndChar

StartChar: o
Encoding: 111 111 83
Width: 722
VWidth: 0
GlyphClass: 2
Flags: W
LayerCount: 2
Fore
SplineSet
722 1081 m 1,0,-1
 839 1035 l 1,1,2
 779 629 779 629 582 381 c 128,-1,3
 385 133 385 133 42 39 c 1,4,-1
 0 158 l 1,5,6
 133 199 133 199 244.5 267.5 c 128,-1,7
 356 336 356 336 438 423 c 128,-1,8
 520 510 520 510 580 616.5 c 128,-1,9
 640 723 640 723 675 838.5 c 128,-1,10
 710 954 710 954 722 1081 c 1,0,-1
EndSplineSet
EndChar

StartChar: r
Encoding: 114 114 86
Width: 138
VWidth: 0
GlyphClass: 2
Flags: W
LayerCount: 2
Fore
SplineSet
-32 379 m 1,0,-1
 350 -58 l 1,1,-1
 238 -158 l 1,2,-1
 -142 299 l 1,3,-1
 -32 379 l 1,0,-1
EndSplineSet
EndChar

StartChar: s
Encoding: 115 115 87
Width: 147
VWidth: 2048
GlyphClass: 2
Flags: W
LayerCount: 2
Fore
SplineSet
-7 847 m 128,-1,1
 71 847 71 847 131.5 819.5 c 128,-1,2
 192 792 192 792 250 739 c 0,3,4
 308 685 308 685 344 603.5 c 128,-1,5
 380 522 380 522 380 424 c 128,-1,6
 380 326 380 326 341 238 c 128,-1,7
 302 150 302 150 250 109 c 0,8,9
 183 56 183 56 126 28.5 c 128,-1,10
 69 1 69 1 -7 1 c 0,11,12
 -84 1 -84 1 -142.5 28.5 c 128,-1,13
 -201 56 -201 56 -263 109 c 0,14,15
 -319 155 -319 155 -354.5 239.5 c 128,-1,16
 -390 324 -390 324 -390 424 c 0,17,18
 -390 625 -390 625 -263 739 c 0,19,20
 -205 791 -205 791 -145 819 c 128,-1,0
 -85 847 -85 847 -7 847 c 128,-1,1
-2 190 m 0,21,22
 56 190 56 190 98.5 210 c 128,-1,23
 141 230 141 230 163.5 265 c 128,-1,24
 186 300 186 300 196 338.5 c 128,-1,25
 206 377 206 377 206 421 c 0,26,27
 206 470 206 470 195.5 511 c 128,-1,28
 185 552 185 552 162.5 587.5 c 128,-1,29
 140 623 140 623 98 643.5 c 128,-1,30
 56 664 56 664 -2 664 c 2,31,-1
 -3 664 l 2,32,33
 -72 664 -72 664 -121 624.5 c 128,-1,34
 -170 585 -170 585 -190 532.5 c 128,-1,35
 -210 480 -210 480 -210 424 c 0,36,37
 -210 326 -210 326 -158 258 c 128,-1,38
 -106 190 -106 190 -2 190 c 0,21,22
EndSplineSet
EndChar

StartChar: t
Encoding: 116 116 88
Width: 56
VWidth: 0
GlyphClass: 2
Flags: W
LayerCount: 2
Fore
SplineSet
98 2250 m 1,0,-1
 277 2250 l 1,1,2
 138 1865 138 1865 138 1572 c 0,3,4
 138 1461 138 1461 158 1355.5 c 128,-1,5
 178 1250 178 1250 206 1167 c 128,-1,6
 234 1084 234 1084 262.5 1005 c 128,-1,7
 291 926 291 926 310.5 837 c 128,-1,8
 330 748 330 748 330 661 c 0,9,10
 330 653 330 653 330 645 c 0,11,12
 326 445 326 445 250.5 214 c 128,-1,13
 175 -17 175 -17 48 -180 c 1,14,-1
 -131 -179 l 1,15,16
 -11 -16 -11 -16 64.5 213 c 128,-1,17
 140 442 140 442 140 625 c 0,18,19
 140 716 140 716 119.5 808.5 c 128,-1,20
 99 901 99 901 69.5 981 c 128,-1,21
 40 1061 40 1061 10.5 1144.5 c 128,-1,22
 -19 1228 -19 1228 -39.5 1333.5 c 128,-1,23
 -60 1439 -60 1439 -60 1550 c 0,24,25
 -60 1852 -60 1852 98 2250 c 1,0,-1
EndSplineSet
EndChar

StartChar: u
Encoding: 117 117 89
Width: 448
VWidth: 0
GlyphClass: 2
Flags: W
LayerCount: 2
Fore
SplineSet
234 -66 m 0,0,1
 315 -66 315 -66 365 199 c 128,-1,2
 415 464 415 464 450 1060 c 1,3,-1
 551 1060 l 1,4,5
 503 318 503 318 448 81 c 128,-1,6
 393 -156 393 -156 228 -156 c 0,7,8
 134 -154 134 -154 67 -82 c 128,-1,9
 0 -10 0 -10 0 79 c 1,10,-1
 112 79 l 1,11,12
 112 23 112 23 153 -21.5 c 128,-1,13
 194 -66 194 -66 234 -66 c 0,0,1
EndSplineSet
EndChar

StartChar: x
Encoding: 120 120 92
Width: 356
VWidth: 0
GlyphClass: 3
Flags: W
LayerCount: 2
Fore
SplineSet
77 189 m 0,0,1
 142 189 142 189 189 211.5 c 128,-1,2
 236 234 236 234 261 272.5 c 128,-1,3
 286 311 286 311 297 353.5 c 128,-1,4
 308 396 308 396 308 445 c 0,5,6
 308 500 308 500 296.5 545.5 c 128,-1,7
 285 591 285 591 260 630.5 c 128,-1,8
 235 670 235 670 188 692.5 c 128,-1,9
 141 715 141 715 77 715 c 2,10,-1
 75 715 l 2,11,12
 17 715 17 715 -28.5 690 c 128,-1,13
 -74 665 -74 665 -100.5 625 c 128,-1,14
 -127 585 -127 585 -140.5 539.5 c 128,-1,15
 -154 494 -154 494 -154 449 c 0,16,17
 -154 340 -154 340 -96 264.5 c 128,-1,18
 -38 189 -38 189 77 189 c 0,0,1
72 872 m 128,-1,20
 150 872 150 872 210.5 844.5 c 128,-1,21
 271 817 271 817 329 764 c 0,22,23
 387 710 387 710 423 628.5 c 128,-1,24
 459 547 459 547 459 449 c 128,-1,25
 459 351 459 351 420 263 c 128,-1,26
 381 175 381 175 329 134 c 0,27,28
 262 81 262 81 205 53.5 c 128,-1,29
 148 26 148 26 72 26 c 0,30,31
 -5 26 -5 26 -63.5 53.5 c 128,-1,32
 -122 81 -122 81 -184 134 c 0,33,34
 -240 180 -240 180 -275.5 264.5 c 128,-1,35
 -311 349 -311 349 -311 449 c 0,36,37
 -311 650 -311 650 -184 764 c 0,38,39
 -126 816 -126 816 -66 844 c 128,-1,19
 -6 872 -6 872 72 872 c 128,-1,20
0 2250 m 1,40,-1
 179 2250 l 1,41,-1
 180 110 l 2,42,43
 180 64 180 64 215 64 c 0,44,45
 243 64 243 64 284 92.5 c 128,-1,46
 325 121 325 121 355 158 c 1,47,-1
 469 68 l 1,48,49
 381 -5 381 -5 323.5 -33 c 128,-1,50
 266 -61 266 -61 180 -61 c 0,51,52
 104 -61 104 -61 52 -18 c 128,-1,53
 0 25 0 25 0 92 c 2,54,-1
 0 2250 l 1,40,-1
EndSplineSet
Ligature2: "'liga' Standard Ligatures in Latin lookup 1 subtable" k s
EndChar

StartChar: y
Encoding: 121 121 93
Width: 1297
VWidth: 0
GlyphClass: 2
Flags: W
LayerCount: 2
Fore
SplineSet
1309 2020 m 1,0,-1
 1416 1927 l 1,1,-1
 96 71 l 1,2,-1
 -7 150 l 1,3,-1
 1309 2020 l 1,0,-1
EndSplineSet
EndChar

StartChar: z
Encoding: 122 122 94
Width: 74
VWidth: 2048
GlyphClass: 2
Flags: W
LayerCount: 2
Fore
SplineSet
29 122 m 0,0,1
 92 122 92 122 125.5 178.5 c 128,-1,2
 159 235 159 235 159 294 c 0,3,4
 159 359 159 359 125.5 417.5 c 128,-1,5
 92 476 92 476 29 476 c 0,6,7
 -29 476 -29 476 -68.5 416.5 c 128,-1,8
 -108 357 -108 357 -108 303 c 0,9,10
 -108 244 -108 244 -69 183 c 128,-1,11
 -30 122 -30 122 29 122 c 0,0,1
26 611 m 0,12,13
 125 611 125 611 210 533 c 0,14,15
 252 495 252 495 278.5 436 c 128,-1,16
 305 377 305 377 305 306 c 0,17,18
 305 236 305 236 276.5 172.5 c 128,-1,19
 248 109 248 109 211 79 c 0,20,21
 162 40 162 40 121.5 20.5 c 128,-1,22
 81 1 81 1 26 1 c 128,-1,23
 -29 1 -29 1 -71 21 c 128,-1,24
 -113 41 -113 41 -159 79 c 0,25,26
 -199 113 -199 113 -224.5 173.5 c 128,-1,27
 -250 234 -250 234 -250 306 c 0,28,29
 -250 450 -250 450 -159 533 c 0,30,31
 -72 611 -72 611 26 611 c 0,12,13
EndSplineSet
EndChar

StartChar: braceleft
Encoding: 123 123 95
Width: 1233
VWidth: 2048
GlyphClass: 2
Flags: W
LayerCount: 2
Fore
SplineSet
1031 -856 m 1,0,-1
 1031 -1000 l 1,1,-1
 967 -1000 l 2,2,3
 719 -1000 719 -1000 634 -926 c 0,4,5
 549 -853 549 -853 549 -631 c 2,6,-1
 549 735 l 2,7,8
 549 885 549 885 496 944 c 0,9,10
 442 1002 442 1002 302 1002 c 2,11,-1
 240 1002 l 1,12,-1
 240 1145 l 1,13,-1
 302 1145 l 2,14,15
 443 1145 443 1145 496 1202 c 0,16,17
 547 1258 547 1258 549 1409 c 2,18,-1
 549 2882 l 2,19,20
 549 3104 549 3104 634 3176 c 0,21,22
 717 3250 717 3250 967 3250 c 2,23,-1
 1031 3250 l 1,24,-1
 1031 3107 l 1,25,-1
 961 3107 l 2,26,27
 823 3107 823 3107 778 3064 c 0,28,29
 736 3019 736 3019 736 2878 c 2,30,-1
 736 1397 l 2,31,32
 734 1236 734 1236 690 1169 c 0,33,34
 645 1099 645 1099 535 1073 c 1,35,36
 646 1046 646 1046 691 975 c 128,-1,37
 736 904 736 904 736 748 c 2,38,-1
 736 -627 l 2,39,40
 736 -770 736 -770 778 -813 c 0,41,42
 821 -856 821 -856 961 -856 c 2,43,-1
 1031 -856 l 1,0,-1
EndSplineSet
EndChar

StartChar: bar
Encoding: 124 124 96
Width: 1233
VWidth: 2048
GlyphClass: 2
Flags: W
LayerCount: 2
Fore
SplineSet
702 3250 m 1,0,-1
 702 -1000 l 1,1,-1
 530 -1000 l 1,2,-1
 530 3250 l 1,3,-1
 702 3250 l 1,0,-1
EndSplineSet
EndChar

StartChar: braceright
Encoding: 125 125 97
Width: 1233
VWidth: 2048
GlyphClass: 2
Flags: W
LayerCount: 2
Fore
SplineSet
202 -856 m 1,0,-1
 272 -856 l 2,1,2
 412 -856 412 -856 455 -813 c 0,3,4
 497 -770 497 -770 497 -627 c 2,5,-1
 497 748 l 2,6,7
 497 904 497 904 542 975 c 128,-1,8
 587 1046 587 1046 698 1073 c 1,9,10
 588 1099 588 1099 543 1169 c 0,11,12
 499 1236 499 1236 497 1397 c 2,13,-1
 497 2878 l 2,14,15
 497 3019 497 3019 455 3064 c 0,16,17
 410 3107 410 3107 272 3107 c 2,18,-1
 202 3107 l 1,19,-1
 202 3250 l 1,20,-1
 266 3250 l 2,21,22
 516 3250 516 3250 599 3176 c 0,23,24
 684 3104 684 3104 684 2882 c 2,25,-1
 684 1409 l 2,26,27
 686 1258 686 1258 737 1202 c 0,28,29
 789 1145 789 1145 931 1145 c 2,30,-1
 993 1145 l 1,31,-1
 993 1002 l 1,32,-1
 931 1002 l 2,33,34
 791 1002 791 1002 737 944 c 0,35,36
 684 885 684 885 684 735 c 2,37,-1
 684 -631 l 2,38,39
 684 -853 684 -853 599 -926 c 0,40,41
 514 -1000 514 -1000 266 -1000 c 2,42,-1
 202 -1000 l 1,43,-1
 202 -856 l 1,0,-1
EndSplineSet
EndChar

StartChar: asciitilde
Encoding: 126 126 98
Width: 1233
VWidth: 2048
GlyphClass: 2
Flags: W
LayerCount: 2
Fore
SplineSet
1145 780 m 1,0,-1
 1145 606 l 1,1,2
 1069 547 1069 547 998 520 c 0,3,4
 929 492 929 492 848 492 c 0,5,6
 758 492 758 492 645 543 c 0,7,8
 638 546 638 546 631.5 549 c 128,-1,9
 625 552 625 552 619.5 554 c 128,-1,10
 614 556 614 556 612 557 c 0,11,12
 536 590 536 590 484 602 c 0,13,14
 431 614 431 614 381 614 c 0,15,16
 301 614 301 614 232 584 c 0,17,18
 164 557 164 557 88 492 c 1,19,-1
 88 666 l 1,20,21
 166 726 166 726 239 753 c 256,22,23
 312 780 312 780 395 780 c 0,24,25
 446 780 446 780 498 769 c 0,26,27
 549 758 549 758 622 727 c 0,28,29
 634 722 634 722 655 712 c 0,30,31
 769 657 769 657 864 657 c 0,32,33
 936 657 936 657 1002 688 c 0,34,35
 1071 718 1071 718 1145 780 c 1,0,-1
EndSplineSet
EndChar

StartChar: exclamdown
Encoding: 161 161 100
Width: 1233
VWidth: 2048
GlyphClass: 2
Flags: W
LayerCount: 2
Fore
SplineSet
516 1239 m 1,0,-1
 516 1493 l 1,1,-1
 719 1493 l 1,2,-1
 719 1239 l 1,3,-1
 516 1239 l 1,0,-1
516 0 m 1,4,-1
 516 655 l 1,5,-1
 537 1012 l 1,6,-1
 698 1012 l 1,7,-1
 719 655 l 1,8,-1
 719 0 l 1,9,-1
 516 0 l 1,4,-1
EndSplineSet
EndChar

StartChar: cent
Encoding: 162 162 101
Width: 1233
VWidth: 2048
GlyphClass: 2
Flags: W
LayerCount: 2
Fore
SplineSet
1061 1077 m 1,0,-1
 1061 905 l 1,1,2
 997 943 997 943 929 967 c 0,3,4
 868 988 868 988 801 993 c 1,5,-1
 801 123 l 1,6,7
 858 127 858 127 930 150 c 0,8,9
 1002 177 1002 177 1061 213 c 1,10,-1
 1061 41 l 1,11,12
 988 10 988 10 923 -7 c 0,13,14
 856 -24 856 -24 801 -27 c 1,15,-1
 801 -313 l 1,16,-1
 698 -313 l 1,17,-1
 698 -27 l 1,18,19
 473 -4 473 -4 343 152 c 0,20,21
 213 307 213 307 213 559 c 0,22,23
 213 808 213 808 344 968 c 0,24,25
 476 1126 476 1126 698 1145 c 1,26,-1
 698 1432 l 1,27,-1
 801 1432 l 1,28,-1
 801 1145 l 1,29,30
 856 1142 856 1142 923 1125 c 0,31,32
 988 1108 988 1108 1061 1077 c 1,0,-1
698 127 m 1,33,-1
 698 991 l 1,34,35
 565 979 565 979 486 861 c 0,36,37
 406 742 406 742 406 559 c 128,-1,38
 406 376 406 376 486 258 c 0,39,40
 565 141 565 141 698 127 c 1,33,-1
EndSplineSet
EndChar

StartChar: sterling
Encoding: 163 163 102
Width: 1233
VWidth: 2048
GlyphClass: 2
Flags: W
LayerCount: 2
Fore
SplineSet
1092 1462 m 1,0,-1
 1092 1278 l 1,1,2
 1030 1322 1030 1322 966 1344 c 0,3,4
 904 1366 904 1366 836 1366 c 0,5,6
 702 1366 702 1366 638 1276 c 0,7,8
 575 1188 575 1188 575 995 c 2,9,-1
 575 778 l 1,10,-1
 946 778 l 1,11,-1
 946 635 l 1,12,-1
 575 635 l 1,13,-1
 575 170 l 1,14,-1
 1112 170 l 1,15,-1
 1112 0 l 1,16,-1
 139 0 l 1,17,-1
 139 170 l 1,18,-1
 375 170 l 1,19,-1
 375 635 l 1,20,-1
 176 635 l 1,21,-1
 176 778 l 1,22,-1
 375 778 l 1,23,-1
 375 1016 l 2,24,25
 375 1269 375 1269 484 1395 c 0,26,27
 595 1520 595 1520 817 1520 c 0,28,29
 880 1520 880 1520 950 1506 c 0,30,31
 1015 1492 1015 1492 1092 1462 c 1,0,-1
EndSplineSet
EndChar

StartChar: currency
Encoding: 164 164 103
Width: 1233
VWidth: 2048
GlyphClass: 2
Flags: W
LayerCount: 2
Fore
SplineSet
868 643 m 0,0,1
 868 734 868 734 806 794 c 0,2,3
 745 856 745 856 653 856 c 0,4,5
 562 856 562 856 500 794 c 0,6,7
 438 734 438 734 438 643 c 128,-1,8
 438 552 438 552 500 488 c 0,9,10
 564 426 564 426 653 426 c 0,11,12
 744 426 744 426 806 489 c 0,13,14
 868 553 868 553 868 643 c 0,0,1
844 924 m 1,15,-1
 1010 1090 l 1,16,-1
 1100 997 l 1,17,-1
 934 831 l 1,18,19
 965 780 965 780 978 736 c 0,20,21
 993 688 993 688 993 641 c 0,22,23
 993 591 993 591 978 546 c 0,24,25
 963 499 963 499 932 455 c 1,26,-1
 1100 289 l 1,27,-1
 1006 195 l 1,28,-1
 840 362 l 1,29,30
 794 331 794 331 748 316 c 0,31,32
 703 301 703 301 653 301 c 0,33,34
 605 301 605 301 557 316 c 0,35,36
 509 330 509 330 461 358 c 1,37,-1
 297 195 l 1,38,-1
 205 285 l 1,39,-1
 371 451 l 1,40,41
 340 501 340 501 326 548 c 0,42,43
 311 596 311 596 311 641 c 0,44,45
 311 690 311 690 326 738 c 0,46,47
 344 788 344 788 373 829 c 1,48,-1
 205 995 l 1,49,-1
 299 1090 l 1,50,-1
 465 922 l 1,51,52
 511 953 511 953 556 968 c 0,53,54
 603 983 603 983 653 983 c 0,55,56
 700 983 700 983 746 968 c 0,57,58
 792 955 792 955 844 924 c 1,15,-1
EndSplineSet
EndChar

StartChar: yen
Encoding: 165 165 104
Width: 1233
VWidth: 2048
GlyphClass: 2
Flags: W
LayerCount: 2
Fore
SplineSet
37 1493 m 1,0,-1
 252 1493 l 1,1,-1
 616 834 l 1,2,-1
 979 1493 l 1,3,-1
 1196 1493 l 1,4,-1
 866 932 l 1,5,-1
 1118 932 l 1,6,-1
 1118 821 l 1,7,-1
 803 821 l 1,8,-1
 717 670 l 1,9,-1
 717 635 l 1,10,-1
 1118 635 l 1,11,-1
 1118 524 l 1,12,-1
 717 524 l 1,13,-1
 717 0 l 1,14,-1
 514 0 l 1,15,-1
 514 524 l 1,16,-1
 115 524 l 1,17,-1
 115 635 l 1,18,-1
 514 635 l 1,19,-1
 514 670 l 1,20,-1
 424 821 l 1,21,-1
 115 821 l 1,22,-1
 115 932 l 1,23,-1
 358 932 l 1,24,-1
 37 1493 l 1,0,-1
EndSplineSet
EndChar

StartChar: brokenbar
Encoding: 166 166 105
Width: 1233
VWidth: 2048
GlyphClass: 2
Flags: W
LayerCount: 2
Fore
SplineSet
702 1432 m 1,0,-1
 702 674 l 1,1,-1
 530 674 l 1,2,-1
 530 1432 l 1,3,-1
 702 1432 l 1,0,-1
702 408 m 1,4,-1
 702 -350 l 1,5,-1
 530 -350 l 1,6,-1
 530 408 l 1,7,-1
 702 408 l 1,4,-1
EndSplineSet
EndChar

StartChar: section
Encoding: 167 167 106
Width: 1233
VWidth: 2048
GlyphClass: 2
Flags: W
LayerCount: 2
Fore
SplineSet
936 1462 m 1,0,-1
 936 1298 l 1,1,2
 850 1339 850 1339 782 1356 c 0,3,4
 713 1376 713 1376 653 1376 c 0,5,6
 555 1376 555 1376 502 1336 c 0,7,8
 449 1295 449 1295 449 1225 c 0,9,10
 449 1135 449 1135 654 1020 c 0,11,12
 678 1006 678 1006 694 997 c 0,13,14
 906 878 906 878 971 801 c 128,-1,15
 1036 724 1036 724 1036 623 c 0,16,17
 1036 533 1036 533 990 463 c 0,18,19
 945 392 945 392 852 340 c 1,20,21
 914 287 914 287 942 234 c 0,22,23
 971 178 971 178 971 115 c 0,24,25
 971 -27 971 -27 869 -111 c 128,-1,26
 767 -195 767 -195 594 -195 c 0,27,28
 520 -195 520 -195 444 -180 c 0,29,30
 372 -168 372 -168 279 -137 c 1,31,-1
 279 27 l 1,32,33
 359 -9 359 -9 440 -32 c 0,34,35
 518 -51 518 -51 571 -51 c 0,36,37
 673 -51 673 -51 730 -9 c 0,38,39
 786 33 786 33 786 109 c 0,40,41
 786 211 786 211 565 334 c 1,42,-1
 541 348 l 1,43,44
 330 466 330 466 263 544 c 0,45,46
 199 621 199 621 199 723 c 0,47,48
 199 816 199 816 246 886 c 0,49,50
 291 956 291 956 383 1006 c 1,51,52
 323 1049 323 1049 294 1106 c 0,53,54
 264 1162 264 1162 264 1231 c 0,55,56
 264 1362 264 1362 364 1440 c 0,57,58
 463 1520 463 1520 631 1520 c 0,59,60
 699 1520 699 1520 780 1506 c 0,61,62
 855 1491 855 1491 936 1462 c 1,0,-1
485 936 m 1,63,64
 424 891 424 891 392 846 c 0,65,66
 362 801 362 801 362 754 c 0,67,68
 362 680 362 680 432 610 c 1,69,70
 507 541 507 541 750 410 c 1,71,72
 812 456 812 456 842 500 c 0,73,74
 872 545 872 545 872 592 c 0,75,76
 872 668 872 668 800 736 c 0,77,78
 728 805 728 805 485 936 c 1,63,64
EndSplineSet
EndChar

StartChar: dieresis
Encoding: 168 168 107
Width: 1233
VWidth: 2048
GlyphClass: 2
Flags: W
LayerCount: 2
Fore
SplineSet
319 1552 m 1,0,-1
 522 1552 l 1,1,-1
 522 1350 l 1,2,-1
 319 1350 l 1,3,-1
 319 1552 l 1,0,-1
711 1552 m 1,4,-1
 913 1552 l 1,5,-1
 913 1350 l 1,6,-1
 711 1350 l 1,7,-1
 711 1552 l 1,4,-1
EndSplineSet
EndChar

StartChar: copyright
Encoding: 169 169 108
Width: 1233
VWidth: 2048
GlyphClass: 2
Flags: W
LayerCount: 2
Fore
SplineSet
864 1071 m 1,0,-1
 864 963 l 1,1,2
 803 993 803 993 750 1004 c 0,3,4
 700 1018 700 1018 637 1018 c 0,5,6
 521 1018 521 1018 452 944 c 0,7,8
 385 868 385 868 385 741 c 0,9,10
 385 608 385 608 455 538 c 0,11,12
 526 467 526 467 655 467 c 0,13,14
 713 467 713 467 762 480 c 0,15,16
 813 492 813 492 864 518 c 1,17,-1
 864 414 l 1,18,19
 807 390 807 390 755 380 c 0,20,21
 695 369 695 369 637 369 c 0,22,23
 455 369 455 369 354 469 c 0,24,25
 250 569 250 569 250 741 c 0,26,27
 250 914 250 914 354 1015 c 128,-1,28
 458 1116 458 1116 637 1116 c 0,29,30
 695 1116 695 1116 755 1105 c 0,31,32
 807 1095 807 1095 864 1071 c 1,0,-1
616 1255 m 0,33,34
 509 1255 509 1255 420 1218 c 0,35,36
 328 1180 328 1180 254 1106 c 0,37,38
 179 1031 179 1031 140 939 c 0,39,40
 102 846 102 846 102 741 c 0,41,42
 102 637 102 637 140 546 c 128,-1,43
 178 455 178 455 254 379 c 0,44,45
 331 302 331 302 420 265 c 0,46,47
 513 227 513 227 616 227 c 0,48,49
 721 227 721 227 812 265 c 0,50,51
 902 302 902 302 979 379 c 0,52,53
 1057 457 1057 457 1092 546 c 0,54,55
 1130 634 1130 634 1130 741 c 0,56,57
 1130 846 1130 846 1092 939 c 0,58,59
 1054 1030 1054 1030 979 1106 c 0,60,61
 905 1180 905 1180 814 1218 c 0,62,63
 724 1255 724 1255 616 1255 c 0,33,34
616 1358 m 0,64,65
 742 1358 742 1358 852 1313 c 0,66,67
 961 1268 961 1268 1051 1178 c 0,68,69
 1140 1087 1140 1087 1187 977 c 0,70,71
 1233 869 1233 869 1233 741 c 0,72,73
 1233 616 1233 616 1188 507 c 0,74,75
 1141 398 1141 398 1051 307 c 0,76,77
 960 217 960 217 851 170 c 0,78,79
 742 125 742 125 616 125 c 0,80,81
 492 125 492 125 382 170 c 0,82,83
 272 217 272 217 182 307 c 0,84,85
 91 398 91 398 46 507 c 0,86,87
 0 615 0 615 0 741 c 0,88,89
 0 869 0 869 46 977 c 0,90,91
 93 1087 93 1087 182 1178 c 0,92,93
 272 1268 272 1268 381 1313 c 0,94,95
 491 1358 491 1358 616 1358 c 0,64,65
EndSplineSet
EndChar

StartChar: ordfeminine
Encoding: 170 170 109
Width: 1233
VWidth: 2048
GlyphClass: 2
Flags: W
LayerCount: 2
Fore
SplineSet
684 1104 m 2,0,1
 539 1104 539 1104 478 1070 c 0,2,3
 416 1035 416 1035 416 958 c 0,4,5
 416 893 416 893 460 856 c 0,6,7
 502 817 502 817 575 817 c 0,8,9
 680 817 680 817 746 888 c 0,10,11
 811 961 811 961 811 1075 c 2,12,-1
 811 1104 l 1,13,-1
 684 1104 l 2,0,1
954 1165 m 2,14,-1
 954 717 l 1,15,-1
 811 717 l 1,16,-1
 811 829 l 1,17,18
 761 763 761 763 696 731 c 0,19,20
 632 698 632 698 549 698 c 0,21,22
 421 698 421 698 345 766 c 0,23,24
 270 834 270 834 270 950 c 0,25,26
 270 1079 270 1079 364 1149 c 0,27,28
 456 1219 456 1219 629 1219 c 2,29,-1
 811 1219 l 1,30,-1
 811 1223 l 2,31,32
 811 1312 811 1312 752 1359 c 0,33,34
 693 1405 693 1405 575 1405 c 0,35,36
 525 1405 525 1405 462 1388 c 0,37,38
 400 1370 400 1370 332 1337 c 1,39,-1
 332 1464 l 1,40,41
 400 1493 400 1493 468 1506 c 0,42,43
 536 1520 536 1520 598 1520 c 0,44,45
 782 1520 782 1520 868 1434 c 128,-1,46
 954 1348 954 1348 954 1165 c 2,14,-1
293 592 m 1,47,-1
 961 592 l 1,48,-1
 961 469 l 1,49,-1
 293 469 l 1,50,-1
 293 592 l 1,47,-1
EndSplineSet
EndChar

StartChar: guillemotleft
Encoding: 171 171 110
Width: 1233
VWidth: 2048
GlyphClass: 2
Flags: W
LayerCount: 2
Fore
SplineSet
588 1059 m 1,0,-1
 588 868 l 1,1,-1
 287 600 l 1,2,-1
 588 332 l 1,3,-1
 588 141 l 1,4,-1
 119 559 l 1,5,-1
 119 641 l 1,6,-1
 588 1059 l 1,0,-1
1042 1059 m 1,7,-1
 1042 868 l 1,8,-1
 741 600 l 1,9,-1
 1042 332 l 1,10,-1
 1042 141 l 1,11,-1
 573 559 l 1,12,-1
 573 641 l 1,13,-1
 1042 1059 l 1,7,-1
EndSplineSet
EndChar

StartChar: logicalnot
Encoding: 172 172 111
Width: 1233
VWidth: 2048
GlyphClass: 2
Flags: W
LayerCount: 2
Fore
SplineSet
88 862 m 1,0,-1
 1145 862 l 1,1,-1
 1145 371 l 1,2,-1
 977 371 l 1,3,-1
 977 690 l 1,4,-1
 88 690 l 1,5,-1
 88 862 l 1,0,-1
EndSplineSet
EndChar

StartChar: uni00AD
Encoding: 173 173 112
Width: 1233
VWidth: 2048
GlyphClass: 2
Flags: W
LayerCount: 2
Fore
SplineSet
356 643 m 1,0,-1
 877 643 l 1,1,-1
 877 479 l 1,2,-1
 356 479 l 1,3,-1
 356 643 l 1,0,-1
EndSplineSet
EndChar

StartChar: registered
Encoding: 174 174 113
Width: 1233
VWidth: 2048
GlyphClass: 2
Flags: W
LayerCount: 2
Fore
SplineSet
600 1100 m 2,0,1
 748 1100 748 1100 819 1051 c 0,2,3
 891 1002 891 1002 891 901 c 0,4,5
 891 830 891 830 847 784 c 0,6,7
 804 737 804 737 723 723 c 1,8,9
 742 718 742 718 771 684 c 0,10,11
 802 648 802 648 838 592 c 2,12,-1
 952 406 l 1,13,-1
 809 406 l 1,14,-1
 702 580 l 2,15,16
 651 661 651 661 622 681 c 0,17,18
 592 702 592 702 547 702 c 2,19,-1
 492 702 l 1,20,-1
 492 406 l 1,21,-1
 362 406 l 1,22,-1
 362 1100 l 1,23,-1
 600 1100 l 2,0,1
594 1016 m 2,24,-1
 492 1016 l 1,25,-1
 492 784 l 1,26,-1
 594 784 l 2,27,28
 684 784 684 784 721 811 c 128,-1,29
 758 838 758 838 758 901 c 0,30,31
 758 963 758 963 721 990 c 0,32,33
 683 1016 683 1016 594 1016 c 2,24,-1
616 1358 m 0,34,35
 742 1358 742 1358 852 1313 c 0,36,37
 961 1268 961 1268 1051 1178 c 0,38,39
 1140 1087 1140 1087 1187 977 c 0,40,41
 1233 869 1233 869 1233 741 c 0,42,43
 1233 616 1233 616 1188 507 c 0,44,45
 1141 398 1141 398 1051 307 c 0,46,47
 960 217 960 217 851 170 c 0,48,49
 742 125 742 125 616 125 c 0,50,51
 492 125 492 125 382 170 c 0,52,53
 272 217 272 217 182 307 c 0,54,55
 91 398 91 398 46 507 c 0,56,57
 0 615 0 615 0 741 c 0,58,59
 0 869 0 869 46 977 c 0,60,61
 93 1087 93 1087 182 1178 c 0,62,63
 272 1268 272 1268 381 1313 c 0,64,65
 491 1358 491 1358 616 1358 c 0,34,35
616 1255 m 0,66,67
 509 1255 509 1255 420 1218 c 0,68,69
 328 1180 328 1180 254 1106 c 0,70,71
 179 1031 179 1031 140 939 c 0,72,73
 102 846 102 846 102 741 c 0,74,75
 102 637 102 637 140 546 c 128,-1,76
 178 455 178 455 254 379 c 0,77,78
 331 302 331 302 420 265 c 0,79,80
 513 227 513 227 616 227 c 0,81,82
 721 227 721 227 812 265 c 0,83,84
 902 302 902 302 979 379 c 0,85,86
 1057 457 1057 457 1092 546 c 0,87,88
 1130 634 1130 634 1130 741 c 0,89,90
 1130 846 1130 846 1092 939 c 0,91,92
 1054 1030 1054 1030 979 1106 c 0,93,94
 905 1180 905 1180 814 1218 c 0,95,96
 724 1255 724 1255 616 1255 c 0,66,67
EndSplineSet
EndChar

StartChar: macron
Encoding: 175 175 114
Width: 1233
VWidth: 2048
GlyphClass: 2
Flags: W
LayerCount: 2
Fore
SplineSet
317 1526 m 1,0,-1
 915 1526 l 1,1,-1
 915 1378 l 1,2,-1
 317 1378 l 1,3,-1
 317 1526 l 1,0,-1
EndSplineSet
EndChar

StartChar: degree
Encoding: 176 176 115
Width: 1233
VWidth: 2048
GlyphClass: 2
Flags: W
LayerCount: 2
Fore
SplineSet
616 1520 m 0,0,1
 680 1520 680 1520 740 1496 c 0,2,3
 801 1469 801 1469 842 1425 c 0,4,5
 888 1379 888 1379 910 1323 c 0,6,7
 934 1266 934 1266 934 1200 c 0,8,9
 934 1069 934 1069 841 976 c 0,10,11
 747 885 747 885 614 885 c 0,12,13
 479 885 479 885 389 975 c 128,-1,14
 299 1065 299 1065 299 1200 c 0,15,16
 299 1333 299 1333 391 1427 c 0,17,18
 482 1520 482 1520 616 1520 c 0,0,1
616 1391 m 128,-1,20
 537 1391 537 1391 482 1336 c 0,21,22
 426 1280 426 1280 426 1200 c 128,-1,23
 426 1120 426 1120 480 1066 c 0,24,25
 536 1012 536 1012 614 1012 c 0,26,27
 695 1012 695 1012 750 1067 c 0,28,29
 807 1122 807 1122 807 1200 c 0,30,31
 807 1279 807 1279 751 1335 c 128,-1,19
 695 1391 695 1391 616 1391 c 128,-1,20
EndSplineSet
EndChar

StartChar: plusminus
Encoding: 177 177 116
Width: 1233
VWidth: 2048
GlyphClass: 2
Flags: W
LayerCount: 2
Fore
SplineSet
88 170 m 1,0,-1
 1145 170 l 1,1,-1
 1145 0 l 1,2,-1
 88 0 l 1,3,-1
 88 170 l 1,0,-1
700 1171 m 1,4,-1
 700 842 l 1,5,-1
 1145 842 l 1,6,-1
 1145 672 l 1,7,-1
 700 672 l 1,8,-1
 700 340 l 1,9,-1
 532 340 l 1,10,-1
 532 672 l 1,11,-1
 88 672 l 1,12,-1
 88 842 l 1,13,-1
 532 842 l 1,14,-1
 532 1171 l 1,15,-1
 700 1171 l 1,4,-1
EndSplineSet
EndChar

StartChar: uni00B2
Encoding: 178 178 117
Width: 1233
VWidth: 2048
GlyphClass: 2
Flags: W
LayerCount: 2
Fore
SplineSet
483 782 m 1,0,-1
 893 782 l 1,1,-1
 893 668 l 1,2,-1
 322 668 l 1,3,-1
 322 778 l 1,4,-1
 553 1004 l 2,5,6
 659 1107 659 1107 694 1162 c 0,7,8
 735 1222 735 1222 735 1274 c 0,9,10
 735 1335 735 1335 685 1373 c 128,-1,11
 635 1411 635 1411 553 1411 c 0,12,13
 504 1411 504 1411 448 1393 c 0,14,15
 391 1375 391 1375 328 1339 c 1,16,-1
 328 1464 l 1,17,18
 392 1492 392 1492 454 1506 c 256,19,20
 516 1520 516 1520 573 1520 c 0,21,22
 716 1520 716 1520 801 1454 c 0,23,24
 887 1386 887 1386 887 1280 c 0,25,26
 887 1222 887 1222 850 1164 c 0,27,28
 812 1104 812 1104 694 987 c 2,29,-1
 483 782 l 1,0,-1
EndSplineSet
EndChar

StartChar: uni00B3
Encoding: 179 179 118
Width: 1233
VWidth: 2048
GlyphClass: 2
Flags: W
LayerCount: 2
Fore
SplineSet
731 1120 m 1,0,1
 826 1099 826 1099 874 1045 c 0,2,3
 924 992 924 992 924 911 c 0,4,5
 924 788 924 788 829 720 c 0,6,7
 735 653 735 653 557 653 c 0,8,9
 494 653 494 653 442 664 c 0,10,11
 393 672 393 672 326 694 c 1,12,-1
 326 815 l 1,13,14
 392 789 392 789 452 775 c 0,15,16
 505 762 505 762 553 762 c 0,17,18
 653 762 653 762 713 802 c 0,19,20
 772 844 772 844 772 911 c 0,21,22
 772 986 772 986 717 1023 c 0,23,24
 661 1061 661 1061 553 1061 c 2,25,-1
 487 1061 l 1,26,-1
 487 1169 l 1,27,-1
 561 1169 l 2,28,29
 652 1169 652 1169 703 1200 c 0,30,31
 752 1233 752 1233 752 1292 c 0,32,33
 752 1347 752 1347 704 1380 c 0,34,35
 654 1411 654 1411 569 1411 c 0,36,37
 524 1411 524 1411 469 1399 c 128,-1,38
 414 1387 414 1387 354 1364 c 1,39,-1
 354 1485 l 1,40,41
 430 1503 430 1503 482 1511 c 0,42,43
 539 1520 539 1520 590 1520 c 0,44,45
 734 1520 734 1520 819 1461 c 0,46,47
 903 1402 903 1402 903 1303 c 0,48,49
 903 1232 903 1232 859 1186 c 0,50,51
 817 1140 817 1140 731 1120 c 1,0,1
EndSplineSet
EndChar

StartChar: acute
Encoding: 180 180 119
Width: 1233
VWidth: 2048
GlyphClass: 2
Flags: W
LayerCount: 2
Fore
SplineSet
756 1638 m 1,0,-1
 954 1638 l 1,1,-1
 629 1262 l 1,2,-1
 475 1262 l 1,3,-1
 756 1638 l 1,0,-1
EndSplineSet
EndChar

StartChar: mu
Encoding: 181 181 120
Width: 1233
VWidth: 2048
GlyphClass: 2
Flags: W
LayerCount: 2
Fore
SplineSet
195 -428 m 1,0,-1
 195 1120 l 1,1,-1
 379 1120 l 1,2,-1
 379 424 l 2,3,4
 379 282 379 282 439 206 c 0,5,6
 499 131 499 131 610 131 c 0,7,8
 736 131 736 131 802 216 c 0,9,10
 866 303 866 303 866 467 c 2,11,-1
 866 1120 l 1,12,-1
 1051 1120 l 1,13,-1
 1051 256 l 2,14,15
 1051 197 1051 197 1067 169 c 128,-1,16
 1083 141 1083 141 1116 141 c 0,17,18
 1123 141 1123 141 1140 146 c 0,19,20
 1154 150 1154 150 1182 164 c 1,21,-1
 1182 16 l 1,22,23
 1141 -9 1141 -9 1110 -18 c 0,24,25
 1074 -29 1074 -29 1042 -29 c 0,26,27
 981 -29 981 -29 942 10 c 0,28,29
 905 52 905 52 893 129 c 1,30,31
 846 48 846 48 780 10 c 0,32,33
 714 -29 714 -29 625 -29 c 0,34,35
 534 -29 534 -29 470 9 c 0,36,37
 406 46 406 46 362 127 c 1,38,-1
 362 -428 l 1,39,-1
 195 -428 l 1,0,-1
EndSplineSet
EndChar

StartChar: paragraph
Encoding: 182 182 121
Width: 1233
VWidth: 2048
GlyphClass: 2
Flags: W
LayerCount: 2
Fore
SplineSet
582 1493 m 2,0,-1
 1030 1493 l 1,1,-1
 1030 -197 l 1,2,-1
 889 -197 l 1,3,-1
 889 1370 l 1,4,-1
 698 1370 l 1,5,-1
 698 -197 l 1,6,-1
 557 -197 l 1,7,-1
 557 649 l 1,8,9
 344 665 344 665 224 776 c 0,10,11
 106 887 106 887 106 1071 c 0,12,13
 106 1261 106 1261 236 1377 c 0,14,15
 369 1493 369 1493 582 1493 c 2,0,-1
EndSplineSet
EndChar

StartChar: periodcentered
Encoding: 183 183 122
Width: 1233
VWidth: 2048
GlyphClass: 2
Flags: W
LayerCount: 2
Fore
SplineSet
489 864 m 1,0,-1
 741 864 l 1,1,-1
 741 559 l 1,2,-1
 489 559 l 1,3,-1
 489 864 l 1,0,-1
EndSplineSet
EndChar

StartChar: cedilla
Encoding: 184 184 123
Width: 1233
VWidth: 2048
GlyphClass: 2
Flags: W
LayerCount: 2
Fore
SplineSet
700 0 m 1,0,1
 756 -62 756 -62 782 -114 c 0,2,3
 809 -168 809 -168 809 -215 c 0,4,5
 809 -304 809 -304 749 -350 c 0,6,7
 689 -395 689 -395 571 -395 c 0,8,9
 527 -395 527 -395 482 -389 c 128,-1,10
 437 -383 437 -383 395 -371 c 1,11,-1
 395 -240 l 1,12,13
 434 -259 434 -259 466 -264 c 0,14,15
 501 -272 501 -272 551 -272 c 0,16,17
 608 -272 608 -272 640 -248 c 0,18,19
 670 -224 670 -224 670 -178 c 0,20,21
 670 -148 670 -148 648 -104 c 0,22,23
 624 -60 624 -60 582 0 c 1,24,-1
 700 0 l 1,0,1
EndSplineSet
EndChar

StartChar: uni00B9
Encoding: 185 185 124
Width: 1233
VWidth: 2048
GlyphClass: 2
Flags: W
LayerCount: 2
Fore
SplineSet
362 778 m 1,0,-1
 567 778 l 1,1,-1
 567 1389 l 1,2,-1
 344 1348 l 1,3,-1
 344 1464 l 1,4,-1
 573 1503 l 1,5,-1
 711 1503 l 1,6,-1
 711 778 l 1,7,-1
 915 778 l 1,8,-1
 915 668 l 1,9,-1
 362 668 l 1,10,-1
 362 778 l 1,0,-1
EndSplineSet
EndChar

StartChar: ordmasculine
Encoding: 186 186 125
Width: 1233
VWidth: 2048
GlyphClass: 2
Flags: W
LayerCount: 2
Fore
SplineSet
616 1403 m 0,0,1
 514 1403 514 1403 456 1325 c 0,2,3
 399 1247 399 1247 399 1108 c 0,4,5
 399 968 399 968 456 892 c 0,6,7
 515 815 515 815 616 815 c 0,8,9
 716 815 716 815 776 894 c 0,10,11
 834 973 834 973 834 1108 c 0,12,13
 834 1248 834 1248 776 1325 c 0,14,15
 719 1403 719 1403 616 1403 c 0,0,1
616 1520 m 128,-1,17
 786 1520 786 1520 888 1408 c 0,18,19
 989 1295 989 1295 989 1108 c 0,20,21
 989 922 989 922 888 810 c 0,22,23
 788 698 788 698 616 698 c 0,24,25
 445 698 445 698 345 810 c 0,26,27
 244 922 244 922 244 1108 c 0,28,29
 244 1296 244 1296 346 1408 c 0,30,16
 446 1520 446 1520 616 1520 c 128,-1,17
276 592 m 1,31,-1
 952 592 l 1,32,-1
 952 469 l 1,33,-1
 276 469 l 1,34,-1
 276 592 l 1,31,-1
EndSplineSet
EndChar

StartChar: guillemotright
Encoding: 187 187 126
Width: 1233
VWidth: 2048
GlyphClass: 2
Flags: W
LayerCount: 2
Fore
SplineSet
647 1059 m 1,0,-1
 1116 641 l 1,1,-1
 1116 559 l 1,2,-1
 647 141 l 1,3,-1
 647 332 l 1,4,-1
 948 600 l 1,5,-1
 647 868 l 1,6,-1
 647 1059 l 1,0,-1
193 1059 m 1,7,-1
 662 641 l 1,8,-1
 662 559 l 1,9,-1
 193 141 l 1,10,-1
 193 332 l 1,11,-1
 494 600 l 1,12,-1
 193 868 l 1,13,-1
 193 1059 l 1,7,-1
EndSplineSet
EndChar

StartChar: onequarter
Encoding: 188 188 127
Width: 1233
VWidth: 2048
GlyphClass: 2
Flags: W
LayerCount: 2
Fore
SplineSet
815 565 m 1,0,-1
 977 565 l 1,1,-1
 977 27 l 1,2,-1
 1093 27 l 1,3,-1
 1093 -84 l 1,4,-1
 977 -84 l 1,5,-1
 977 -270 l 1,6,-1
 839 -270 l 1,7,-1
 839 -84 l 1,8,-1
 452 -84 l 1,9,-1
 452 37 l 1,10,-1
 815 565 l 1,0,-1
839 440 m 1,11,-1
 565 27 l 1,12,-1
 839 27 l 1,13,-1
 839 440 l 1,11,-1
104 934 m 1,14,-1
 309 934 l 1,15,-1
 309 1545 l 1,16,-1
 86 1504 l 1,17,-1
 86 1620 l 1,18,-1
 315 1659 l 1,19,-1
 453 1659 l 1,20,-1
 453 934 l 1,21,-1
 657 934 l 1,22,-1
 657 824 l 1,23,-1
 104 824 l 1,24,-1
 104 934 l 1,14,-1
51 504 m 1,25,-1
 27 612 l 1,26,-1
 1087 874 l 1,27,-1
 1114 766 l 1,28,-1
 51 504 l 1,25,-1
EndSplineSet
EndChar

StartChar: onehalf
Encoding: 189 189 128
Width: 1233
VWidth: 2048
GlyphClass: 2
Flags: W
LayerCount: 2
Fore
SplineSet
104 934 m 1,0,-1
 309 934 l 1,1,-1
 309 1545 l 1,2,-1
 86 1504 l 1,3,-1
 86 1620 l 1,4,-1
 315 1659 l 1,5,-1
 453 1659 l 1,6,-1
 453 934 l 1,7,-1
 657 934 l 1,8,-1
 657 824 l 1,9,-1
 104 824 l 1,10,-1
 104 934 l 1,0,-1
51 504 m 1,11,-1
 27 612 l 1,12,-1
 1087 874 l 1,13,-1
 1114 766 l 1,14,-1
 51 504 l 1,11,-1
684 -156 m 1,15,-1
 1094 -156 l 1,16,-1
 1094 -270 l 1,17,-1
 523 -270 l 1,18,-1
 523 -160 l 1,19,-1
 754 66 l 2,20,21
 855 164 855 164 896 224 c 0,22,23
 936 287 936 287 936 336 c 0,24,25
 936 397 936 397 886 435 c 128,-1,26
 836 473 836 473 754 473 c 0,27,28
 705 473 705 473 648 455 c 128,-1,29
 591 437 591 437 529 401 c 1,30,-1
 529 526 l 1,31,32
 593 554 593 554 654 568 c 0,33,34
 718 582 718 582 774 582 c 0,35,36
 916 582 916 582 1002 516 c 0,37,38
 1088 448 1088 448 1088 342 c 0,39,40
 1088 284 1088 284 1051 226 c 0,41,42
 1014 166 1014 166 895 49 c 2,43,-1
 684 -156 l 1,15,-1
EndSplineSet
EndChar

StartChar: threequarters
Encoding: 190 190 129
Width: 1233
VWidth: 2048
GlyphClass: 2
Flags: W
LayerCount: 2
Fore
SplineSet
815 565 m 1,0,-1
 977 565 l 1,1,-1
 977 27 l 1,2,-1
 1093 27 l 1,3,-1
 1093 -84 l 1,4,-1
 977 -84 l 1,5,-1
 977 -270 l 1,6,-1
 839 -270 l 1,7,-1
 839 -84 l 1,8,-1
 452 -84 l 1,9,-1
 452 37 l 1,10,-1
 815 565 l 1,0,-1
839 440 m 1,11,-1
 565 27 l 1,12,-1
 839 27 l 1,13,-1
 839 440 l 1,11,-1
504 1276 m 1,14,15
 597 1255 597 1255 648 1201 c 0,16,17
 697 1146 697 1146 697 1067 c 0,18,19
 697 944 697 944 602 876 c 0,20,21
 508 809 508 809 330 809 c 0,22,23
 267 809 267 809 215 820 c 0,24,25
 166 828 166 828 99 850 c 1,26,-1
 99 971 l 1,27,28
 164 946 164 946 224 931 c 0,29,30
 279 918 279 918 326 918 c 0,31,32
 426 918 426 918 486 958 c 0,33,34
 545 1000 545 1000 545 1067 c 0,35,36
 545 1142 545 1142 490 1179 c 0,37,38
 434 1217 434 1217 326 1217 c 2,39,-1
 260 1217 l 1,40,-1
 260 1325 l 1,41,-1
 334 1325 l 2,42,43
 425 1325 425 1325 476 1356 c 0,44,45
 525 1389 525 1389 525 1448 c 0,46,47
 525 1503 525 1503 477 1536 c 0,48,49
 427 1567 427 1567 342 1567 c 0,50,51
 298 1567 298 1567 242 1555 c 0,52,53
 187 1543 187 1543 127 1520 c 1,54,-1
 127 1641 l 1,55,56
 200 1659 200 1659 254 1667 c 0,57,58
 314 1676 314 1676 363 1676 c 0,59,60
 507 1676 507 1676 592 1617 c 0,61,62
 676 1558 676 1558 676 1459 c 0,63,64
 676 1388 676 1388 632 1342 c 0,65,66
 590 1296 590 1296 504 1276 c 1,14,15
51 504 m 1,67,-1
 27 612 l 1,68,-1
 1087 874 l 1,69,-1
 1114 766 l 1,70,-1
 51 504 l 1,67,-1
EndSplineSet
EndChar

StartChar: questiondown
Encoding: 191 191 130
Width: 1233
VWidth: 2048
GlyphClass: 2
Flags: W
LayerCount: 2
Fore
SplineSet
549 1092 m 1,0,-1
 739 1092 l 1,1,-1
 739 938 l 2,2,3
 739 838 739 838 708 772 c 0,4,5
 678 704 678 704 594 621 c 2,6,-1
 504 532 l 2,7,8
 443 474 443 474 418 429 c 0,9,10
 395 385 395 385 395 336 c 0,11,12
 395 248 395 248 460 192 c 0,13,14
 525 137 525 137 635 137 c 0,15,16
 716 137 716 137 802 172 c 0,17,18
 888 204 888 204 989 274 c 1,19,-1
 989 86 l 1,20,21
 896 30 896 30 800 1 c 0,22,23
 706 -27 706 -27 600 -27 c 0,24,25
 414 -27 414 -27 304 69 c 0,26,27
 193 165 193 165 193 326 c 0,28,29
 193 402 193 402 226 468 c 0,30,31
 263 537 263 537 354 625 c 2,32,-1
 442 711 l 2,33,34
 508 774 508 774 528 817 c 0,35,36
 547 858 547 858 547 922 c 2,37,-1
 547 927 l 2,38,39
 549 957 549 957 549 969 c 2,40,-1
 549 1092 l 1,0,-1
745 1239 m 1,41,-1
 543 1239 l 1,42,-1
 543 1493 l 1,43,-1
 745 1493 l 1,44,-1
 745 1239 l 1,41,-1
EndSplineSet
EndChar

StartChar: Oacute
Encoding: 211 211 131
Width: 1271
VWidth: 0
GlyphClass: 2
Flags: W
LayerCount: 2
Fore
SplineSet
801 119 m 2,0,1
 801 40 801 40 838.5 3.5 c 0,2,3
 876 -33 876 -33 946 -38 c 1,4,-1
 957 -38 l 2,5,6
 1049 -38 1049 -38 1102.5 52 c 0,7,8
 1156 142 1156 142 1188 381.5 c 0,9,10
 1220 621 1220 621 1229 1055 c 1,11,-1
 1229 1060 l 1,12,-1
 1323 1057 l 1,13,-1
 1323 1028 l 2,14,15
 1323 741 1323 741 1304 529 c 0,16,17
 1285 317 1285 317 1253.5 187 c 0,18,19
 1222 57 1222 57 1172 -21 c 0,20,21
 1122 -99 1122 -99 1068.5 -127.5 c 0,22,23
 1015 -156 1015 -156 944 -156 c 2,24,-1
 940 -156 l 2,25,26
 850 -155 850 -155 786.5 -85 c 0,27,28
 723 -15 723 -15 723 69 c 2,29,-1
 723 76 l 1,30,-1
 723 78 l 1,31,-1
 801 128 l 1,32,-1
 801 119 l 2,0,1
EndSplineSet
Refer: 169 710 S 1 0 0 1 489 1800 2
Substitution2: "'liga' Standard Ligatures in Latin lookup 0 subtable" U
EndChar

StartChar: multiply
Encoding: 215 215 132
Width: 1233
VWidth: 2048
GlyphClass: 2
Flags: W
LayerCount: 2
Fore
SplineSet
150 293 m 1,0,-1
 500 641 l 1,1,-1
 150 991 l 1,2,-1
 266 1108 l 1,3,-1
 616 758 l 1,4,-1
 967 1108 l 1,5,-1
 1083 991 l 1,6,-1
 733 641 l 1,7,-1
 1081 293 l 1,8,-1
 965 174 l 1,9,-1
 616 524 l 1,10,-1
 268 174 l 1,11,-1
 150 293 l 1,0,-1
EndSplineSet
EndChar

StartChar: oacute
Encoding: 243 243 133
Width: 504
VWidth: 0
GlyphClass: 2
Flags: W
LayerCount: 2
Fore
SplineSet
82 119 m 2,0,1
 82 40 82 40 119.5 3.5 c 128,-1,2
 157 -33 157 -33 227 -38 c 1,3,-1
 238 -38 l 2,4,5
 330 -38 330 -38 383.5 52 c 128,-1,6
 437 142 437 142 469 381.5 c 128,-1,7
 501 621 501 621 510 1055 c 1,8,-1
 510 1060 l 1,9,-1
 604 1057 l 1,10,-1
 604 1028 l 2,11,12
 604 741 604 741 585 529 c 128,-1,13
 566 317 566 317 534.5 187 c 128,-1,14
 503 57 503 57 453 -21 c 128,-1,15
 403 -99 403 -99 349.5 -127.5 c 128,-1,16
 296 -156 296 -156 225 -156 c 2,17,-1
 221 -156 l 2,18,19
 131 -155 131 -155 67.5 -85 c 128,-1,20
 4 -15 4 -15 4 69 c 2,21,-1
 4 76 l 1,22,-1
 4 78 l 1,23,-1
 82 128 l 1,24,-1
 82 119 l 2,0,1
EndSplineSet
Substitution2: "'liga' Standard Ligatures in Latin lookup 0 subtable" u
EndChar

StartChar: divide
Encoding: 247 247 134
Width: 1233
VWidth: 2048
GlyphClass: 2
Flags: W
LayerCount: 2
Fore
SplineSet
494 395 m 1,0,-1
 739 395 l 1,1,-1
 739 150 l 1,2,-1
 494 150 l 1,3,-1
 494 395 l 1,0,-1
494 1135 m 1,4,-1
 739 1135 l 1,5,-1
 739 889 l 1,6,-1
 494 889 l 1,7,-1
 494 1135 l 1,4,-1
88 727 m 1,8,-1
 1145 727 l 1,9,-1
 1145 557 l 1,10,-1
 88 557 l 1,11,-1
 88 727 l 1,8,-1
EndSplineSet
EndChar

StartChar: Aogonek
Encoding: 260 260 135
Width: 1484
VWidth: 0
GlyphClass: 2
Flags: W
LayerCount: 2
Fore
SplineSet
1685 2054 m 1,0,-1
 1799 2041 l 1,1,2
 1788 1848 1788 1848 1743 1663 c 0,3,4
 1698 1478 1698 1478 1629.5 1322.5 c 0,5,6
 1561 1167 1561 1167 1469.5 1021 c 0,7,8
 1378 875 1378 875 1277 756.5 c 0,9,10
 1176 638 1176 638 1063 531 c 0,11,12
 950 424 950 424 841 342 c 0,13,14
 732 260 732 260 621.5 191.5 c 0,15,16
 511 123 511 123 417.5 77 c 0,17,18
 324 31 324 31 241 0 c 1,19,-1
 201 149 l 1,20,21
 314 199 314 199 429.5 263.5 c 0,22,23
 545 328 545 328 686.5 427 c 0,24,25
 828 526 828 526 954.5 640 c 0,26,27
 1081 754 1081 754 1207.5 908 c 0,28,29
 1334 1062 1334 1062 1429.5 1230.5 c 0,30,31
 1525 1399 1525 1399 1594 1612.5 c 0,32,33
 1663 1826 1663 1826 1685 2054 c 1,0,-1
EndSplineSet
Refer: 169 710 S 1 0 0 1 528 1808 2
EndChar

StartChar: aogonek
Encoding: 261 261 136
Width: 1484
VWidth: 0
GlyphClass: 2
Flags: W
LayerCount: 2
Fore
SplineSet
1484 2054 m 1,0,-1
 1598 2041 l 1,1,2
 1587 1848 1587 1848 1542 1663 c 128,-1,3
 1497 1478 1497 1478 1428.5 1322.5 c 128,-1,4
 1360 1167 1360 1167 1268.5 1021 c 128,-1,5
 1177 875 1177 875 1076 756.5 c 128,-1,6
 975 638 975 638 862 531 c 128,-1,7
 749 424 749 424 640 342 c 128,-1,8
 531 260 531 260 420.5 191.5 c 128,-1,9
 310 123 310 123 216.5 77 c 128,-1,10
 123 31 123 31 40 0 c 1,11,-1
 0 149 l 1,12,13
 113 199 113 199 228.5 263.5 c 128,-1,14
 344 328 344 328 485.5 427 c 128,-1,15
 627 526 627 526 753.5 640 c 128,-1,16
 880 754 880 754 1006.5 908 c 128,-1,17
 1133 1062 1133 1062 1228.5 1230.5 c 128,-1,18
 1324 1399 1324 1399 1393 1612.5 c 128,-1,19
 1462 1826 1462 1826 1484 2054 c 1,0,-1
EndSplineSet
EndChar

StartChar: cacute
Encoding: 263 263 138
Width: 489
VWidth: 0
GlyphClass: 3
Flags: W
LayerCount: 2
Fore
SplineSet
413 -32 m 1,0,-1
 271 109 l 1,1,2
 378 148 378 148 443.5 188 c 128,-1,3
 509 228 509 228 553 297 c 0,4,5
 595 364 595 364 615.5 432.5 c 128,-1,6
 636 501 636 501 636 608 c 0,7,8
 636 621 636 621 636 635 c 0,9,10
 634 729 634 729 607.5 838 c 128,-1,11
 581 947 581 947 540 1006 c 0,12,13
 506 1055 506 1055 474.5 1073 c 128,-1,14
 443 1091 443 1091 387 1091 c 0,15,16
 305 1091 305 1091 267 1059 c 0,17,18
 235 1033 235 1033 194 982.5 c 128,-1,19
 153 932 153 932 133 890 c 1,20,-1
 -27 998 l 1,21,22
 114 1176 114 1176 184 1205 c 0,23,24
 312 1255 312 1255 384 1255 c 0,25,26
 400 1255 400 1255 414 1253 c 0,27,28
 500 1239 500 1239 557.5 1200.5 c 128,-1,29
 615 1162 615 1162 665 1099 c 0,30,31
 823 898 823 898 823 635 c 0,32,33
 823 493 823 493 789 389 c 128,-1,34
 755 285 755 285 689 182 c 0,35,36
 661 137 661 137 595.5 84.5 c 128,-1,37
 530 32 530 32 477 0 c 128,-1,38
 424 -32 424 -32 414 -32 c 0,39,40
 413 -32 413 -32 413 -32 c 1,0,-1
EndSplineSet
Ligature2: "'liga' Standard Ligatures in Latin lookup 1 subtable" c i
EndChar

StartChar: Ccaron
Encoding: 268 268 139
Width: 906
VWidth: 3070
GlyphClass: 3
Flags: W
LayerCount: 2
Fore
SplineSet
730 2250 m 1,0,-1
 910 2248 l 1,1,-1
 907 -473 l 1,2,-1
 907 -474 l 1,3,4
 902 -560 902 -560 873 -623 c 0,5,6
 812 -757 812 -757 616 -757 c 0,7,8
 484 -757 484 -757 407 -673 c 0,9,10
 330 -589 330 -589 330 -468 c 0,11,12
 330 -419 330 -419 342 -352.5 c 0,13,14
 354 -286 354 -286 381 -202 c 0,15,16
 408 -118 408 -118 463.5 -37.5 c 0,17,18
 519 43 519 43 593 93 c 0,19,20
 615 108 615 108 636.5 127.5 c 0,21,22
 658 147 658 147 684 173 c 0,23,24
 710 199 710 199 719 208 c 2,25,-1
 728 215 l 1,26,-1
 730 2250 l 1,0,-1
725 -34 m 1,27,-1
 645 -112 l 1,28,-1
 640 -115 l 1,29,-1
 637 -119 l 2,30,31
 591 -180 591 -180 550.5 -284 c 0,32,33
 510 -388 510 -388 509 -466 c 0,34,35
 509 -576 509 -576 616 -576 c 0,36,37
 650 -575 650 -575 672.5 -566 c 0,38,39
 695 -557 695 -557 706.5 -538 c 0,40,41
 718 -519 718 -519 721.5 -508 c 0,42,43
 725 -497 725 -497 730 -475 c 1,44,-1
 730 -466 l 2,45,46
 730 -453 730 -453 728 -453 c 1,47,48
 728 -454 728 -454 727 -454 c 0,49,50
 725 -454 725 -454 725 -307 c 2,51,-1
 725 -117 l 1,52,-1
 725 -34 l 1,27,-1
EndSplineSet
Refer: 169 710 S 1 0 0 1 136 1800 2
LCarets2: 1 0
Ligature2: "'liga' Standard Ligatures in Latin lookup 1 subtable" C z
EndChar

StartChar: ccaron
Encoding: 269 269 140
Width: 181
VWidth: 3070
GlyphClass: 3
Flags: W
LayerCount: 2
Fore
SplineSet
0 2250 m 1,0,-1
 180 2248 l 1,1,-1
 177 -473 l 1,2,-1
 177 -474 l 1,3,4
 172 -560 172 -560 143 -623 c 0,5,6
 82 -757 82 -757 -114 -757 c 0,7,8
 -246 -757 -246 -757 -323 -673 c 128,-1,9
 -400 -589 -400 -589 -400 -468 c 0,10,11
 -400 -419 -400 -419 -388 -352.5 c 128,-1,12
 -376 -286 -376 -286 -349 -202 c 128,-1,13
 -322 -118 -322 -118 -266.5 -37.5 c 128,-1,14
 -211 43 -211 43 -137 93 c 0,15,16
 -115 108 -115 108 -93.5 127.5 c 128,-1,17
 -72 147 -72 147 -46 173 c 128,-1,18
 -20 199 -20 199 -11 208 c 2,19,-1
 -2 215 l 1,20,-1
 0 2250 l 1,0,-1
-5 -34 m 1,21,-1
 -85 -112 l 1,22,-1
 -90 -115 l 1,23,-1
 -93 -119 l 2,24,25
 -139 -180 -139 -180 -179.5 -284 c 128,-1,26
 -220 -388 -220 -388 -221 -466 c 0,27,28
 -221 -576 -221 -576 -114 -576 c 0,29,30
 -80 -575 -80 -575 -57.5 -566 c 128,-1,31
 -35 -557 -35 -557 -23.5 -538 c 128,-1,32
 -12 -519 -12 -519 -8.5 -508 c 128,-1,33
 -5 -497 -5 -497 0 -475 c 1,34,-1
 0 -466 l 2,35,36
 0 -453 0 -453 -2 -453 c 1,37,38
 -2 -454 -2 -454 -3 -454 c 0,39,40
 -5 -454 -5 -454 -5 -307 c 2,41,-1
 -5 -117 l 1,42,-1
 -5 -34 l 1,21,-1
EndSplineSet
Ligature2: "'liga' Standard Ligatures in Latin lookup 1 subtable" c z
EndChar

StartChar: Dcaron
Encoding: 270 270 141
Width: 957
VWidth: 3070
GlyphClass: 3
Flags: W
LayerCount: 2
Fore
SplineSet
649 -322 m 0,0,1
 676 -328 676 -328 696 -328 c 0,2,3
 747 -328 747 -328 764 -299 c 0,4,5
 781 -270 781 -270 781 -225 c 0,6,7
 781 -216 781 -216 780.5 -201 c 0,8,9
 780 -186 780 -186 780 -181 c 2,10,-1
 780 -178 l 1,11,-1
 780 -18 l 1,12,-1
 625 -66 l 1,13,14
 534 -124 534 -124 534 -196 c 0,15,16
 534 -241 534 -241 568.5 -276.5 c 0,17,18
 603 -312 603 -312 649 -322 c 0,0,1
780 188 m 1,19,-1
 780 1250 l 1,20,-1
 959 1250 l 1,21,-1
 959 0 l 1,22,-1
 957 -96 l 2,23,24
 955 -192 955 -192 955 -193 c 0,25,26
 950 -279 950 -279 921 -342 c 0,27,28
 860 -476 860 -476 664 -476 c 0,29,30
 533 -476 533 -476 455.5 -392.5 c 0,31,32
 378 -309 378 -309 378 -189 c 2,33,-1
 378 -187 l 2,34,35
 378 -156 378 -156 385 -128 c 0,36,37
 392 -100 392 -100 400 -78 c 0,38,39
 408 -56 408 -56 429 -32 c 0,40,41
 450 -8 450 -8 464.5 8 c 0,42,43
 479 24 479 24 513 46 c 0,44,45
 547 68 547 68 566 80.5 c 0,46,47
 585 93 585 93 631.5 116 c 0,48,49
 678 139 678 139 701 150 c 0,50,51
 724 161 724 161 780 188 c 1,19,-1
EndSplineSet
Refer: 169 710 S 1 0 0 1 168 1800 2
LCarets2: 1 0
Ligature2: "'liga' Standard Ligatures in Latin lookup 1 subtable" D zdotaccent
EndChar

StartChar: dcaron
Encoding: 271 271 142
Width: 184
VWidth: 3070
GlyphClass: 3
Flags: W
LayerCount: 2
Fore
SplineSet
-131 -322 m 0,0,1
 -104 -328 -104 -328 -84 -328 c 0,2,3
 -33 -328 -33 -328 -16 -299 c 128,-1,4
 1 -270 1 -270 1 -225 c 0,5,6
 1 -216 1 -216 0.5 -201 c 128,-1,7
 0 -186 0 -186 0 -181 c 2,8,-1
 0 -178 l 1,9,-1
 0 -18 l 1,10,-1
 -155 -66 l 1,11,12
 -246 -124 -246 -124 -246 -196 c 0,13,14
 -246 -241 -246 -241 -211.5 -276.5 c 128,-1,15
 -177 -312 -177 -312 -131 -322 c 0,0,1
0 188 m 1,16,-1
 0 1250 l 1,17,-1
 179 1250 l 1,18,-1
 179 0 l 1,19,-1
 177 -96 l 2,20,21
 175 -192 175 -192 175 -193 c 0,22,23
 170 -279 170 -279 141 -342 c 0,24,25
 80 -476 80 -476 -116 -476 c 0,26,27
 -247 -476 -247 -476 -324.5 -392.5 c 128,-1,28
 -402 -309 -402 -309 -402 -189 c 2,29,-1
 -402 -187 l 2,30,31
 -402 -156 -402 -156 -395 -128 c 128,-1,32
 -388 -100 -388 -100 -380 -78 c 128,-1,33
 -372 -56 -372 -56 -351 -32 c 128,-1,34
 -330 -8 -330 -8 -315.5 8 c 128,-1,35
 -301 24 -301 24 -267 46 c 128,-1,36
 -233 68 -233 68 -214 80.5 c 128,-1,37
 -195 93 -195 93 -148.5 116 c 128,-1,38
 -102 139 -102 139 -79 150 c 128,-1,39
 -56 161 -56 161 0 188 c 1,16,-1
EndSplineSet
Ligature2: "'liga' Standard Ligatures in Latin lookup 1 subtable" d zdotaccent
EndChar

StartChar: eogonek
Encoding: 281 281 144
Width: 1296
VWidth: 0
GlyphClass: 2
Flags: W
LayerCount: 2
Fore
SplineSet
1315 184 m 1,0,-1
 1330 77 l 1,1,-1
 20 65 l 1,2,-1
 3 174 l 1,3,-1
 1315 184 l 1,0,-1
EndSplineSet
EndChar

StartChar: lslash
Encoding: 322 322 146
Width: 78
VWidth: 2048
GlyphClass: 2
Flags: W
LayerCount: 2
Fore
SplineSet
218 44 m 1,0,-1
 -67 44 l 1,1,2
 -58 51 -58 51 -43.5 63 c 128,-1,3
 -29 75 -29 75 1.5 100 c 128,-1,4
 32 125 32 125 52 142 c 128,-1,5
 72 159 72 159 71 160 c 1,6,-1
 218 44 l 1,0,-1
75 133 m 0,7,8
 135 133 135 133 185 86 c 0,9,10
 242 34 242 34 242 -50 c 0,11,12
 242 -92 242 -92 225 -130 c 128,-1,13
 208 -168 208 -168 186 -186 c 0,14,15
 166 -202 166 -202 153 -210 c 128,-1,16
 140 -218 140 -218 119 -225.5 c 128,-1,17
 98 -233 98 -233 75 -233 c 0,18,19
 20 -233 20 -233 -36 -186 c 0,20,21
 -60 -166 -60 -166 -75.5 -129.5 c 128,-1,22
 -91 -93 -91 -93 -91 -50 c 0,23,24
 -91 36 -91 36 -36 86 c 0,25,26
 16 133 16 133 75 133 c 0,7,8
EndSplineSet
EndChar

StartChar: Nacute
Encoding: 323 323 147
Width: 1375
VWidth: 0
GlyphClass: 3
Flags: W
LayerCount: 2
Fore
SplineSet
952 273 m 0,0,1
 916 273 916 273 882 254 c 0,2,3
 848 235 848 235 824.5 208 c 0,4,5
 801 181 801 181 783 154 c 0,6,7
 765 127 765 127 756 108 c 2,8,-1
 747 89 l 1,9,-1
 592 193 l 1,10,11
 597 203 597 203 607.5 220 c 0,12,13
 618 237 618 237 653.5 280 c 0,14,15
 689 323 689 323 728.5 356 c 0,16,17
 768 389 768 389 830 416 c 0,18,19
 892 443 892 443 956 443 c 0,20,21
 1005 443 1005 443 1045 429.5 c 0,22,23
 1085 416 1085 416 1110.5 394 c 0,24,25
 1136 372 1136 372 1155 346 c 0,26,27
 1174 320 1174 320 1183 293.5 c 0,28,29
 1192 267 1192 267 1197.5 245 c 0,30,31
 1203 223 1203 223 1204 210 c 2,32,-1
 1205 196 l 1,33,-1
 1205 0 l 1,34,-1
 1377 156 l 1,35,-1
 1378 157 l 1,36,-1
 1378 158 l 1,37,-1
 1492 68 l 1,38,-1
 1490 66 l 1,39,-1
 1026 -448 l 1,40,-1
 1025 71 l 2,41,42
 1024 78 1024 78 1024 92 c 0,43,44
 1025 106 1025 106 1025 127 c 0,45,46
 1025 273 1025 273 952 273 c 0,0,1
EndSplineSet
Refer: 169 710 S 1 0 0 1 416 1792 2
LCarets2: 1 0
Ligature2: "'liga' Standard Ligatures in Latin lookup 1 subtable" N i
EndChar

StartChar: nacute
Encoding: 324 324 148
Width: 751
VWidth: 0
GlyphClass: 3
Flags: W
LayerCount: 2
Fore
SplineSet
342 273 m 0,0,1
 306 273 306 273 272 254 c 128,-1,2
 238 235 238 235 214.5 208 c 128,-1,3
 191 181 191 181 173 154 c 128,-1,4
 155 127 155 127 146 108 c 2,5,-1
 137 89 l 1,6,-1
 -18 193 l 1,7,8
 -13 203 -13 203 -2.5 220 c 128,-1,9
 8 237 8 237 43.5 280 c 128,-1,10
 79 323 79 323 118.5 356 c 128,-1,11
 158 389 158 389 220 416 c 128,-1,12
 282 443 282 443 346 443 c 0,13,14
 395 443 395 443 435 429.5 c 128,-1,15
 475 416 475 416 500.5 394 c 128,-1,16
 526 372 526 372 545 346 c 128,-1,17
 564 320 564 320 573 293.5 c 128,-1,18
 582 267 582 267 587.5 245 c 128,-1,19
 593 223 593 223 594 210 c 2,20,-1
 595 196 l 1,21,-1
 595 0 l 1,22,-1
 767 156 l 1,23,-1
 768 157 l 1,24,-1
 768 158 l 1,25,-1
 882 68 l 1,26,-1
 880 66 l 1,27,-1
 416 -448 l 1,28,-1
 415 71 l 2,29,30
 414 78 414 78 414 92 c 0,31,32
 415 106 415 106 415 127 c 0,33,34
 415 273 415 273 342 273 c 0,0,1
EndSplineSet
Ligature2: "'liga' Standard Ligatures in Latin lookup 1 subtable" n i
EndChar

StartChar: sacute
Encoding: 347 347 150
Width: 235
VWidth: 0
GlyphClass: 3
Flags: W
LayerCount: 2
Fore
SplineSet
47 903 m 1,0,-1
 47 1101 l 1,1,2
 310 945 310 945 344 514 c 1,3,4
 344 406 344 406 335.5 325.5 c 128,-1,5
 327 245 327 245 300 79 c 0,6,7
 296 55 296 55 290.5 32 c 128,-1,8
 285 9 285 9 274 -19.5 c 128,-1,9
 263 -48 263 -48 256 -65.5 c 128,-1,10
 249 -83 249 -83 231 -120 c 128,-1,11
 213 -157 213 -157 206 -171 c 128,-1,12
 199 -185 199 -185 175 -231 c 128,-1,13
 151 -277 151 -277 144 -290 c 0,14,15
 67 -439 67 -439 -128.5 -680 c 128,-1,16
 -324 -921 -324 -921 -487 -1087 c 1,17,-1
 -487 -888 l 1,18,19
 -375 -768 -375 -768 -230.5 -581 c 128,-1,20
 -86 -394 -86 -394 3 -245 c 0,21,22
 140 -16 140 -16 160 79 c 0,23,24
 207 303 207 303 207 410 c 0,25,26
 213 571 213 571 179.5 683.5 c 128,-1,27
 146 796 146 796 47 903 c 1,0,-1
EndSplineSet
Ligature2: "'liga' Standard Ligatures in Latin lookup 1 subtable" s i
EndChar

StartChar: scaron
Encoding: 353 353 152
Width: 375
VWidth: 0
GlyphClass: 3
Flags: W
LayerCount: 2
Fore
SplineSet
128 896 m 1,0,-1
 0 1000 l 1,1,2
 61 1132 61 1132 158 1194.5 c 128,-1,3
 255 1257 255 1257 356 1257 c 0,4,5
 430 1257 430 1257 485.5 1226 c 128,-1,6
 541 1195 541 1195 554 1147 c 0,7,8
 584 1028 584 1028 584 863 c 0,9,10
 584 634 584 634 528 318 c 0,11,12
 494 128 494 128 456.5 -18.5 c 128,-1,13
 419 -165 419 -165 350 -378 c 0,14,15
 215 -794 215 -794 15 -951 c 0,16,17
 -151 -1082 -151 -1082 -314 -1082 c 0,18,19
 -420 -1082 -420 -1082 -485 -1019 c 128,-1,20
 -550 -956 -550 -956 -550 -837 c 0,21,22
 -550 -691 -550 -691 -450 -495 c 0,23,24
 -416 -428 -416 -428 -333 -328 c 128,-1,25
 -250 -228 -250 -228 -140 -119 c 0,26,27
 -90 -69 -90 -69 -53.5 -39.5 c 128,-1,28
 -17 -10 -17 -10 13 9.5 c 128,-1,29
 43 29 43 29 130.5 86 c 128,-1,30
 218 143 218 143 320 213 c 1,31,32
 324 229 324 229 344.5 296 c 128,-1,33
 365 363 365 363 377.5 413 c 128,-1,34
 390 463 390 463 402 559 c 128,-1,35
 414 655 414 655 414 761 c 0,36,37
 414 821 414 821 409 909 c 0,38,39
 398 1075 398 1075 330 1075 c 0,40,41
 260 1075 260 1075 128 896 c 1,0,-1
292 -19 m 1,42,43
 99 -132 99 -132 -20 -229 c 128,-1,44
 -139 -326 -139 -326 -221 -462 c 0,45,46
 -345 -669 -345 -669 -345 -794 c 0,47,48
 -345 -880 -345 -880 -281 -880 c 0,49,50
 -202 -880 -202 -880 -61 -750 c 0,51,52
 -22 -714 -22 -714 12 -676 c 128,-1,53
 46 -638 46 -638 71.5 -599.5 c 128,-1,54
 97 -561 97 -561 116.5 -529.5 c 128,-1,55
 136 -498 136 -498 152.5 -460.5 c 128,-1,56
 169 -423 169 -423 177.5 -403.5 c 128,-1,57
 186 -384 186 -384 197.5 -352.5 c 128,-1,58
 209 -321 209 -321 210 -318 c 0,59,60
 281 -133 281 -133 292 -19 c 1,42,43
EndSplineSet
LCarets2: 1 0
Ligature2: "'liga' Standard Ligatures in Latin lookup 1 subtable" s z
EndChar

StartChar: zacute
Encoding: 378 378 154
Width: 300
VWidth: 0
GlyphClass: 3
Flags: W
LayerCount: 2
Fore
SplineSet
-3 903 m 1,0,-1
 -3 1101 l 1,1,2
 48 1087 48 1087 95.5 1063 c 128,-1,3
 143 1039 143 1039 180.5 1009 c 128,-1,4
 218 979 218 979 249.5 949.5 c 128,-1,5
 281 920 281 920 307.5 886.5 c 128,-1,6
 334 853 334 853 349.5 831 c 128,-1,7
 365 809 365 809 380.5 784.5 c 128,-1,8
 396 760 396 760 398 758 c 0,9,10
 437 703 437 703 453.5 576 c 128,-1,11
 470 449 470 449 456.5 311 c 128,-1,12
 443 173 443 173 402 94 c 0,13,14
 378 48 378 48 365.5 25 c 128,-1,15
 353 2 353 2 320.5 -52.5 c 128,-1,16
 288 -107 288 -107 257 -144.5 c 128,-1,17
 226 -182 226 -182 182.5 -229.5 c 128,-1,18
 139 -277 139 -277 85.5 -315.5 c 128,-1,19
 32 -354 32 -354 -27 -383 c 1,20,-1
 -103 -256 l 1,21,22
 -34 -229 -34 -229 28.5 -178 c 128,-1,23
 91 -127 91 -127 137 -65.5 c 128,-1,24
 183 -4 183 -4 215.5 55.5 c 128,-1,25
 248 115 248 115 268 172 c 0,26,27
 379 484 379 484 254 708 c 0,28,29
 151 893 151 893 -3 903 c 1,0,-1
EndSplineSet
Ligature2: "'liga' Standard Ligatures in Latin lookup 1 subtable" z i
EndChar

StartChar: Zdotaccent
Encoding: 379 379 155
Width: 1348
VWidth: 0
GlyphClass: 3
Flags: W
LayerCount: 2
Fore
SplineSet
1087 896 m 1,0,-1
 937 1000 l 1,1,2
 1110 1191 1110 1191 1236 1191 c 0,3,4
 1302 1191 1302 1191 1354 1140 c 0,5,6
 1367 1127 1367 1127 1378.5 1111.5 c 0,7,8
 1390 1096 1390 1096 1399 1075.5 c 0,9,10
 1408 1055 1408 1055 1415 1038.5 c 0,11,12
 1422 1022 1422 1022 1428 995.5 c 0,13,14
 1434 969 1434 969 1437.5 954 c 0,15,16
 1441 939 1441 939 1445 908.5 c 0,17,18
 1449 878 1449 878 1450.5 867 c 0,19,20
 1452 856 1452 856 1455 824 c 0,21,22
 1458 792 1458 792 1459 786 c 0,23,24
 1469 689 1469 689 1469 577 c 0,25,26
 1469 489 1469 489 1453.5 279 c 0,27,28
 1438 69 1438 69 1429 -4 c 0,29,30
 1419 -84 1419 -84 1393.5 -173.5 c 0,31,32
 1368 -263 1368 -263 1339 -320 c 0,33,34
 1307 -383 1307 -383 1243.5 -428.5 c 0,35,36
 1180 -474 1180 -474 1093 -474 c 0,37,38
 1069 -474 1069 -474 1056 -472 c 0,39,40
 995 -465 995 -465 957 -406.5 c 0,41,42
 919 -348 919 -348 919 -274 c 0,43,44
 919 -237 919 -237 929 -204 c 0,45,46
 954 -117 954 -117 987 -58 c 0,47,48
 1020 1 1020 1 1080 50 c 0,49,50
 1116 79 1116 79 1144.5 99 c 0,51,52
 1173 119 1173 119 1189 127.5 c 0,53,54
 1205 136 1205 136 1235 151 c 0,55,56
 1265 166 1265 166 1288 179 c 1,57,58
 1289 188 1289 188 1302 371 c 0,59,60
 1315 554 1315 554 1315 564 c 0,61,62
 1315 712 1315 712 1291 864 c 0,63,64
 1280 931 1280 931 1258.5 974.5 c 0,65,66
 1237 1018 1237 1018 1205 1018 c 0,67,68
 1154 1018 1154 1018 1087 896 c 1,0,-1
1288 -24 m 1,69,70
 1201 -49 1201 -49 1144 -100 c 0,71,72
 1075 -161 1075 -161 1068 -250 c 1,73,-1
 1068 -260 l 2,74,75
 1068 -292 1068 -292 1082.5 -312 c 0,76,77
 1097 -332 1097 -332 1119 -332 c 2,78,-1
 1120 -332 l 2,79,80
 1146 -331 1146 -331 1167.5 -312 c 0,81,82
 1189 -293 1189 -293 1222 -246 c 0,83,84
 1280 -161 1280 -161 1288 -24 c 1,69,70
EndSplineSet
Refer: 169 710 S 1 0 0 1 464 1792 2
LCarets2: 1 0
Ligature2: "'liga' Standard Ligatures in Latin lookup 1 subtable" R z
EndChar

StartChar: zdotaccent
Encoding: 380 380 156
Width: 375
VWidth: 0
GlyphClass: 3
Flags: W
LayerCount: 2
Fore
SplineSet
126 896 m 1,0,-1
 -24 1000 l 1,1,2
 149 1191 149 1191 275 1191 c 0,3,4
 341 1191 341 1191 393 1140 c 0,5,6
 406 1127 406 1127 417.5 1111.5 c 128,-1,7
 429 1096 429 1096 438 1075.5 c 128,-1,8
 447 1055 447 1055 454 1038.5 c 128,-1,9
 461 1022 461 1022 467 995.5 c 128,-1,10
 473 969 473 969 476.5 954 c 128,-1,11
 480 939 480 939 484 908.5 c 128,-1,12
 488 878 488 878 489.5 867 c 128,-1,13
 491 856 491 856 494 824 c 128,-1,14
 497 792 497 792 498 786 c 0,15,16
 508 689 508 689 508 577 c 0,17,18
 508 489 508 489 492.5 279 c 128,-1,19
 477 69 477 69 468 -4 c 0,20,21
 458 -84 458 -84 432.5 -173.5 c 128,-1,22
 407 -263 407 -263 378 -320 c 0,23,24
 346 -383 346 -383 282.5 -428.5 c 128,-1,25
 219 -474 219 -474 132 -474 c 0,26,27
 108 -474 108 -474 95 -472 c 0,28,29
 34 -465 34 -465 -4 -406.5 c 128,-1,30
 -42 -348 -42 -348 -42 -274 c 0,31,32
 -42 -237 -42 -237 -32 -204 c 0,33,34
 -7 -117 -7 -117 26 -58 c 128,-1,35
 59 1 59 1 119 50 c 0,36,37
 155 79 155 79 183.5 99 c 128,-1,38
 212 119 212 119 228 127.5 c 128,-1,39
 244 136 244 136 274 151 c 128,-1,40
 304 166 304 166 327 179 c 1,41,42
 328 188 328 188 341 371 c 128,-1,43
 354 554 354 554 354 564 c 0,44,45
 354 712 354 712 330 864 c 0,46,47
 319 931 319 931 297.5 974.5 c 128,-1,48
 276 1018 276 1018 244 1018 c 0,49,50
 193 1018 193 1018 126 896 c 1,0,-1
327 -24 m 1,51,52
 240 -49 240 -49 183 -100 c 0,53,54
 114 -161 114 -161 107 -250 c 1,55,-1
 107 -260 l 2,56,57
 107 -292 107 -292 121.5 -312 c 128,-1,58
 136 -332 136 -332 158 -332 c 2,59,-1
 159 -332 l 2,60,61
 185 -331 185 -331 206.5 -312 c 128,-1,62
 228 -293 228 -293 261 -246 c 0,63,64
 319 -161 319 -161 327 -24 c 1,51,52
EndSplineSet
LCarets2: 1 0
Ligature2: "'liga' Standard Ligatures in Latin lookup 1 subtable" r z
EndChar

StartChar: Zcaron
Encoding: 381 381 157
Width: 532
VWidth: 0
GlyphClass: 2
Flags: W
LayerCount: 2
Fore
SplineSet
91 -849 m 2,0,1
 161 -848 161 -848 220.5 -811 c 0,2,3
 280 -774 280 -774 319.5 -716.5 c 0,4,5
 359 -659 359 -659 390 -581.5 c 0,6,7
 421 -504 421 -504 438.5 -428.5 c 0,8,9
 456 -353 456 -353 467 -273.5 c 0,10,11
 478 -194 478 -194 481.5 -139 c 0,12,13
 485 -84 485 -84 485 -42 c 2,14,-1
 485 -24 l 1,15,16
 389 -75 389 -75 323 -137 c 0,17,18
 257 -199 257 -199 160 -321 c 0,19,20
 109 -383 109 -383 71.5 -507.5 c 0,21,22
 34 -632 34 -632 34 -731 c 0,23,24
 34 -849 34 -849 90 -849 c 2,25,-1
 91 -849 l 2,0,1
9 -980 m 0,26,27
 -69 -946 -69 -946 -102.5 -863.5 c 0,28,29
 -136 -781 -136 -781 -136 -680 c 0,30,31
 -136 -616 -136 -616 -124 -558 c 0,32,33
 -104 -459 -104 -459 -65 -383.5 c 0,34,35
 -26 -308 -26 -308 45 -211 c 0,36,37
 129 -98 129 -98 222.5 -14.5 c 0,38,39
 316 69 316 69 487 179 c 1,40,41
 497 197 497 197 497 303 c 0,42,43
 497 345 497 345 494 379 c 0,44,45
 494 383 494 383 492.5 402.5 c 0,46,47
 491 422 491 422 490.5 427 c 0,48,49
 490 432 490 432 488 448.5 c 0,50,51
 486 465 486 465 483.5 472 c 0,52,53
 481 479 481 479 477.5 494.5 c 0,54,55
 474 510 474 510 469 519.5 c 0,56,57
 464 529 464 529 457.5 542.5 c 0,58,59
 451 556 451 556 442 569 c 0,60,61
 433 582 433 582 422 596 c 0,62,63
 204 851 204 851 7 879 c 1,64,-1
 3 880 l 1,65,-1
 3 1105 l 1,66,-1
 10 1102 l 1,67,68
 163 1029 163 1029 320.5 910 c 0,69,70
 478 791 478 791 525 711 c 0,71,72
 583 610 583 610 613 538.5 c 0,73,74
 643 467 643 467 650 393 c 0,75,76
 656 334 656 334 656 254 c 0,77,78
 656 3 656 3 613 -300.5 c 0,79,80
 570 -604 570 -604 514 -694 c 0,81,82
 323 -1005 323 -1005 122 -1005 c 0,83,84
 66 -1005 66 -1005 9 -980 c 0,26,27
EndSplineSet
Refer: 169 710 S 1 0 0 1 -336 1800 2
EndChar

StartChar: zcaron
Encoding: 382 382 158
Width: 371
VWidth: 0
GlyphClass: 2
Flags: W
LayerCount: 2
Fore
SplineSet
321 589 m 0,0,1
 308 635 308 635 259 703.5 c 128,-1,2
 210 772 210 772 143 829 c 128,-1,3
 76 886 76 886 24 889 c 2,4,-1
 4 890 l 1,5,-1
 112 1012 l 1,6,-1
 119 1009 l 2,7,8
 221 967 221 967 302 875 c 128,-1,9
 383 783 383 783 419 704 c 0,10,11
 496 537 496 537 496 365 c 0,12,13
 496 199 496 199 475 30 c 128,-1,14
 454 -139 454 -139 411 -214 c 0,15,16
 386 -259 386 -259 368.5 -286 c 128,-1,17
 351 -313 351 -313 314.5 -348 c 128,-1,18
 278 -383 278 -383 239 -396 c 0,19,20
 156 -425 156 -425 92 -425 c 0,21,22
 49 -425 49 -425 29 -414 c 0,23,24
 -25 -387 -25 -387 -49.5 -359 c 128,-1,25
 -74 -331 -74 -331 -75 -275 c 2,26,-1
 -75 -264 l 2,27,28
 -75 -192 -75 -192 -46.5 -137 c 128,-1,29
 -18 -82 -18 -82 43 -20 c 0,30,31
 76 13 76 13 112.5 41 c 128,-1,32
 149 69 149 69 174.5 86 c 128,-1,33
 200 103 200 103 261.5 140.5 c 128,-1,34
 323 178 323 178 363 203 c 1,35,36
 365 265 365 265 365 373 c 0,37,38
 365 440 365 440 321 589 c 0,0,1
135 -288 m 0,39,40
 200 -251 200 -251 256 -185 c 0,41,42
 301 -131 301 -131 330 20 c 1,43,44
 319 14 319 14 298 3.5 c 128,-1,45
 277 -7 277 -7 270.5 -10.5 c 128,-1,46
 264 -14 264 -14 248.5 -23 c 128,-1,47
 233 -32 233 -32 226 -39 c 128,-1,48
 219 -46 219 -46 205.5 -58 c 128,-1,49
 192 -70 192 -70 179.5 -85 c 128,-1,50
 167 -100 167 -100 150 -121 c 0,51,52
 115 -165 115 -165 97 -197.5 c 128,-1,53
 79 -230 79 -230 76 -245 c 128,-1,54
 73 -260 73 -260 73 -281 c 2,55,-1
 73 -291 l 2,56,57
 73 -298 73 -298 95 -298 c 0,58,59
 119 -298 119 -298 135 -288 c 0,39,40
EndSplineSet
EndChar

StartChar: uni02B9
Encoding: 697 697 161
Width: 1233
VWidth: 2048
GlyphClass: 2
Flags: W
LayerCount: 2
Fore
SplineSet
492 1140 m 1,0,-1
 557 1638 l 1,1,-1
 747 1638 l 1,2,-1
 637 1140 l 1,3,-1
 492 1140 l 1,0,-1
EndSplineSet
EndChar

StartChar: uni02BB
Encoding: 699 699 162
Width: 1233
VWidth: 2048
GlyphClass: 2
Flags: W
LayerCount: 2
Fore
SplineSet
715 967 m 1,0,-1
 463 967 l 1,1,-1
 463 1174 l 1,2,-1
 659 1556 l 1,3,-1
 813 1556 l 1,4,-1
 715 1174 l 1,5,-1
 715 967 l 1,0,-1
EndSplineSet
EndChar

StartChar: afii57929
Encoding: 700 700 163
Width: 1233
VWidth: 2048
GlyphClass: 2
Flags: W
LayerCount: 2
Fore
SplineSet
561 1556 m 1,0,-1
 813 1556 l 1,1,-1
 813 1350 l 1,2,-1
 616 967 l 1,3,-1
 463 967 l 1,4,-1
 561 1350 l 1,5,-1
 561 1556 l 1,0,-1
EndSplineSet
EndChar

StartChar: afii64937
Encoding: 701 701 164
Width: 1233
VWidth: 2048
GlyphClass: 2
Flags: W
LayerCount: 2
Fore
SplineSet
496 1475 m 2,0,-1
 496 1729 l 1,1,-1
 737 1729 l 1,2,-1
 737 1475 l 1,3,-1
 625 1475 l 1,4,5
 625 1341 625 1341 737 1341 c 1,6,-1
 737 1218 l 1,7,8
 496 1218 496 1218 496 1475 c 2,0,-1
EndSplineSet
EndChar

StartChar: uni02BE
Encoding: 702 702 165
Width: 1233
VWidth: 2048
GlyphClass: 2
Flags: W
LayerCount: 2
Fore
SplineSet
480 1007 m 1,0,-1
 480 1130 l 1,1,2
 544 1130 544 1130 588 1174 c 128,-1,3
 632 1218 632 1218 632 1282 c 0,4,5
 632 1345 632 1345 588 1389 c 128,-1,6
 544 1433 544 1433 480 1433 c 1,7,-1
 480 1556 l 1,8,9
 594 1556 594 1556 674 1476 c 128,-1,10
 754 1396 754 1396 754 1282 c 0,11,12
 754 1167 754 1167 674 1087 c 128,-1,13
 594 1007 594 1007 480 1007 c 1,0,-1
EndSplineSet
EndChar

StartChar: uni02BF
Encoding: 703 703 166
Width: 1233
VWidth: 2048
GlyphClass: 2
Flags: W
LayerCount: 2
Fore
SplineSet
754 1007 m 1,0,1
 638 1007 638 1007 558 1087 c 0,2,3
 480 1166 480 1166 480 1282 c 0,4,5
 480 1396 480 1396 558 1476 c 0,6,7
 638 1556 638 1556 754 1556 c 1,8,-1
 754 1433 l 1,9,10
 690 1433 690 1433 646 1389 c 128,-1,11
 602 1345 602 1345 602 1282 c 0,12,13
 602 1218 602 1218 646 1174 c 128,-1,14
 690 1130 690 1130 754 1130 c 1,15,-1
 754 1007 l 1,0,1
EndSplineSet
EndChar

StartChar: uni02C0
Encoding: 704 704 167
Width: 1233
VWidth: 2048
GlyphClass: 2
Flags: W
LayerCount: 2
Fore
SplineSet
509 1357 m 1,0,-1
 549 1357 l 2,1,2
 670 1357 670 1357 724 1421 c 0,3,4
 760 1463 760 1463 760 1518 c 0,5,6
 760 1593 760 1593 724 1629 c 0,7,8
 663 1693 663 1693 549 1693 c 0,9,10
 498 1693 498 1693 449 1681 c 256,11,12
 400 1669 400 1669 350 1645 c 1,13,-1
 350 1741 l 1,14,15
 400 1761 400 1761 449 1770 c 0,16,17
 498 1780 498 1780 554 1780 c 0,18,19
 727 1780 727 1780 814 1692 c 0,20,21
 883 1622 883 1622 883 1518 c 0,22,23
 883 1424 883 1424 815 1359 c 0,24,25
 745 1292 745 1292 637 1275 c 1,26,-1
 637 910 l 1,27,-1
 510 910 l 1,28,-1
 509 1357 l 1,0,-1
EndSplineSet
EndChar

StartChar: uni02C1
Encoding: 705 705 168
Width: 1233
VWidth: 2048
GlyphClass: 2
Flags: W
LayerCount: 2
Fore
SplineSet
723 1357 m 1,0,-1
 723 910 l 1,1,-1
 596 910 l 1,2,-1
 596 1275 l 1,3,4
 488 1292 488 1292 418 1359 c 0,5,6
 350 1424 350 1424 350 1518 c 0,7,8
 350 1622 350 1622 420 1692 c 0,9,10
 505 1780 505 1780 679 1780 c 0,11,12
 735 1780 735 1780 784 1770 c 0,13,14
 833 1761 833 1761 883 1741 c 1,15,-1
 883 1645 l 1,16,17
 834 1669 834 1669 784 1681 c 256,18,19
 734 1693 734 1693 684 1693 c 0,20,21
 570 1693 570 1693 509 1629 c 0,22,23
 473 1593 473 1593 473 1518 c 0,24,25
 473 1463 473 1463 509 1421 c 0,26,27
 563 1357 563 1357 684 1357 c 2,28,-1
 723 1357 l 1,0,-1
EndSplineSet
EndChar

StartChar: circumflex
Encoding: 710 710 169
Width: 1233
VWidth: 2048
GlyphClass: 2
Flags: W
LayerCount: 2
Fore
SplineSet
543 1638 m 1,0,-1
 690 1638 l 1,1,-1
 936 1262 l 1,2,-1
 797 1262 l 1,3,-1
 616 1507 l 1,4,-1
 436 1262 l 1,5,-1
 297 1262 l 1,6,-1
 543 1638 l 1,0,-1
EndSplineSet
EndChar

StartChar: caron
Encoding: 711 711 170
Width: 1233
VWidth: 2048
GlyphClass: 2
Flags: W
LayerCount: 2
Fore
SplineSet
543 1262 m 1,0,-1
 297 1638 l 1,1,-1
 436 1638 l 1,2,-1
 616 1393 l 1,3,-1
 797 1638 l 1,4,-1
 936 1638 l 1,5,-1
 690 1262 l 1,6,-1
 543 1262 l 1,0,-1
EndSplineSet
EndChar

StartChar: uni02C8
Encoding: 712 712 171
Width: 1233
VWidth: 2048
GlyphClass: 2
Flags: W
LayerCount: 2
Fore
SplineSet
684 1554 m 1,0,-1
 684 999 l 1,1,-1
 548 999 l 1,2,-1
 548 1554 l 1,3,-1
 684 1554 l 1,0,-1
EndSplineSet
EndChar

StartChar: uni02C9
Encoding: 713 713 172
Width: 1233
VWidth: 2048
GlyphClass: 2
Flags: W
LayerCount: 2
Fore
SplineSet
317 1526 m 1,0,-1
 915 1526 l 1,1,-1
 915 1378 l 1,2,-1
 317 1378 l 1,3,-1
 317 1526 l 1,0,-1
EndSplineSet
EndChar

StartChar: uni02CC
Encoding: 716 716 173
Width: 1233
VWidth: 2048
GlyphClass: 2
Flags: W
LayerCount: 2
Fore
SplineSet
684 252 m 1,0,-1
 684 -303 l 1,1,-1
 548 -303 l 1,2,-1
 548 252 l 1,3,-1
 684 252 l 1,0,-1
EndSplineSet
EndChar

StartChar: uni02CD
Encoding: 717 717 174
Width: 1233
VWidth: 2048
GlyphClass: 2
Flags: W
LayerCount: 2
Fore
SplineSet
318 -209 m 1,0,-1
 916 -209 l 1,1,-1
 916 -357 l 1,2,-1
 318 -357 l 1,3,-1
 318 -209 l 1,0,-1
EndSplineSet
EndChar

StartChar: uni02D0
Encoding: 720 720 175
Width: 1233
VWidth: 2048
GlyphClass: 2
Flags: W
LayerCount: 2
Fore
SplineSet
616 729 m 1,0,-1
 438 1059 l 1,1,-1
 795 1059 l 1,2,-1
 616 729 l 1,0,-1
616 330 m 1,3,-1
 795 0 l 1,4,-1
 438 0 l 1,5,-1
 616 330 l 1,3,-1
EndSplineSet
EndChar

StartChar: uni02D1
Encoding: 721 721 176
Width: 1233
VWidth: 2048
GlyphClass: 2
Flags: W
LayerCount: 2
Fore
SplineSet
616 729 m 1,0,-1
 438 1059 l 1,1,-1
 795 1059 l 1,2,-1
 616 729 l 1,0,-1
EndSplineSet
EndChar

StartChar: uni02D2
Encoding: 722 722 177
Width: 1233
VWidth: 2048
GlyphClass: 2
Flags: W
LayerCount: 2
Fore
SplineSet
480 510 m 1,0,-1
 480 633 l 1,1,2
 544 633 544 633 588 677 c 128,-1,3
 632 721 632 721 632 785 c 0,4,5
 632 848 632 848 588 892 c 128,-1,6
 544 936 544 936 480 936 c 1,7,-1
 480 1059 l 1,8,9
 594 1059 594 1059 674 979 c 128,-1,10
 754 899 754 899 754 785 c 0,11,12
 754 670 754 670 674 590 c 128,-1,13
 594 510 594 510 480 510 c 1,0,-1
EndSplineSet
EndChar

StartChar: uni02D3
Encoding: 723 723 178
Width: 1233
VWidth: 2048
GlyphClass: 2
Flags: W
LayerCount: 2
Fore
SplineSet
754 510 m 1,0,1
 638 510 638 510 558 590 c 0,2,3
 480 670 480 670 480 785 c 256,4,5
 480 900 480 900 558 979 c 0,6,7
 638 1059 638 1059 754 1059 c 1,8,-1
 754 936 l 1,9,10
 690 936 690 936 646 892 c 128,-1,11
 602 848 602 848 602 785 c 0,12,13
 602 721 602 721 646 677 c 128,-1,14
 690 633 690 633 754 633 c 1,15,-1
 754 510 l 1,0,1
EndSplineSet
EndChar

StartChar: uni02D6
Encoding: 726 726 179
Width: 1233
VWidth: 2048
GlyphClass: 2
Flags: W
LayerCount: 2
Fore
SplineSet
542 629 m 1,0,-1
 542 853 l 1,1,-1
 692 853 l 1,2,-1
 692 629 l 1,3,-1
 916 629 l 1,4,-1
 916 479 l 1,5,-1
 692 479 l 1,6,-1
 692 255 l 1,7,-1
 542 255 l 1,8,-1
 542 479 l 1,9,-1
 318 479 l 1,10,-1
 318 629 l 1,11,-1
 542 629 l 1,0,-1
EndSplineSet
EndChar

StartChar: uni02D7
Encoding: 727 727 180
Width: 1233
VWidth: 2048
GlyphClass: 2
Flags: W
LayerCount: 2
Fore
SplineSet
842 479 m 1,0,-1
 392 479 l 1,1,-1
 392 629 l 1,2,-1
 842 629 l 1,3,-1
 842 479 l 1,0,-1
EndSplineSet
EndChar

StartChar: breve
Encoding: 728 728 181
Width: 1233
VWidth: 2048
GlyphClass: 2
Flags: W
LayerCount: 2
Fore
SplineSet
303 1608 m 1,0,-1
 422 1608 l 1,1,2
 432 1533 432 1533 481 1495 c 0,3,4
 528 1458 528 1458 616 1458 c 0,5,6
 702 1458 702 1458 749 1495 c 0,7,8
 798 1533 798 1533 811 1608 c 1,9,-1
 930 1608 l 1,10,11
 919 1465 919 1465 840 1393 c 0,12,13
 760 1321 760 1321 616 1321 c 128,-1,14
 472 1321 472 1321 393 1393 c 128,-1,15
 314 1465 314 1465 303 1608 c 1,0,-1
EndSplineSet
EndChar

StartChar: dotaccent
Encoding: 729 729 182
Width: 1233
VWidth: 2048
GlyphClass: 2
Flags: W
LayerCount: 2
Fore
SplineSet
513 1552 m 1,0,-1
 718 1552 l 1,1,-1
 718 1348 l 1,2,-1
 513 1348 l 1,3,-1
 513 1552 l 1,0,-1
EndSplineSet
EndChar

StartChar: ring
Encoding: 730 730 183
Width: 1233
VWidth: 2048
GlyphClass: 2
Flags: W
LayerCount: 2
Fore
SplineSet
891 1524 m 0,0,1
 891 1410 891 1410 812 1329 c 0,2,3
 730 1249 730 1249 616 1249 c 0,4,5
 500 1249 500 1249 422 1329 c 0,6,7
 342 1408 342 1408 342 1524 c 0,8,9
 342 1641 342 1641 422 1718 c 1,10,11
 499 1798 499 1798 616 1798 c 0,12,13
 732 1798 732 1798 812 1718 c 0,14,15
 891 1639 891 1639 891 1524 c 0,0,1
768 1524 m 0,16,17
 768 1587 768 1587 724 1631 c 128,-1,18
 680 1675 680 1675 616 1675 c 0,19,20
 554 1675 554 1675 508 1632 c 1,21,22
 465 1586 465 1586 465 1524 c 0,23,24
 465 1459 465 1459 508 1416 c 0,25,26
 552 1372 552 1372 616 1372 c 128,-1,27
 680 1372 680 1372 724 1416 c 128,-1,28
 768 1460 768 1460 768 1524 c 0,16,17
EndSplineSet
EndChar

StartChar: ogonek
Encoding: 731 731 184
Width: 1233
VWidth: 2048
GlyphClass: 2
Flags: W
LayerCount: 2
Fore
SplineSet
528 0 m 1,0,-1
 647 0 l 1,1,2
 604 -59 604 -59 580 -105 c 0,3,4
 559 -148 559 -148 559 -180 c 0,5,6
 559 -226 559 -226 586 -249 c 0,7,8
 615 -272 615 -272 668 -272 c 0,9,10
 703 -272 703 -272 731 -264 c 0,11,12
 757 -259 757 -259 793 -242 c 1,13,-1
 793 -375 l 1,14,15
 756 -386 756 -386 721 -390 c 0,16,17
 683 -395 683 -395 657 -395 c 0,18,19
 536 -395 536 -395 478 -352 c 0,20,21
 420 -307 420 -307 420 -215 c 0,22,23
 420 -169 420 -169 446 -114 c 0,24,25
 476 -58 476 -58 528 0 c 1,0,-1
EndSplineSet
EndChar

StartChar: tilde
Encoding: 732 732 185
Width: 1233
VWidth: 2048
GlyphClass: 2
Flags: W
LayerCount: 2
Fore
SplineSet
612 1370 m 2,0,-1
 555 1425 l 2,1,2
 534 1444 534 1444 518 1454 c 0,3,4
 501 1464 501 1464 487 1464 c 0,5,6
 449 1464 449 1464 431 1427 c 0,7,8
 412 1388 412 1388 411 1309 c 1,9,-1
 287 1309 l 1,10,11
 289 1444 289 1444 339 1517 c 0,12,13
 390 1591 390 1591 481 1591 c 0,14,15
 519 1591 519 1591 552 1577 c 0,16,17
 582 1564 582 1564 621 1530 c 2,18,-1
 678 1475 l 2,19,20
 701 1453 701 1453 716 1446 c 0,21,22
 730 1436 730 1436 745 1436 c 0,23,24
 784 1436 784 1436 802 1473 c 0,25,26
 819 1509 819 1509 821 1591 c 1,27,-1
 946 1591 l 1,28,29
 944 1456 944 1456 894 1383 c 0,30,31
 843 1309 843 1309 752 1309 c 0,32,33
 714 1309 714 1309 681 1323 c 0,34,35
 651 1336 651 1336 612 1370 c 2,0,-1
EndSplineSet
EndChar

StartChar: hungarumlaut
Encoding: 733 733 186
Width: 1233
VWidth: 2048
GlyphClass: 2
Flags: W
LayerCount: 2
Fore
SplineSet
535 1638 m 1,0,-1
 705 1638 l 1,1,-1
 481 1262 l 1,2,-1
 344 1262 l 1,3,-1
 535 1638 l 1,0,-1
868 1638 m 1,4,-1
 1047 1638 l 1,5,-1
 799 1262 l 1,6,-1
 664 1262 l 1,7,-1
 868 1638 l 1,4,-1
EndSplineSet
EndChar

StartChar: uni02DE
Encoding: 734 734 187
Width: 1233
VWidth: 2048
GlyphClass: 2
Flags: W
LayerCount: 2
Fore
SplineSet
-351 868 m 1,0,-1
 268 1032 l 1,1,-1
 452 1032 l 1,2,-1
 452 884 l 2,3,4
 452 732 452 732 490 682 c 0,5,6
 528 634 528 634 633 634 c 2,7,-1
 883 634 l 1,8,-1
 883 478 l 1,9,-1
 612 478 l 2,10,11
 437 478 437 478 350 574 c 0,12,13
 268 663 268 663 268 864 c 1,14,-1
 -350 702 l 1,15,-1
 -351 868 l 1,0,-1
EndSplineSet
EndChar

StartChar: uni02E0
Encoding: 736 736 188
Width: 1233
VWidth: 2048
GlyphClass: 2
Flags: W
LayerCount: 2
Fore
SplineSet
693 988 m 1,0,1
 871 740 871 740 871 559 c 0,2,3
 871 430 871 430 629 427 c 0,4,5
 364 424 364 424 362 559 c 0,6,7
 361 749 361 749 543 992 c 1,8,-1
 293 1295 l 1,9,-1
 429 1295 l 1,10,-1
 620 1071 l 1,11,-1
 804 1295 l 1,12,-1
 940 1295 l 1,13,-1
 693 988 l 1,0,1
616 921 m 1,14,15
 477 748 477 748 480 595 c 0,16,17
 482 518 482 518 616 518 c 0,18,19
 744 518 744 518 744 595 c 0,20,21
 745 734 745 734 616 921 c 1,14,15
EndSplineSet
EndChar

StartChar: uni02E1
Encoding: 737 737 189
Width: 1233
VWidth: 2048
GlyphClass: 2
Flags: W
LayerCount: 2
Fore
SplineSet
644 895 m 2,0,1
 644 825 644 825 672 790 c 0,2,3
 701 755 701 755 756 755 c 2,4,-1
 892 755 l 1,5,-1
 892 668 l 1,6,-1
 746 668 l 2,7,8
 642 668 642 668 585 728 c 0,9,10
 528 787 528 787 528 895 c 2,11,-1
 528 1465 l 1,12,-1
 342 1465 l 1,13,-1
 342 1546 l 1,14,-1
 644 1546 l 1,15,-1
 644 895 l 2,0,1
EndSplineSet
EndChar

StartChar: uni02E2
Encoding: 738 738 190
Width: 1233
VWidth: 2048
GlyphClass: 2
Flags: W
LayerCount: 2
Fore
SplineSet
848 1293 m 1,0,-1
 848 1196 l 1,1,2
 798 1218 798 1218 746 1229 c 0,3,4
 691 1240 691 1240 637 1240 c 0,5,6
 550 1240 550 1240 507 1216 c 0,7,8
 464 1194 464 1194 464 1146 c 0,9,10
 464 1109 464 1109 495 1090 c 0,11,12
 527 1069 527 1069 619 1051 c 2,13,-1
 659 1043 l 2,14,15
 785 1019 785 1019 834 977 c 0,16,17
 886 934 886 934 886 857 c 0,18,19
 886 770 886 770 808 719 c 0,20,21
 732 668 732 668 594 668 c 0,22,23
 536 668 536 668 476 678 c 0,24,25
 403 691 403 691 347 707 c 1,26,-1
 347 814 l 1,27,28
 412 784 412 784 474 769 c 256,29,30
 536 754 536 754 597 754 c 0,31,32
 680 754 680 754 723 779 c 0,33,34
 767 805 767 805 767 849 c 0,35,36
 767 891 767 891 735 914 c 0,37,38
 704 935 704 935 596 957 c 2,39,-1
 555 965 l 2,40,41
 448 986 448 986 400 1028 c 0,42,43
 352 1068 352 1068 352 1142 c 0,44,45
 352 1229 352 1229 422 1278 c 0,46,47
 493 1327 493 1327 623 1327 c 0,48,49
 687 1327 687 1327 744 1318 c 0,50,51
 796 1311 796 1311 848 1293 c 1,0,-1
EndSplineSet
EndChar

StartChar: uni02E3
Encoding: 739 739 191
Width: 1233
VWidth: 2048
GlyphClass: 2
Flags: W
LayerCount: 2
Fore
SplineSet
945 1295 m 1,0,-1
 690 990 l 1,1,-1
 959 668 l 1,2,-1
 822 668 l 1,3,-1
 616 914 l 1,4,-1
 411 668 l 1,5,-1
 274 668 l 1,6,-1
 548 996 l 1,7,-1
 298 1295 l 1,8,-1
 434 1295 l 1,9,-1
 622 1072 l 1,10,-1
 809 1295 l 1,11,-1
 945 1295 l 1,0,-1
EndSplineSet
EndChar

StartChar: uni02E4
Encoding: 740 740 192
Width: 1233
VWidth: 2048
GlyphClass: 2
Flags: W
LayerCount: 2
Fore
SplineSet
723 1115 m 1,0,-1
 723 668 l 1,1,-1
 596 668 l 1,2,-1
 596 1033 l 1,3,4
 488 1050 488 1050 418 1117 c 0,5,6
 350 1182 350 1182 350 1276 c 0,7,8
 350 1380 350 1380 420 1450 c 0,9,10
 505 1538 505 1538 679 1538 c 0,11,12
 735 1538 735 1538 784 1528 c 0,13,14
 833 1519 833 1519 883 1499 c 1,15,-1
 883 1403 l 1,16,17
 834 1427 834 1427 784 1439 c 256,18,19
 734 1451 734 1451 684 1451 c 0,20,21
 570 1451 570 1451 509 1387 c 0,22,23
 473 1351 473 1351 473 1276 c 0,24,25
 473 1221 473 1221 509 1179 c 0,26,27
 563 1115 563 1115 684 1115 c 2,28,-1
 723 1115 l 1,0,-1
EndSplineSet
EndChar

StartChar: uni02E5
Encoding: 741 741 193
Width: 1233
VWidth: 2048
GlyphClass: 2
Flags: W
LayerCount: 2
Fore
SplineSet
797 0 m 1,0,-1
 797 1232 l 1,1,-1
 300 1232 l 1,2,-1
 300 1368 l 1,3,-1
 933 1368 l 1,4,-1
 933 0 l 1,5,-1
 797 0 l 1,0,-1
EndSplineSet
EndChar

StartChar: uni02E6
Encoding: 742 742 194
Width: 1233
VWidth: 2048
GlyphClass: 2
Flags: W
LayerCount: 2
Fore
SplineSet
797 0 m 1,0,-1
 797 924 l 1,1,-1
 300 924 l 1,2,-1
 300 1060 l 1,3,-1
 797 1060 l 1,4,-1
 797 1368 l 1,5,-1
 933 1368 l 1,6,-1
 933 0 l 1,7,-1
 797 0 l 1,0,-1
EndSplineSet
EndChar

StartChar: uni02E7
Encoding: 743 743 195
Width: 1233
VWidth: 2048
GlyphClass: 2
Flags: W
LayerCount: 2
Fore
SplineSet
797 752 m 1,0,-1
 797 1368 l 1,1,-1
 933 1368 l 1,2,-1
 933 0 l 1,3,-1
 797 0 l 1,4,-1
 797 616 l 1,5,-1
 300 616 l 1,6,-1
 300 752 l 1,7,-1
 797 752 l 1,0,-1
EndSplineSet
EndChar

StartChar: uni02E8
Encoding: 744 744 196
Width: 1233
VWidth: 2048
GlyphClass: 2
Flags: W
LayerCount: 2
Fore
SplineSet
797 444 m 1,0,-1
 797 1368 l 1,1,-1
 933 1368 l 1,2,-1
 933 0 l 1,3,-1
 797 0 l 1,4,-1
 797 308 l 1,5,-1
 300 308 l 1,6,-1
 300 444 l 1,7,-1
 797 444 l 1,0,-1
EndSplineSet
EndChar

StartChar: uni02E9
Encoding: 745 745 197
Width: 1233
VWidth: 2048
GlyphClass: 2
Flags: W
LayerCount: 2
Fore
SplineSet
797 136 m 1,0,-1
 797 1368 l 1,1,-1
 933 1368 l 1,2,-1
 933 0 l 1,3,-1
 300 0 l 1,4,-1
 300 136 l 1,5,-1
 797 136 l 1,0,-1
EndSplineSet
EndChar

StartChar: uni02EE
Encoding: 750 750 198
Width: 1233
VWidth: 2048
GlyphClass: 2
Flags: W
LayerCount: 2
Fore
SplineSet
768 1556 m 1,0,-1
 1020 1556 l 1,1,-1
 1020 1350 l 1,2,-1
 823 967 l 1,3,-1
 670 967 l 1,4,-1
 768 1350 l 1,5,-1
 768 1556 l 1,0,-1
309 1556 m 1,6,-1
 561 1556 l 1,7,-1
 561 1350 l 1,8,-1
 365 967 l 1,9,-1
 211 967 l 1,10,-1
 309 1350 l 1,11,-1
 309 1556 l 1,6,-1
EndSplineSet
EndChar

StartChar: uni02F3
Encoding: 755 755 199
Width: 1233
VWidth: 2048
GlyphClass: 2
Flags: W
LayerCount: 2
Fore
SplineSet
836 -282 m 128,-1,1
 836 -374 836 -374 772 -438 c 0,2,3
 709 -502 709 -502 616 -502 c 0,4,5
 524 -502 524 -502 460 -438 c 0,6,7
 397 -374 397 -374 397 -282 c 128,-1,8
 397 -190 397 -190 460 -126 c 0,9,10
 524 -63 524 -63 616 -63 c 0,11,12
 709 -63 709 -63 772 -126 c 0,13,0
 836 -190 836 -190 836 -282 c 128,-1,1
738 -282 m 0,14,15
 738 -232 738 -232 702 -196 c 0,16,17
 667 -161 667 -161 616 -161 c 128,-1,18
 565 -161 565 -161 530 -196 c 128,-1,19
 495 -231 495 -231 495 -282 c 0,20,21
 495 -334 495 -334 530 -369 c 128,-1,22
 565 -404 565 -404 616 -404 c 0,23,24
 668 -404 668 -404 702 -368 c 0,25,26
 738 -334 738 -334 738 -282 c 0,14,15
EndSplineSet
EndChar

StartChar: gravecomb
Encoding: 768 768 200
Width: 1233
VWidth: 2048
GlyphClass: 2
Flags: W
LayerCount: 2
Fore
SplineSet
477 1638 m 1,0,-1
 758 1262 l 1,1,-1
 604 1262 l 1,2,-1
 279 1638 l 1,3,-1
 477 1638 l 1,0,-1
EndSplineSet
EndChar

StartChar: acutecomb
Encoding: 769 769 201
Width: 1233
VWidth: 2048
GlyphClass: 2
Flags: W
LayerCount: 2
Fore
SplineSet
756 1638 m 1,0,-1
 954 1638 l 1,1,-1
 629 1262 l 1,2,-1
 475 1262 l 1,3,-1
 756 1638 l 1,0,-1
EndSplineSet
EndChar

StartChar: uni0302
Encoding: 770 770 202
Width: 1233
VWidth: 2048
GlyphClass: 2
Flags: W
LayerCount: 2
Fore
SplineSet
543 1638 m 1,0,-1
 690 1638 l 1,1,-1
 936 1262 l 1,2,-1
 797 1262 l 1,3,-1
 616 1507 l 1,4,-1
 436 1262 l 1,5,-1
 297 1262 l 1,6,-1
 543 1638 l 1,0,-1
EndSplineSet
EndChar

StartChar: tildecomb
Encoding: 771 771 203
Width: 1233
VWidth: 2048
GlyphClass: 2
Flags: W
LayerCount: 2
Fore
SplineSet
612 1370 m 2,0,-1
 555 1425 l 2,1,2
 534 1444 534 1444 518 1454 c 0,3,4
 501 1464 501 1464 487 1464 c 0,5,6
 449 1464 449 1464 431 1427 c 0,7,8
 412 1388 412 1388 411 1309 c 1,9,-1
 287 1309 l 1,10,11
 289 1444 289 1444 339 1517 c 0,12,13
 390 1591 390 1591 481 1591 c 0,14,15
 519 1591 519 1591 552 1577 c 0,16,17
 582 1564 582 1564 621 1530 c 2,18,-1
 678 1475 l 2,19,20
 701 1453 701 1453 716 1446 c 0,21,22
 730 1436 730 1436 745 1436 c 0,23,24
 784 1436 784 1436 802 1473 c 0,25,26
 819 1509 819 1509 821 1591 c 1,27,-1
 946 1591 l 1,28,29
 944 1456 944 1456 894 1383 c 0,30,31
 843 1309 843 1309 752 1309 c 0,32,33
 714 1309 714 1309 681 1323 c 0,34,35
 651 1336 651 1336 612 1370 c 2,0,-1
EndSplineSet
EndChar

StartChar: uni0304
Encoding: 772 772 204
Width: 1233
VWidth: 2048
GlyphClass: 2
Flags: W
LayerCount: 2
Fore
SplineSet
317 1526 m 1,0,-1
 915 1526 l 1,1,-1
 915 1378 l 1,2,-1
 317 1378 l 1,3,-1
 317 1526 l 1,0,-1
EndSplineSet
EndChar

StartChar: uni0305
Encoding: 773 773 205
Width: 1233
VWidth: 2048
GlyphClass: 2
Flags: W
LayerCount: 2
Fore
SplineSet
1233 1547 m 1,0,-1
 1233 1467 l 1,1,-1
 0 1467 l 1,2,-1
 0 1547 l 1,3,-1
 1233 1547 l 1,0,-1
EndSplineSet
EndChar

StartChar: uni0306
Encoding: 774 774 206
Width: 1233
VWidth: 2048
GlyphClass: 2
Flags: W
LayerCount: 2
Fore
SplineSet
303 1608 m 1,0,-1
 422 1608 l 1,1,2
 432 1533 432 1533 481 1495 c 0,3,4
 528 1458 528 1458 616 1458 c 0,5,6
 702 1458 702 1458 749 1495 c 0,7,8
 798 1533 798 1533 811 1608 c 1,9,-1
 930 1608 l 1,10,11
 919 1465 919 1465 840 1393 c 0,12,13
 760 1321 760 1321 616 1321 c 128,-1,14
 472 1321 472 1321 393 1393 c 128,-1,15
 314 1465 314 1465 303 1608 c 1,0,-1
EndSplineSet
EndChar

StartChar: uni0307
Encoding: 775 775 207
Width: 1233
VWidth: 2048
GlyphClass: 2
Flags: W
LayerCount: 2
Fore
SplineSet
513 1552 m 1,0,-1
 718 1552 l 1,1,-1
 718 1348 l 1,2,-1
 513 1348 l 1,3,-1
 513 1552 l 1,0,-1
EndSplineSet
EndChar

StartChar: uni0308
Encoding: 776 776 208
Width: 1233
VWidth: 2048
GlyphClass: 2
Flags: W
LayerCount: 2
Fore
SplineSet
319 1552 m 1,0,-1
 522 1552 l 1,1,-1
 522 1350 l 1,2,-1
 319 1350 l 1,3,-1
 319 1552 l 1,0,-1
711 1552 m 1,4,-1
 913 1552 l 1,5,-1
 913 1350 l 1,6,-1
 711 1350 l 1,7,-1
 711 1552 l 1,4,-1
EndSplineSet
EndChar

StartChar: hookabovecomb
Encoding: 777 777 209
Width: 1233
VWidth: 2048
GlyphClass: 2
Flags: W
LayerCount: 2
Fore
SplineSet
586 1734 m 0,0,1
 815 1734 815 1734 823 1564 c 0,2,3
 824 1561 824 1561 824 1554 c 0,4,5
 824 1489 824 1489 796 1454 c 0,6,7
 747 1387 747 1387 694 1354 c 1,8,-1
 694 1266 l 1,9,-1
 546 1266 l 1,10,-1
 546 1374 l 1,11,12
 613 1396 613 1396 662 1444 c 0,13,14
 684 1463 684 1463 684 1517 c 0,15,16
 684 1611 684 1611 564 1611 c 0,17,18
 476 1611 476 1611 410 1579 c 1,19,-1
 410 1710 l 1,20,21
 496 1734 496 1734 586 1734 c 0,0,1
EndSplineSet
EndChar

StartChar: uni030A
Encoding: 778 778 210
Width: 1233
VWidth: 2048
GlyphClass: 2
Flags: W
LayerCount: 2
Fore
SplineSet
891 1524 m 0,0,1
 891 1410 891 1410 812 1329 c 0,2,3
 730 1249 730 1249 616 1249 c 0,4,5
 500 1249 500 1249 422 1329 c 0,6,7
 342 1408 342 1408 342 1524 c 0,8,9
 342 1641 342 1641 422 1718 c 1,10,11
 499 1798 499 1798 616 1798 c 0,12,13
 732 1798 732 1798 812 1718 c 0,14,15
 891 1639 891 1639 891 1524 c 0,0,1
768 1524 m 0,16,17
 768 1587 768 1587 724 1631 c 128,-1,18
 680 1675 680 1675 616 1675 c 0,19,20
 554 1675 554 1675 508 1632 c 1,21,22
 465 1586 465 1586 465 1524 c 0,23,24
 465 1459 465 1459 508 1416 c 0,25,26
 552 1372 552 1372 616 1372 c 128,-1,27
 680 1372 680 1372 724 1416 c 128,-1,28
 768 1460 768 1460 768 1524 c 0,16,17
EndSplineSet
EndChar

StartChar: uni030B
Encoding: 779 779 211
Width: 1233
VWidth: 2048
GlyphClass: 2
Flags: W
LayerCount: 2
Fore
SplineSet
535 1638 m 1,0,-1
 705 1638 l 1,1,-1
 481 1262 l 1,2,-1
 344 1262 l 1,3,-1
 535 1638 l 1,0,-1
868 1638 m 1,4,-1
 1047 1638 l 1,5,-1
 799 1262 l 1,6,-1
 664 1262 l 1,7,-1
 868 1638 l 1,4,-1
EndSplineSet
EndChar

StartChar: uni030C
Encoding: 780 780 212
Width: 1233
VWidth: 2048
GlyphClass: 2
Flags: W
LayerCount: 2
Fore
SplineSet
543 1262 m 1,0,-1
 297 1638 l 1,1,-1
 436 1638 l 1,2,-1
 616 1393 l 1,3,-1
 797 1638 l 1,4,-1
 936 1638 l 1,5,-1
 690 1262 l 1,6,-1
 543 1262 l 1,0,-1
EndSplineSet
EndChar

StartChar: uni030D
Encoding: 781 781 213
Width: 1233
VWidth: 2048
GlyphClass: 2
Flags: W
LayerCount: 2
Fore
SplineSet
682 1706 m 1,0,-1
 682 1262 l 1,1,-1
 546 1262 l 1,2,-1
 546 1706 l 1,3,-1
 682 1706 l 1,0,-1
EndSplineSet
EndChar

StartChar: uni030E
Encoding: 782 782 214
Width: 1233
VWidth: 2048
GlyphClass: 2
Flags: W
LayerCount: 2
Fore
SplineSet
886 1706 m 1,0,-1
 886 1262 l 1,1,-1
 750 1262 l 1,2,-1
 750 1706 l 1,3,-1
 886 1706 l 1,0,-1
478 1706 m 1,4,-1
 478 1262 l 1,5,-1
 342 1262 l 1,6,-1
 342 1706 l 1,7,-1
 478 1706 l 1,4,-1
EndSplineSet
EndChar

StartChar: uni030F
Encoding: 783 783 215
Width: 1233
VWidth: 2048
GlyphClass: 2
Flags: W
LayerCount: 2
Fore
SplineSet
388 1638 m 1,0,-1
 593 1262 l 1,1,-1
 458 1262 l 1,2,-1
 210 1638 l 1,3,-1
 388 1638 l 1,0,-1
722 1638 m 1,4,-1
 912 1262 l 1,5,-1
 775 1262 l 1,6,-1
 552 1638 l 1,7,-1
 722 1638 l 1,4,-1
EndSplineSet
EndChar

StartChar: uni0310
Encoding: 784 784 216
Width: 1233
VWidth: 2048
GlyphClass: 2
Flags: W
LayerCount: 2
Fore
SplineSet
513 1756 m 1,0,-1
 718 1756 l 1,1,-1
 718 1552 l 1,2,-1
 513 1552 l 1,3,-1
 513 1756 l 1,0,-1
303 1608 m 1,4,-1
 422 1608 l 1,5,6
 432 1533 432 1533 481 1495 c 0,7,8
 528 1458 528 1458 616 1458 c 0,9,10
 702 1458 702 1458 749 1495 c 0,11,12
 798 1533 798 1533 811 1608 c 1,13,-1
 930 1608 l 1,14,15
 919 1465 919 1465 840 1393 c 0,16,17
 760 1321 760 1321 616 1321 c 128,-1,18
 472 1321 472 1321 393 1393 c 128,-1,19
 314 1465 314 1465 303 1608 c 1,4,-1
EndSplineSet
EndChar

StartChar: uni0311
Encoding: 785 785 217
Width: 1233
VWidth: 2048
GlyphClass: 2
Flags: W
LayerCount: 2
Fore
SplineSet
303 1321 m 1,0,1
 314 1464 314 1464 393 1536 c 128,-1,2
 472 1608 472 1608 616 1608 c 128,-1,3
 760 1608 760 1608 840 1536 c 0,4,5
 919 1464 919 1464 930 1321 c 1,6,-1
 811 1321 l 1,7,8
 798 1396 798 1396 749 1434 c 0,9,10
 702 1471 702 1471 616 1471 c 0,11,12
 528 1471 528 1471 481 1434 c 0,13,14
 432 1396 432 1396 422 1321 c 1,15,-1
 303 1321 l 1,0,1
EndSplineSet
EndChar

StartChar: uni0312
Encoding: 786 786 218
Width: 1233
VWidth: 2048
GlyphClass: 2
Flags: W
LayerCount: 2
Fore
SplineSet
708 967 m 1,0,-1
 469 967 l 1,1,-1
 656 1312 l 1,2,-1
 802 1312 l 1,3,-1
 708 967 l 1,0,-1
EndSplineSet
EndChar

StartChar: uni0313
Encoding: 787 787 219
Width: 1233
VWidth: 2048
GlyphClass: 2
Flags: W
LayerCount: 2
Fore
SplineSet
737 1475 m 2,0,1
 737 1218 737 1218 496 1218 c 1,2,-1
 496 1341 l 1,3,4
 608 1338 608 1338 608 1475 c 1,5,-1
 496 1475 l 1,6,-1
 496 1729 l 1,7,-1
 737 1729 l 1,8,-1
 737 1475 l 2,0,1
EndSplineSet
EndChar

StartChar: uni0314
Encoding: 788 788 220
Width: 1233
VWidth: 2048
GlyphClass: 2
Flags: W
LayerCount: 2
Fore
SplineSet
496 1475 m 2,0,-1
 496 1729 l 1,1,-1
 737 1729 l 1,2,-1
 737 1475 l 1,3,-1
 625 1475 l 1,4,5
 625 1341 625 1341 737 1341 c 1,6,-1
 737 1218 l 1,7,8
 496 1218 496 1218 496 1475 c 2,0,-1
EndSplineSet
EndChar

StartChar: uni0315
Encoding: 789 789 221
Width: 1233
VWidth: 2048
GlyphClass: 2
Flags: W
LayerCount: 2
Fore
SplineSet
544 1638 m 1,0,-1
 742 1638 l 1,1,-1
 629 1262 l 1,2,-1
 475 1262 l 1,3,-1
 544 1638 l 1,0,-1
EndSplineSet
EndChar

StartChar: uni0316
Encoding: 790 790 222
Width: 1233
VWidth: 2048
GlyphClass: 2
Flags: W
LayerCount: 2
Fore
SplineSet
575 -208 m 1,0,-1
 856 -584 l 1,1,-1
 702 -584 l 1,2,-1
 377 -208 l 1,3,-1
 575 -208 l 1,0,-1
EndSplineSet
EndChar

StartChar: uni0317
Encoding: 791 791 223
Width: 1233
VWidth: 2048
GlyphClass: 2
Flags: W
LayerCount: 2
Fore
SplineSet
658 -208 m 1,0,-1
 856 -208 l 1,1,-1
 531 -584 l 1,2,-1
 377 -584 l 1,3,-1
 658 -208 l 1,0,-1
EndSplineSet
EndChar

StartChar: uni0318
Encoding: 792 792 224
Width: 1233
VWidth: 2048
GlyphClass: 2
Flags: W
LayerCount: 2
Fore
SplineSet
588 -454 m 1,0,-1
 588 -277 l 1,1,-1
 724 -277 l 1,2,-1
 724 -767 l 1,3,-1
 588 -767 l 1,4,-1
 588 -590 l 1,5,-1
 412 -590 l 1,6,-1
 412 -454 l 1,7,-1
 588 -454 l 1,0,-1
EndSplineSet
EndChar

StartChar: uni0319
Encoding: 793 793 225
Width: 1233
VWidth: 2048
GlyphClass: 2
Flags: W
LayerCount: 2
Fore
SplineSet
596 -590 m 1,0,-1
 596 -767 l 1,1,-1
 460 -767 l 1,2,-1
 460 -277 l 1,3,-1
 596 -277 l 1,4,-1
 596 -454 l 1,5,-1
 772 -454 l 1,6,-1
 772 -590 l 1,7,-1
 596 -590 l 1,0,-1
EndSplineSet
EndChar

StartChar: uni031A
Encoding: 794 794 226
Width: 1233
VWidth: 2048
GlyphClass: 2
Flags: W
LayerCount: 2
Fore
SplineSet
726 1768 m 1,0,-1
 372 1768 l 1,1,-1
 372 1904 l 1,2,-1
 862 1904 l 1,3,-1
 862 1414 l 1,4,-1
 726 1414 l 1,5,-1
 726 1768 l 1,0,-1
EndSplineSet
EndChar

StartChar: uni031B
Encoding: 795 795 227
Width: 1233
VWidth: 2048
GlyphClass: 2
Flags: W
LayerCount: 2
Fore
SplineSet
419 872 m 1,0,-1
 419 991 l 1,1,2
 478 948 478 948 524 924 c 0,3,4
 568 903 568 903 599 903 c 0,5,6
 646 903 646 903 668 930 c 0,7,8
 691 959 691 959 691 1012 c 0,9,10
 691 1038 691 1038 684 1075 c 0,11,12
 674 1109 674 1109 661 1137 c 1,13,-1
 794 1137 l 1,14,15
 804 1100 804 1100 809 1065 c 0,16,17
 814 1027 814 1027 814 1001 c 0,18,19
 814 878 814 878 770 822 c 0,20,21
 728 764 728 764 634 764 c 0,22,23
 586 764 586 764 534 790 c 0,24,25
 480 817 480 817 419 872 c 1,0,-1
EndSplineSet
EndChar

StartChar: uni031C
Encoding: 796 796 228
Width: 1233
VWidth: 2048
GlyphClass: 2
Flags: W
LayerCount: 2
Fore
SplineSet
726 -404 m 1,0,-1
 726 -502 l 1,1,2
 633 -502 633 -502 570 -438 c 0,3,4
 506 -374 506 -374 506 -282 c 128,-1,5
 506 -190 506 -190 570 -126 c 0,6,7
 633 -63 633 -63 726 -63 c 1,8,-1
 726 -161 l 1,9,10
 675 -161 675 -161 640 -196 c 0,11,12
 604 -232 604 -232 604 -282 c 0,13,14
 604 -334 604 -334 640 -368 c 0,15,16
 674 -404 674 -404 726 -404 c 1,0,-1
EndSplineSet
EndChar

StartChar: uni031D
Encoding: 797 797 229
Width: 1233
VWidth: 2048
GlyphClass: 2
Flags: W
LayerCount: 2
Fore
SplineSet
667 -454 m 1,0,-1
 844 -454 l 1,1,-1
 844 -590 l 1,2,-1
 354 -590 l 1,3,-1
 354 -454 l 1,4,-1
 531 -454 l 1,5,-1
 531 -277 l 1,6,-1
 667 -277 l 1,7,-1
 667 -454 l 1,0,-1
EndSplineSet
EndChar

StartChar: uni031E
Encoding: 798 798 230
Width: 1233
VWidth: 2048
GlyphClass: 2
Flags: W
LayerCount: 2
Fore
SplineSet
527 -413 m 1,0,-1
 350 -413 l 1,1,-1
 350 -277 l 1,2,-1
 840 -277 l 1,3,-1
 840 -413 l 1,4,-1
 663 -413 l 1,5,-1
 663 -590 l 1,6,-1
 527 -590 l 1,7,-1
 527 -413 l 1,0,-1
EndSplineSet
EndChar

StartChar: uni031F
Encoding: 799 799 231
Width: 1233
VWidth: 2048
GlyphClass: 2
Flags: W
LayerCount: 2
Fore
SplineSet
528 -590 m 1,0,-1
 351 -590 l 1,1,-1
 351 -454 l 1,2,-1
 528 -454 l 1,3,-1
 528 -277 l 1,4,-1
 664 -277 l 1,5,-1
 664 -454 l 1,6,-1
 841 -454 l 1,7,-1
 841 -590 l 1,8,-1
 664 -590 l 1,9,-1
 664 -767 l 1,10,-1
 528 -767 l 1,11,-1
 528 -590 l 1,0,-1
EndSplineSet
EndChar

StartChar: uni0320
Encoding: 800 800 232
Width: 1233
VWidth: 2048
GlyphClass: 2
Flags: W
LayerCount: 2
Fore
SplineSet
372 -413 m 1,0,-1
 372 -277 l 1,1,-1
 862 -277 l 1,2,-1
 862 -413 l 1,3,-1
 372 -413 l 1,0,-1
EndSplineSet
EndChar

StartChar: uni0321
Encoding: 801 801 233
Width: 1233
VWidth: 2048
GlyphClass: 2
Flags: W
LayerCount: 2
Fore
SplineSet
1051 128 m 1,0,-1
 1051 -20 l 2,1,2
 1051 -214 1051 -214 962 -320 c 0,3,4
 872 -426 872 -426 707 -426 c 2,5,-1
 502 -426 l 1,6,-1
 502 -270 l 1,7,-1
 687 -270 l 2,8,9
 777 -270 777 -270 822 -208 c 0,10,11
 866 -146 866 -146 866 -20 c 2,12,-1
 866 128 l 1,13,-1
 1051 128 l 1,0,-1
EndSplineSet
EndChar

StartChar: uni0322
Encoding: 802 802 234
Width: 1233
VWidth: 2048
GlyphClass: 2
Flags: W
LayerCount: 2
Fore
SplineSet
182 128 m 1,0,-1
 367 128 l 1,1,-1
 367 -20 l 2,2,3
 367 -146 367 -146 411 -208 c 0,4,5
 456 -270 456 -270 546 -270 c 2,6,-1
 731 -270 l 1,7,-1
 731 -426 l 1,8,-1
 526 -426 l 2,9,10
 361 -426 361 -426 271 -320 c 0,11,12
 182 -214 182 -214 182 -20 c 2,13,-1
 182 128 l 1,0,-1
EndSplineSet
EndChar

StartChar: dotbelowcomb
Encoding: 803 803 235
Width: 1233
VWidth: 2048
GlyphClass: 2
Flags: W
LayerCount: 2
Fore
SplineSet
513 -209 m 1,0,-1
 718 -209 l 1,1,-1
 718 -413 l 1,2,-1
 513 -413 l 1,3,-1
 513 -209 l 1,0,-1
EndSplineSet
EndChar

StartChar: uni0324
Encoding: 804 804 236
Width: 1233
VWidth: 2048
GlyphClass: 2
Flags: W
LayerCount: 2
Fore
SplineSet
320 -210 m 1,0,-1
 522 -210 l 1,1,-1
 522 -412 l 1,2,-1
 320 -412 l 1,3,-1
 320 -210 l 1,0,-1
712 -210 m 1,4,-1
 914 -210 l 1,5,-1
 914 -412 l 1,6,-1
 712 -412 l 1,7,-1
 712 -210 l 1,4,-1
EndSplineSet
EndChar

StartChar: uni0325
Encoding: 805 805 237
Width: 1233
VWidth: 2048
GlyphClass: 2
Flags: W
LayerCount: 2
Fore
SplineSet
836 -282 m 128,-1,1
 836 -374 836 -374 772 -438 c 0,2,3
 709 -502 709 -502 616 -502 c 0,4,5
 524 -502 524 -502 460 -438 c 0,6,7
 397 -374 397 -374 397 -282 c 128,-1,8
 397 -190 397 -190 460 -126 c 0,9,10
 524 -63 524 -63 616 -63 c 0,11,12
 709 -63 709 -63 772 -126 c 0,13,0
 836 -190 836 -190 836 -282 c 128,-1,1
738 -282 m 0,14,15
 738 -232 738 -232 702 -196 c 0,16,17
 667 -161 667 -161 616 -161 c 128,-1,18
 565 -161 565 -161 530 -196 c 128,-1,19
 495 -231 495 -231 495 -282 c 0,20,21
 495 -334 495 -334 530 -369 c 128,-1,22
 565 -404 565 -404 616 -404 c 0,23,24
 668 -404 668 -404 702 -368 c 0,25,26
 738 -334 738 -334 738 -282 c 0,14,15
EndSplineSet
EndChar

StartChar: uni0326
Encoding: 806 806 238
Width: 1233
VWidth: 2048
GlyphClass: 2
Flags: W
LayerCount: 2
Fore
SplineSet
502 -197 m 1,0,-1
 741 -197 l 1,1,-1
 554 -542 l 1,2,-1
 408 -542 l 1,3,-1
 502 -197 l 1,0,-1
EndSplineSet
EndChar

StartChar: uni0327
Encoding: 807 807 239
Width: 1233
VWidth: 2048
GlyphClass: 2
Flags: W
LayerCount: 2
Fore
SplineSet
700 0 m 1,0,1
 756 -62 756 -62 782 -114 c 0,2,3
 809 -168 809 -168 809 -215 c 0,4,5
 809 -304 809 -304 749 -350 c 0,6,7
 689 -395 689 -395 571 -395 c 0,8,9
 527 -395 527 -395 482 -389 c 128,-1,10
 437 -383 437 -383 395 -371 c 1,11,-1
 395 -240 l 1,12,13
 434 -259 434 -259 466 -264 c 0,14,15
 501 -272 501 -272 551 -272 c 0,16,17
 608 -272 608 -272 640 -248 c 0,18,19
 670 -224 670 -224 670 -178 c 0,20,21
 670 -148 670 -148 648 -104 c 0,22,23
 624 -60 624 -60 582 0 c 1,24,-1
 700 0 l 1,0,1
EndSplineSet
EndChar

StartChar: uni0328
Encoding: 808 808 240
Width: 1233
VWidth: 2048
GlyphClass: 2
Flags: W
LayerCount: 2
Fore
SplineSet
538 0 m 1,0,-1
 657 0 l 1,1,2
 614 -59 614 -59 590 -105 c 0,3,4
 569 -148 569 -148 569 -180 c 0,5,6
 569 -226 569 -226 596 -249 c 0,7,8
 625 -272 625 -272 678 -272 c 0,9,10
 713 -272 713 -272 741 -264 c 0,11,12
 767 -259 767 -259 803 -242 c 1,13,-1
 803 -375 l 1,14,15
 766 -386 766 -386 731 -390 c 0,16,17
 693 -395 693 -395 667 -395 c 0,18,19
 546 -395 546 -395 488 -352 c 0,20,21
 430 -307 430 -307 430 -215 c 0,22,23
 430 -169 430 -169 456 -114 c 0,24,25
 486 -58 486 -58 538 0 c 1,0,-1
EndSplineSet
EndChar

StartChar: uni0329
Encoding: 809 809 241
Width: 1233
VWidth: 2048
GlyphClass: 2
Flags: W
LayerCount: 2
Fore
SplineSet
684 -209 m 1,0,-1
 684 -653 l 1,1,-1
 548 -653 l 1,2,-1
 548 -209 l 1,3,-1
 684 -209 l 1,0,-1
EndSplineSet
EndChar

StartChar: uni032A
Encoding: 810 810 242
Width: 1233
VWidth: 2048
GlyphClass: 2
Flags: W
LayerCount: 2
Fore
SplineSet
892 -209 m 1,0,-1
 892 -539 l 1,1,-1
 755 -539 l 1,2,-1
 755 -345 l 1,3,-1
 478 -345 l 1,4,-1
 478 -539 l 1,5,-1
 341 -539 l 1,6,-1
 341 -209 l 1,7,-1
 892 -209 l 1,0,-1
EndSplineSet
EndChar

StartChar: uni032B
Encoding: 811 811 243
Width: 1233
VWidth: 2048
GlyphClass: 2
Flags: W
LayerCount: 2
Fore
SplineSet
616 -373 m 1,0,1
 558 -455 558 -455 441 -455 c 0,2,3
 222 -455 222 -455 206 -173 c 1,4,-1
 206 -168 l 1,5,-1
 324 -168 l 1,6,7
 338 -318 338 -318 440 -318 c 128,-1,8
 542 -318 542 -318 558 -168 c 1,9,-1
 676 -168 l 1,10,11
 686 -316 686 -316 792 -318 c 0,12,13
 894 -318 894 -318 909 -168 c 1,14,-1
 1027 -168 l 1,15,16
 1012 -454 1012 -454 792 -455 c 0,17,18
 676 -455 676 -455 616 -373 c 1,0,1
EndSplineSet
EndChar

StartChar: uni032C
Encoding: 812 812 244
Width: 1233
VWidth: 2048
GlyphClass: 2
Flags: W
LayerCount: 2
Fore
SplineSet
543 -485 m 1,0,-1
 297 -109 l 1,1,-1
 436 -109 l 1,2,-1
 616 -354 l 1,3,-1
 797 -109 l 1,4,-1
 936 -109 l 1,5,-1
 690 -485 l 1,6,-1
 543 -485 l 1,0,-1
EndSplineSet
EndChar

StartChar: uni032D
Encoding: 813 813 245
Width: 1233
VWidth: 2048
GlyphClass: 2
Flags: W
LayerCount: 2
Fore
SplineSet
543 -109 m 1,0,-1
 690 -109 l 1,1,-1
 936 -485 l 1,2,-1
 797 -485 l 1,3,-1
 616 -240 l 1,4,-1
 436 -485 l 1,5,-1
 297 -485 l 1,6,-1
 543 -109 l 1,0,-1
EndSplineSet
EndChar

StartChar: uni032E
Encoding: 814 814 246
Width: 1233
VWidth: 2048
GlyphClass: 2
Flags: W
LayerCount: 2
Fore
SplineSet
303 -200 m 1,0,-1
 422 -200 l 1,1,2
 432 -275 432 -275 481 -313 c 0,3,4
 528 -350 528 -350 616 -350 c 0,5,6
 702 -350 702 -350 749 -313 c 0,7,8
 798 -275 798 -275 811 -200 c 1,9,-1
 930 -200 l 1,10,11
 919 -343 919 -343 840 -415 c 0,12,13
 760 -487 760 -487 616 -487 c 128,-1,14
 472 -487 472 -487 393 -415 c 128,-1,15
 314 -343 314 -343 303 -200 c 1,0,-1
EndSplineSet
EndChar

StartChar: uni032F
Encoding: 815 815 247
Width: 1233
VWidth: 2048
GlyphClass: 2
Flags: W
LayerCount: 2
Fore
SplineSet
930 -485 m 1,0,-1
 811 -485 l 1,1,2
 801 -410 801 -410 752 -372 c 0,3,4
 705 -335 705 -335 617 -335 c 0,5,6
 531 -335 531 -335 484 -372 c 0,7,8
 435 -410 435 -410 422 -485 c 1,9,-1
 303 -485 l 1,10,11
 314 -342 314 -342 393 -270 c 128,-1,12
 472 -198 472 -198 617 -198 c 0,13,14
 760 -198 760 -198 840 -270 c 0,15,16
 919 -342 919 -342 930 -485 c 1,0,-1
EndSplineSet
EndChar

StartChar: uni0330
Encoding: 816 816 248
Width: 1233
VWidth: 2048
GlyphClass: 2
Flags: W
LayerCount: 2
Fore
SplineSet
612 -424 m 2,0,-1
 555 -369 l 2,1,2
 534 -350 534 -350 518 -340 c 0,3,4
 501 -330 501 -330 487 -330 c 0,5,6
 449 -330 449 -330 431 -367 c 0,7,8
 412 -406 412 -406 411 -485 c 1,9,-1
 287 -485 l 1,10,11
 289 -350 289 -350 339 -277 c 0,12,13
 390 -203 390 -203 481 -203 c 0,14,15
 519 -203 519 -203 552 -217 c 0,16,17
 582 -230 582 -230 621 -264 c 2,18,-1
 678 -319 l 2,19,20
 701 -341 701 -341 716 -348 c 0,21,22
 730 -358 730 -358 745 -358 c 0,23,24
 784 -358 784 -358 802 -321 c 0,25,26
 819 -285 819 -285 821 -203 c 1,27,-1
 946 -203 l 1,28,29
 944 -338 944 -338 894 -411 c 0,30,31
 843 -485 843 -485 752 -485 c 0,32,33
 714 -485 714 -485 681 -471 c 0,34,35
 651 -458 651 -458 612 -424 c 2,0,-1
EndSplineSet
EndChar

StartChar: uni0331
Encoding: 817 817 249
Width: 1233
VWidth: 2048
GlyphClass: 2
Flags: W
LayerCount: 2
Fore
SplineSet
318 -209 m 1,0,-1
 916 -209 l 1,1,-1
 916 -357 l 1,2,-1
 318 -357 l 1,3,-1
 318 -209 l 1,0,-1
EndSplineSet
EndChar

StartChar: uni0332
Encoding: 818 818 250
Width: 1233
VWidth: 2048
GlyphClass: 2
Flags: W
LayerCount: 2
Fore
SplineSet
1233 -403 m 1,0,-1
 1233 -483 l 1,1,-1
 0 -483 l 1,2,-1
 0 -403 l 1,3,-1
 1233 -403 l 1,0,-1
EndSplineSet
EndChar

StartChar: uni0333
Encoding: 819 819 251
Width: 1233
VWidth: 2048
GlyphClass: 2
Flags: W
LayerCount: 2
Fore
SplineSet
1233 -403 m 1,0,-1
 1233 -483 l 1,1,-1
 0 -483 l 1,2,-1
 0 -403 l 1,3,-1
 1233 -403 l 1,0,-1
1233 -163 m 1,4,-1
 1233 -243 l 1,5,-1
 0 -243 l 1,6,-1
 0 -163 l 1,7,-1
 1233 -163 l 1,4,-1
EndSplineSet
EndChar

StartChar: uni0334
Encoding: 820 820 252
Width: 1233
VWidth: 2048
GlyphClass: 2
Flags: W
LayerCount: 2
Fore
SplineSet
1145 780 m 1,0,-1
 1145 606 l 1,1,2
 1069 547 1069 547 998 520 c 0,3,4
 929 492 929 492 848 492 c 0,5,6
 758 492 758 492 645 543 c 0,7,8
 638 546 638 546 631.5 549 c 128,-1,9
 625 552 625 552 619.5 554 c 128,-1,10
 614 556 614 556 612 557 c 0,11,12
 536 590 536 590 484 602 c 0,13,14
 431 614 431 614 381 614 c 0,15,16
 301 614 301 614 232 584 c 0,17,18
 164 557 164 557 88 492 c 1,19,-1
 88 666 l 1,20,21
 166 726 166 726 239 753 c 256,22,23
 312 780 312 780 395 780 c 0,24,25
 446 780 446 780 498 769 c 0,26,27
 549 758 549 758 622 727 c 0,28,29
 634 722 634 722 655 712 c 0,30,31
 769 657 769 657 864 657 c 0,32,33
 936 657 936 657 1002 688 c 0,34,35
 1071 718 1071 718 1145 780 c 1,0,-1
EndSplineSet
EndChar

StartChar: uni0335
Encoding: 821 821 253
Width: 1233
VWidth: 2048
GlyphClass: 2
Flags: W
LayerCount: 2
Fore
SplineSet
1062 616 m 1,0,-1
 1062 452 l 1,1,-1
 142 452 l 1,2,-1
 142 616 l 1,3,-1
 1062 616 l 1,0,-1
EndSplineSet
EndChar

StartChar: uni0336
Encoding: 822 822 254
Width: 1233
VWidth: 2048
GlyphClass: 2
Flags: W
LayerCount: 2
Fore
SplineSet
0 452 m 1,0,-1
 0 616 l 1,1,-1
 1233 616 l 1,2,-1
 1233 452 l 1,3,-1
 0 452 l 1,0,-1
EndSplineSet
EndChar

StartChar: uni0337
Encoding: 823 823 255
Width: 1233
VWidth: 2048
GlyphClass: 2
Flags: W
LayerCount: 2
Fore
SplineSet
139 -96 m 1,0,-1
 47 -20 l 1,1,-1
 1081 1212 l 1,2,-1
 1174 1135 l 1,3,-1
 139 -96 l 1,0,-1
EndSplineSet
EndChar

StartChar: uni0338
Encoding: 824 824 256
Width: 1233
VWidth: 2048
GlyphClass: 2
Flags: W
LayerCount: 2
Fore
SplineSet
111 -70 m 1,0,-1
 8 0 l 1,1,-1
 1100 1559 l 1,2,-1
 1200 1485 l 1,3,-1
 111 -70 l 1,0,-1
EndSplineSet
EndChar

StartChar: uni0339
Encoding: 825 825 257
Width: 1233
VWidth: 2048
GlyphClass: 2
Flags: W
LayerCount: 2
Fore
SplineSet
506 -404 m 1,0,1
 558 -404 558 -404 592 -368 c 0,2,3
 628 -334 628 -334 628 -282 c 0,4,5
 628 -232 628 -232 592 -196 c 0,6,7
 557 -161 557 -161 506 -161 c 1,8,-1
 506 -63 l 1,9,10
 599 -63 599 -63 662 -126 c 0,11,12
 726 -190 726 -190 726 -282 c 128,-1,13
 726 -374 726 -374 662 -438 c 0,14,15
 599 -502 599 -502 506 -502 c 1,16,-1
 506 -404 l 1,0,1
EndSplineSet
EndChar

StartChar: uni033A
Encoding: 826 826 258
Width: 1233
VWidth: 2048
GlyphClass: 2
Flags: W
LayerCount: 2
Fore
SplineSet
341 -384 m 1,0,-1
 341 -54 l 1,1,-1
 478 -54 l 1,2,-1
 478 -248 l 1,3,-1
 755 -248 l 1,4,-1
 755 -54 l 1,5,-1
 892 -54 l 1,6,-1
 892 -384 l 1,7,-1
 341 -384 l 1,0,-1
EndSplineSet
EndChar

StartChar: uni033B
Encoding: 827 827 259
Width: 1233
VWidth: 2048
GlyphClass: 2
Flags: W
LayerCount: 2
Fore
SplineSet
892 -209 m 1,0,-1
 892 -759 l 1,1,-1
 341 -759 l 1,2,-1
 341 -209 l 1,3,-1
 892 -209 l 1,0,-1
755 -623 m 1,4,-1
 755 -345 l 1,5,-1
 478 -345 l 1,6,-1
 478 -623 l 1,7,-1
 755 -623 l 1,4,-1
EndSplineSet
EndChar

StartChar: uni033C
Encoding: 828 828 260
Width: 1233
VWidth: 2048
GlyphClass: 2
Flags: W
LayerCount: 2
Fore
SplineSet
616 -250 m 1,0,1
 676 -168 676 -168 792 -168 c 0,2,3
 1010 -168 1010 -168 1027 -450 c 1,4,-1
 1027 -455 l 1,5,-1
 910 -455 l 1,6,7
 896 -305 896 -305 792 -305 c 0,8,9
 691 -305 691 -305 676 -455 c 1,10,-1
 558 -455 l 1,11,12
 546 -306 546 -306 441 -305 c 0,13,14
 339 -305 339 -305 324 -455 c 1,15,-1
 206 -455 l 1,16,17
 221 -169 221 -169 441 -168 c 0,18,19
 558 -168 558 -168 616 -250 c 1,0,1
EndSplineSet
EndChar

StartChar: uni033D
Encoding: 829 829 261
Width: 1233
VWidth: 2048
GlyphClass: 2
Flags: W
LayerCount: 2
Fore
SplineSet
616 1353 m 1,0,-1
 491 1228 l 1,1,-1
 395 1324 l 1,2,-1
 520 1449 l 1,3,-1
 395 1574 l 1,4,-1
 491 1671 l 1,5,-1
 616 1545 l 1,6,-1
 742 1671 l 1,7,-1
 838 1574 l 1,8,-1
 713 1449 l 1,9,-1
 838 1324 l 1,10,-1
 742 1228 l 1,11,-1
 616 1353 l 1,0,-1
EndSplineSet
EndChar

StartChar: uni033E
Encoding: 830 830 262
Width: 1233
VWidth: 2048
GlyphClass: 2
Flags: W
LayerCount: 2
Fore
SplineSet
536 1479 m 2,0,1
 502 1510 502 1510 490 1531 c 0,2,3
 476 1556 476 1556 476 1583 c 0,4,5
 476 1662 476 1662 549 1704 c 0,6,7
 625 1745 625 1745 758 1746 c 1,8,-1
 758 1636 l 1,9,10
 675 1634 675 1634 639 1620 c 0,11,12
 602 1608 602 1608 602 1579 c 0,13,14
 602 1568 602 1568 612 1557 c 0,15,16
 623 1541 623 1541 642 1528 c 2,17,-1
 696 1485 l 2,18,19
 731 1456 731 1456 744 1433 c 0,20,21
 758 1408 758 1408 758 1381 c 0,22,23
 758 1302 758 1302 684 1260 c 0,24,25
 608 1219 608 1219 476 1218 c 1,26,-1
 476 1328 l 1,27,28
 559 1330 559 1330 594 1344 c 0,29,30
 630 1356 630 1356 630 1385 c 0,31,32
 630 1395 630 1395 621 1407 c 0,33,34
 610 1422 610 1422 592 1436 c 2,35,-1
 536 1479 l 2,0,1
EndSplineSet
EndChar

StartChar: uni033F
Encoding: 831 831 263
Width: 1233
VWidth: 2048
GlyphClass: 2
Flags: W
LayerCount: 2
Fore
SplineSet
1233 1547 m 1,0,-1
 1233 1467 l 1,1,-1
 0 1467 l 1,2,-1
 0 1547 l 1,3,-1
 1233 1547 l 1,0,-1
1233 1307 m 1,4,-1
 1233 1227 l 1,5,-1
 0 1227 l 1,6,-1
 0 1307 l 1,7,-1
 1233 1307 l 1,4,-1
EndSplineSet
EndChar

StartChar: uni0343
Encoding: 835 835 264
Width: 1233
VWidth: 2048
GlyphClass: 2
Flags: W
LayerCount: 2
Fore
SplineSet
737 1475 m 2,0,1
 737 1218 737 1218 496 1218 c 1,2,-1
 496 1341 l 1,3,4
 608 1338 608 1338 608 1475 c 1,5,-1
 496 1475 l 1,6,-1
 496 1729 l 1,7,-1
 737 1729 l 1,8,-1
 737 1475 l 2,0,1
EndSplineSet
EndChar

StartChar: uni0358
Encoding: 856 856 265
Width: 1233
VWidth: 2048
GlyphClass: 2
Flags: W
LayerCount: 2
Fore
SplineSet
1026 1552 m 1,0,-1
 1231 1552 l 1,1,-1
 1231 1348 l 1,2,-1
 1026 1348 l 1,3,-1
 1026 1552 l 1,0,-1
EndSplineSet
EndChar

StartChar: uni0361
Encoding: 865 865 266
Width: 1233
VWidth: 2048
GlyphClass: 2
Flags: W
LayerCount: 2
Fore
SplineSet
617 1710 m 0,0,1
 557 1710 557 1710 276 1685 c 0,2,3
 8 1663 8 1663 -118 1520 c 1,4,-1
 -236 1520 l 1,5,6
 -236 1760 -236 1760 272 1820 c 0,7,8
 500 1847 500 1847 616 1847 c 128,-1,9
 732 1847 732 1847 962 1820 c 0,10,11
 1470 1760 1470 1760 1470 1520 c 1,12,-1
 1352 1520 l 1,13,14
 1224 1662 1224 1662 956 1685 c 0,15,16
 678 1710 678 1710 617 1710 c 0,0,1
EndSplineSet
EndChar

StartChar: uni0374
Encoding: 884 884 267
Width: 1233
VWidth: 2048
GlyphClass: 2
Flags: W
LayerCount: 2
Fore
SplineSet
492 1140 m 1,0,-1
 557 1638 l 1,1,-1
 747 1638 l 1,2,-1
 637 1140 l 1,3,-1
 492 1140 l 1,0,-1
EndSplineSet
EndChar

StartChar: uni0375
Encoding: 885 885 268
Width: 1233
VWidth: 2048
GlyphClass: 2
Flags: W
LayerCount: 2
Fore
SplineSet
741 72 m 1,0,-1
 676 -426 l 1,1,-1
 486 -426 l 1,2,-1
 596 72 l 1,3,-1
 741 72 l 1,0,-1
EndSplineSet
EndChar

StartChar: uni037E
Encoding: 894 894 269
Width: 1233
VWidth: 2048
GlyphClass: 2
Flags: W
LayerCount: 2
Fore
SplineSet
502 303 m 1,0,-1
 754 303 l 1,1,-1
 754 96 l 1,2,-1
 557 -287 l 1,3,-1
 403 -287 l 1,4,-1
 502 96 l 1,5,-1
 502 303 l 1,0,-1
489 1063 m 1,6,-1
 741 1063 l 1,7,-1
 741 760 l 1,8,-1
 489 760 l 1,9,-1
 489 1063 l 1,6,-1
EndSplineSet
EndChar

StartChar: tonos
Encoding: 900 900 270
Width: 1233
VWidth: 2048
GlyphClass: 2
Flags: W
LayerCount: 2
Fore
SplineSet
756 1638 m 1,0,-1
 954 1638 l 1,1,-1
 629 1262 l 1,2,-1
 475 1262 l 1,3,-1
 756 1638 l 1,0,-1
EndSplineSet
EndChar

StartChar: dieresistonos
Encoding: 901 901 271
Width: 1233
VWidth: 2048
GlyphClass: 2
Flags: W
LayerCount: 2
Fore
SplineSet
319 1552 m 1,0,-1
 522 1552 l 1,1,-1
 522 1350 l 1,2,-1
 319 1350 l 1,3,-1
 319 1552 l 1,0,-1
711 1552 m 1,4,-1
 913 1552 l 1,5,-1
 913 1350 l 1,6,-1
 711 1350 l 1,7,-1
 711 1552 l 1,4,-1
756 2008 m 1,8,-1
 954 2008 l 1,9,-1
 629 1632 l 1,10,-1
 475 1632 l 1,11,-1
 756 2008 l 1,8,-1
EndSplineSet
EndChar

StartChar: anoteleia
Encoding: 903 903 272
Width: 1233
VWidth: 2048
GlyphClass: 2
Flags: W
LayerCount: 2
Fore
SplineSet
489 864 m 1,0,-1
 741 864 l 1,1,-1
 741 559 l 1,2,-1
 489 559 l 1,3,-1
 489 864 l 1,0,-1
EndSplineSet
EndChar

StartChar: uni0609
Encoding: 1545 1545 273
Width: 1233
VWidth: 2048
GlyphClass: 2
Flags: W
LayerCount: 2
Fore
SplineSet
963 250 m 1,0,-1
 1143 250 l 1,1,-1
 1143 0 l 1,2,-1
 963 0 l 1,3,-1
 963 250 l 1,0,-1
603 250 m 1,4,-1
 783 250 l 1,5,-1
 783 0 l 1,6,-1
 603 0 l 1,7,-1
 603 250 l 1,4,-1
104 1300 m 1,8,-1
 284 1300 l 1,9,-1
 284 1050 l 1,10,-1
 104 1050 l 1,11,-1
 104 1300 l 1,8,-1
764 1300 m 1,12,-1
 924 1300 l 1,13,-1
 250 0 l 1,14,-1
 90 0 l 1,15,-1
 764 1300 l 1,12,-1
EndSplineSet
EndChar

StartChar: uni060A
Encoding: 1546 1546 274
Width: 1233
VWidth: 2048
GlyphClass: 2
Flags: W
LayerCount: 2
Fore
SplineSet
1053 250 m 1,0,-1
 1233 250 l 1,1,-1
 1233 0 l 1,2,-1
 1053 0 l 1,3,-1
 1053 250 l 1,0,-1
723 250 m 1,4,-1
 903 250 l 1,5,-1
 903 0 l 1,6,-1
 723 0 l 1,7,-1
 723 250 l 1,4,-1
393 250 m 1,8,-1
 573 250 l 1,9,-1
 573 0 l 1,10,-1
 393 0 l 1,11,-1
 393 250 l 1,8,-1
14 1300 m 1,12,-1
 194 1300 l 1,13,-1
 194 1050 l 1,14,-1
 14 1050 l 1,15,-1
 14 1300 l 1,12,-1
474 1300 m 1,16,-1
 634 1300 l 1,17,-1
 160 0 l 1,18,-1
 0 0 l 1,19,-1
 474 1300 l 1,16,-1
EndSplineSet
EndChar

StartChar: quoteright
Encoding: 8217 8217 275
Width: 773
VWidth: 2048
GlyphClass: 2
Flags: W
LayerCount: 2
Fore
SplineSet
309 2756 m 1,0,-1
 561 2756 l 1,1,-1
 561 2550 l 1,2,-1
 365 2167 l 1,3,-1
 211 2167 l 1,4,-1
 309 2550 l 1,5,-1
 309 2756 l 1,0,-1
EndSplineSet
EndChar

StartChar: quotesinglbase
Encoding: 8218 8218 276
Width: 773
VWidth: 2048
GlyphClass: 2
Flags: W
LayerCount: 2
Fore
SplineSet
309 -254 m 1,0,-1
 561 -254 l 1,1,-1
 561 -460 l 1,2,-1
 365 -843 l 1,3,-1
 211 -843 l 1,4,-1
 309 -460 l 1,5,-1
 309 -254 l 1,0,-1
EndSplineSet
EndChar

StartChar: quotedblright
Encoding: 8221 8221 277
Width: 1233
VWidth: 2048
GlyphClass: 2
Flags: W
LayerCount: 2
Fore
SplineSet
768 2726 m 1,0,-1
 1020 2726 l 1,1,-1
 1020 2520 l 1,2,-1
 823 2137 l 1,3,-1
 670 2137 l 1,4,-1
 768 2520 l 1,5,-1
 768 2726 l 1,0,-1
309 2726 m 1,6,-1
 561 2726 l 1,7,-1
 561 2520 l 1,8,-1
 365 2137 l 1,9,-1
 211 2137 l 1,10,-1
 309 2520 l 1,11,-1
 309 2726 l 1,6,-1
EndSplineSet
EndChar

StartChar: quotedblbase
Encoding: 8222 8222 278
Width: 1233
VWidth: 2048
GlyphClass: 2
Flags: W
LayerCount: 2
Fore
SplineSet
768 -244 m 1,0,-1
 1020 -244 l 1,1,-1
 1020 -450 l 1,2,-1
 823 -833 l 1,3,-1
 670 -833 l 1,4,-1
 768 -450 l 1,5,-1
 768 -244 l 1,0,-1
309 -244 m 1,6,-1
 561 -244 l 1,7,-1
 561 -450 l 1,8,-1
 365 -833 l 1,9,-1
 211 -833 l 1,10,-1
 309 -450 l 1,11,-1
 309 -244 l 1,6,-1
EndSplineSet
EndChar

StartChar: dolTW
Encoding: 983041 983041 281
Width: 355
VWidth: 3070
GlyphClass: 2
Flags: W
LayerCount: 2
Fore
SplineSet
0 161 m 1,0,-1
 180 161 l 1,1,-1
 180 110 l 2,2,3
 180 63 180 63 215 63 c 0,4,5
 243 63 243 63 284 91.5 c 128,-1,6
 325 120 325 120 355 158 c 1,7,-1
 469 68 l 1,8,9
 381 -5 381 -5 323.5 -33 c 128,-1,10
 266 -61 266 -61 180 -61 c 0,11,12
 104 -61 104 -61 52 -18.5 c 128,-1,13
 0 24 0 24 0 92 c 2,14,-1
 0 161 l 1,0,-1
EndSplineSet
EndChar

StartChar: stemG
Encoding: 983042 983042 282
Width: 180
VWidth: 0
GlyphClass: 2
Flags: W
LayerCount: 2
Fore
SplineSet
0 1065 m 5,0,-1
 180 1065 l 5,1,-1
 180 157 l 1,2,-1
 0 155 l 1,3,-1
 0 1065 l 5,0,-1
EndSplineSet
EndChar

StartChar: brzuchD
Encoding: 983043 983043 283
Width: 181
VWidth: 3070
GlyphClass: 2
Flags: W
LayerCount: 2
Fore
SplineSet
180 750 m 1,0,-1
 0 752 l 1,1,-1
 3 1965 l 1,2,-1
 3 1966 l 1,3,4
 8 2052 8 2052 37 2115 c 0,5,6
 98 2249 98 2249 294 2249 c 0,7,8
 426 2249 426 2249 503 2165 c 128,-1,9
 580 2081 580 2081 580 1960 c 0,10,11
 580 1918 580 1918 573.5 1834 c 128,-1,12
 567 1750 567 1750 548 1624 c 128,-1,13
 529 1498 529 1498 501 1382 c 128,-1,14
 473 1266 473 1266 424 1164 c 128,-1,15
 375 1062 375 1062 315 1022 c 0,16,17
 293 1007 293 1007 271.5 987.5 c 128,-1,18
 250 968 250 968 224 942 c 128,-1,19
 198 916 198 916 189 907 c 2,20,-1
 180 900 l 1,21,-1
 180 750 l 1,0,-1
183 1149 m 1,22,-1
 263 1227 l 1,23,-1
 268 1230 l 1,24,-1
 271 1234 l 2,25,26
 311 1281 311 1281 355.5 1564.5 c 128,-1,27
 400 1848 400 1848 401 1958 c 0,28,29
 401 2068 401 2068 294 2068 c 0,30,31
 260 2067 260 2067 237.5 2058 c 128,-1,32
 215 2049 215 2049 203.5 2030 c 128,-1,33
 192 2011 192 2011 188.5 2000 c 128,-1,34
 185 1989 185 1989 180 1967 c 1,35,-1
 180 1958 l 2,36,37
 183 1892 183 1892 183 1422 c 2,38,-1
 183 1232 l 1,39,-1
 183 1149 l 1,22,-1
EndSplineSet
EndChar

StartChar: prostaA
Encoding: 983044 983044 284
Width: 847
VWidth: 0
GlyphClass: 2
Flags: W
LayerCount: 2
Fore
SplineSet
846 1092 m 1,0,-1
 953 1000 l 1,1,-1
 102 71 l 1,2,-1
 -1 150 l 1,3,-1
 846 1092 l 1,0,-1
EndSplineSet
EndChar

StartChar: prostaY
Encoding: 983045 983045 285
Width: 1498
VWidth: 0
GlyphClass: 2
Flags: W
LayerCount: 2
Fore
SplineSet
1489 2092 m 1,0,-1
 1596 2000 l 1,1,-1
 102 71 l 1,2,-1
 -1 150 l 1,3,-1
 1489 2092 l 1,0,-1
EndSplineSet
EndChar

StartChar: brzuchM
Encoding: 983046 983046 286
Width: 353
VWidth: 3070
GlyphClass: 2
Flags: W
LayerCount: 2
Fore
SplineSet
183 1083 m 1,0,-1
 263 1161 l 1,1,-1
 268 1164 l 1,2,-1
 271 1168 l 1,3,4
 400 1320 400 1320 401 1456 c 0,5,6
 401 1566 401 1566 294 1566 c 0,7,8
 260 1565 260 1565 237 1554.5 c 128,-1,9
 214 1544 214 1544 203 1523.5 c 128,-1,10
 192 1503 192 1503 188 1490.5 c 128,-1,11
 184 1478 184 1478 180 1456 c 1,12,13
 183 1390 183 1390 183 1288 c 2,14,-1
 183 1166 l 1,15,-1
 183 1083 l 1,0,-1
179 499 m 1,16,-1
 0 499 l 1,17,-1
 3 1463 l 1,18,-1
 3 1464 l 1,19,20
 8 1550 8 1550 37 1613 c 0,21,22
 98 1747 98 1747 294 1747 c 0,23,24
 426 1747 426 1747 503 1663 c 128,-1,25
 580 1579 580 1579 580 1458 c 0,26,27
 580 1411 580 1411 567.5 1352 c 128,-1,28
 555 1293 555 1293 528 1221 c 128,-1,29
 501 1149 501 1149 445.5 1077.5 c 128,-1,30
 390 1006 390 1006 315 956 c 0,31,32
 293 941 293 941 271.5 921.5 c 128,-1,33
 250 902 250 902 224 876 c 128,-1,34
 198 850 198 850 189 841 c 2,35,-1
 180 834 l 1,36,-1
 179 499 l 1,16,-1
EndSplineSet
EndChar

StartChar: dolMK
Encoding: 983047 983047 287
Width: 357
VWidth: 0
GlyphClass: 2
Flags: W
LayerCount: 2
Fore
SplineSet
0 188 m 1,0,-1
 180 187 l 1,1,-1
 179 0 l 1,2,-1
 358 157 l 1,3,-1
 472 68 l 1,4,-1
 0 -448 l 1,5,-1
 0 188 l 1,0,-1
EndSplineSet
EndChar

StartChar: o.alt
Encoding: 983048 983048 288
Width: 433
VWidth: 0
GlyphClass: 2
Flags: W
LayerCount: 2
Fore
SplineSet
-13.63671875 70 m 1,0,-1
 -119.63671875 79 l 1,1,2
 -108.63671875 220 -108.63671875 220 -64.63671875 354.5 c 128,-1,3
 -20.63671875 489 -20.63671875 489 37.86328125 593 c 128,-1,4
 96.36328125 697 96.36328125 697 175.36328125 795 c 128,-1,5
 254.36328125 893 254.36328125 893 324.86328125 960.5 c 128,-1,6
 395.36328125 1028 395.36328125 1028 473.36328125 1089 c 1,7,-1
 557.36328125 1009 l 1,8,9
 49.36328125 668 49.36328125 668 -13.63671875 70 c 1,0,-1
EndSplineSet
EndChar

StartChar: u.alt
Encoding: 983049 983049 289
Width: 526
VWidth: 0
GlyphClass: 2
Flags: W
LayerCount: 2
Fore
SplineSet
609.909179688 973 m 1,0,1
 556 973 556 973 524.909179688 972 c 1,2,3
 521 1058 521 1058 496.909179688 1096 c 128,-1,4
 473 1134 473 1134 426.909179688 1139 c 1,5,-1
 415.909179688 1139 l 2,6,7
 345 1139 345 1139 297.409179688 1049.5 c 0,8,9
 254 967 254 967 211.909179688 716.5 c 0,10,11
 154 379 154 379 96.9091796875 41 c 1,12,-1
 2.9091796875 44 l 1,13,14
 12 150 12 150 111.909179688 757 c 0,15,16
 157.537364898 1025.30522787 157.537364898 1025.30522787 234.909179688 1141.5 c 0,17,18
 312 1257 312 1257 428.909179688 1257 c 2,19,-1
 432.909179688 1257 l 2,20,21
 479 1257 479 1257 518.409179688 1226.5 c 0,22,23
 555 1198 555 1198 573.909179688 1153 c 128,-1,24
 593 1108 593 1108 601.409179688 1063 c 128,-1,25
 610 1018 610 1018 609.909179688 973 c 1,0,1
EndSplineSet
EndChar

StartChar: tj
Encoding: 983050 983050 290
Width: 176
VWidth: 0
GlyphClass: 2
Flags: W
LayerCount: 2
Fore
SplineSet
187 -66 m 1,0,1
 120 -289 120 -289 49.5 -435.5 c 128,-1,2
 -21 -582 -21 -582 -96.5 -667.5 c 128,-1,3
 -172 -753 -172 -753 -275 -813 c 0,4,5
 -288 -821 -288 -821 -301 -830 c 128,-1,6
 -314 -839 -314 -839 -319.5 -842.5 c 128,-1,7
 -325 -846 -325 -846 -334.5 -848.5 c 128,-1,8
 -344 -851 -344 -851 -358 -851 c 0,9,10
 -421 -851 -421 -851 -438 -848 c 0,11,12
 -482 -840 -482 -840 -514.5 -813 c 128,-1,13
 -547 -786 -547 -786 -565 -744.5 c 128,-1,14
 -583 -703 -583 -703 -591 -655 c 128,-1,15
 -599 -607 -599 -607 -599 -551 c 0,16,17
 -599 -542 -599 -542 -620 -521 c 128,-1,18
 -641 -500 -641 -500 -639 -490 c 0,19,20
 -629 -435 -629 -435 -600 -382 c 0,21,22
 -530 -260 -530 -260 -456.5 -202.5 c 128,-1,23
 -383 -145 -383 -145 -279 -132 c 1,24,25
 -248 -102 -248 -102 -216 -78 c 0,26,27
 -198 -64 -198 -64 -163 -32.5 c 128,-1,28
 -128 -1 -128 -1 -100.5 21 c 128,-1,29
 -73 43 -73 43 -9.5 77.5 c 128,-1,30
 54 112 54 112 140 146 c 1,31,-1
 210 -23 l 1,32,33
 197 -28 197 -28 175 -36 c 128,-1,34
 153 -44 153 -44 145 -46 c 1,35,36
 168 -53 168 -53 187 -66 c 1,0,1
-214 -259 m 0,37,38
 -252 -307 -252 -307 -291 -365 c 0,39,40
 -307 -389 -307 -389 -320 -463 c 0,41,42
 -321 -473 -321 -473 -300.5 -491 c 128,-1,43
 -280 -509 -280 -509 -280 -516 c 0,44,45
 -280 -528 -280 -528 -307 -548 c 0,46,47
 -314 -553 -314 -553 -310 -554 c 0,48,49
 -309 -554 -309 -554 -263 -554 c 0,50,51
 -258 -554 -258 -554 -255.5 -550.5 c 128,-1,52
 -253 -547 -253 -547 -250 -538 c 128,-1,53
 -247 -529 -247 -529 -243 -517 c 128,-1,54
 -239 -505 -239 -505 -228.5 -484.5 c 128,-1,55
 -218 -464 -218 -464 -203 -442 c 0,56,57
 -160 -378 -160 -378 -153 -334 c 0,58,59
 -152 -331 -152 -331 -129 -325.5 c 128,-1,60
 -106 -320 -106 -320 -106 -317 c 0,61,62
 -106 -302 -106 -302 -125 -289 c 128,-1,63
 -144 -276 -144 -276 -163.5 -270.5 c 128,-1,64
 -183 -265 -183 -265 -203 -261 c 0,65,66
 -211 -260 -211 -260 -214 -259 c 0,37,38
-22 -107 m 1,67,68
 -75 -130 -75 -130 -116 -160 c 1,69,70
 -86 -178 -86 -178 -62 -212 c 1,71,72
 -40 -151 -40 -151 -22 -107 c 1,67,68
-423 -336 m 1,73,74
 -425 -337 -425 -337 -428 -340 c 128,-1,75
 -431 -343 -431 -343 -433 -344 c 0,76,77
 -477 -390 -477 -390 -505 -445 c 128,-1,78
 -533 -500 -533 -500 -542 -553 c 0,79,80
 -544 -561 -544 -561 -523 -575.5 c 128,-1,81
 -502 -590 -502 -590 -502 -596 c 0,82,83
 -502 -609 -502 -609 -504.5 -624.5 c 128,-1,84
 -507 -640 -507 -640 -509 -650 c 128,-1,85
 -511 -660 -511 -660 -511.5 -669 c 128,-1,86
 -512 -678 -512 -678 -508 -683 c 128,-1,87
 -504 -688 -504 -688 -494 -690 c 0,88,89
 -486 -691 -486 -691 -437 -691 c 1,90,-1
 -481 -691 l 1,91,92
 -393 -688 -393 -688 -318 -633 c 1,93,94
 -325 -636 -325 -636 -327 -639 c 128,-1,95
 -329 -642 -329 -642 -326.5 -644 c 128,-1,96
 -324 -646 -324 -646 -324.5 -647 c 128,-1,97
 -325 -648 -325 -648 -330 -648 c 0,98,99
 -379 -648 -379 -648 -383 -648 c 0,100,101
 -395 -646 -395 -646 -401 -637 c 0,102,103
 -418 -617 -418 -617 -420 -592 c 128,-1,104
 -422 -567 -422 -567 -416 -532 c 128,-1,105
 -410 -497 -410 -497 -410 -480 c 0,106,107
 -410 -471 -410 -471 -430.5 -452.5 c 128,-1,108
 -451 -434 -451 -434 -450 -424 c 0,109,110
 -442 -382 -442 -382 -423 -336 c 1,73,74
EndSplineSet
EndChar

StartChar: aogonek.alt
Encoding: 983053 983053 293
Width: 1201
VWidth: 0
GlyphClass: 2
Flags: W
LayerCount: 2
Fore
SplineSet
23.0908203125 72 m 1,0,-1
 -90.9091796875 155 l 1,1,2
 -76.9091796875 402 -76.9091796875 402 -20.4091796875 623 c 128,-1,3
 36.0908203125 844 36.0908203125 844 117.090820312 1012.5 c 128,-1,4
 198.090820312 1181 198.090820312 1181 308.590820312 1328 c 128,-1,5
 419.090820312 1475 419.090820312 1475 531.590820312 1578.5 c 128,-1,6
 644.090820312 1682 644.090820312 1682 773.090820312 1769 c 128,-1,7
 902.090820312 1856 902.090820312 1856 1010.09082031 1909.5 c 128,-1,8
 1118.09082031 1963 1118.09082031 1963 1230.09082031 2004 c 1,9,-1
 1334.09082031 1916 l 1,10,11
 155.090820312 1470 155.090820312 1470 23.0908203125 72 c 1,0,-1
EndSplineSet
EndChar

StartChar: luM
Encoding: 983054 983054 294
Width: 750
VWidth: 0
GlyphClass: 2
Flags: W
LayerCount: 2
Fore
SplineSet
414 891 m 5,0,-1
 411 896 l 2,1,2
 412 910 412 910 412 931 c 0,3,4
 412 1077 412 1077 339 1077 c 2,5,-1
 333 1077 l 2,6,7
 303 1077 303 1077 265 1053.5 c 0,8,9
 232 1033 232 1033 209 1006.5 c 128,-1,10
 186 980 186 980 168.5 954.5 c 0,11,12
 148.616541353 925.887218045 148.616541353 925.887218045 142 911 c 2,13,-1
 134 893 l 1,14,-1
 -21 997 l 1,15,16
 -16 1007 -16 1007 -5.5 1024 c 128,-1,17
 5 1041 5 1041 40.5 1084 c 128,-1,18
 76 1127 76 1127 115.5 1160 c 128,-1,19
 155 1193 155 1193 217 1220 c 128,-1,20
 279 1247 279 1247 343 1247 c 0,21,22
 392 1247 392 1247 432 1233.5 c 128,-1,23
 472 1220 472 1220 497.5 1198 c 128,-1,24
 523 1176 523 1176 542 1150 c 128,-1,25
 561 1124 561 1124 570 1097.5 c 128,-1,26
 579 1071 579 1071 584.5 1049 c 0,27,28
 590.1 1026.6 590.1 1026.6 591 1014 c 2,29,-1
 592 1000 l 1,30,-1
 593 890 l 5,31,-1
 414 891 l 5,0,-1
EndSplineSet
EndChar

StartChar: dzi
Encoding: 983056 983056 296
Width: 559
VWidth: 0
GlyphClass: 3
LigCaretCntFixed: 1
Flags: W
LayerCount: 2
Fore
SplineSet
701 244 m 0,0,1
 713 199 713 199 692 104 c 128,-1,2
 671 9 671 9 644 -28 c 0,3,4
 628 -49 628 -49 616 -64 c 128,-1,5
 604 -79 604 -79 577.5 -106 c 128,-1,6
 551 -133 551 -133 515.5 -158 c 128,-1,7
 480 -183 480 -183 437 -203 c 1,8,-1
 355 -30 l 1,9,10
 362 -34 362 -34 381 -24 c 128,-1,11
 400 -14 400 -14 423 6 c 128,-1,12
 446 26 446 26 465.5 56 c 128,-1,13
 485 86 485 86 493.5 122.5 c 128,-1,14
 502 159 502 159 492 202 c 0,15,16
 485 230 485 230 472 249 c 128,-1,17
 459 268 459 268 445 278 c 128,-1,18
 431 288 431 288 409.5 293.5 c 128,-1,19
 388 299 388 299 372 300 c 128,-1,20
 356 301 356 301 331 301 c 0,21,22
 296 298 296 298 262.5 270.5 c 128,-1,23
 229 243 229 243 205 206.5 c 128,-1,24
 181 170 181 170 162.5 134 c 128,-1,25
 144 98 144 98 135 73 c 2,26,-1
 126 48 l 1,27,-1
 -19 162 l 1,28,29
 -14 173 -14 173 -5 192 c 128,-1,30
 4 211 4 211 37 261 c 128,-1,31
 70 311 70 311 107 351 c 128,-1,32
 144 391 144 391 203.5 428 c 128,-1,33
 263 465 263 465 327 474 c 0,34,35
 371 478 371 478 406.5 480 c 128,-1,36
 442 482 442 482 473.5 474.5 c 128,-1,37
 505 467 505 467 530 459.5 c 128,-1,38
 555 452 555 452 576 436.5 c 128,-1,39
 597 421 597 421 612.5 408 c 128,-1,40
 628 395 628 395 641.5 375.5 c 128,-1,41
 655 356 655 356 664 341 c 128,-1,42
 673 326 673 326 680.5 306.5 c 128,-1,43
 688 287 688 287 692.5 273.5 c 128,-1,44
 697 260 697 260 701 244 c 0,0,1
EndSplineSet
Ligature2: "'liga' Standard Ligatures in Latin lookup 1 subtable" d zacute
Ligature2: "'liga' Standard Ligatures in Latin lookup 1 subtable" d z i
LCarets2: 2 120 282
EndChar

StartChar: gi
Encoding: 983057 983057 297
Width: 351
VWidth: 0
GlyphClass: 3
Flags: W
LayerCount: 2
Fore
SplineSet
0 1250 m 1,0,-1
 180 1250 l 1,1,-1
 180 189 l 1,2,-1
 180 2 l 1,3,-1
 357 160 l 1,4,-1
 471 70 l 1,5,-1
 0 -446 l 1,6,-1
 1 190 l 1,7,-1
 0 1250 l 1,0,-1
EndSplineSet
Ligature2: "'liga' Standard Ligatures in Latin lookup 1 subtable" g j
Ligature2: "'liga' Standard Ligatures in Latin lookup 1 subtable" g i
EndChar

StartChar: Gi
Encoding: 983058 983058 298
Width: 1112
VWidth: 0
GlyphClass: 3
Flags: W
LayerCount: 2
Fore
SplineSet
741 1250 m 1,0,-1
 921 1250 l 1,1,-1
 921 189 l 1,2,-1
 921 2 l 1,3,-1
 1098 160 l 1,4,-1
 1212 70 l 1,5,-1
 741 -446 l 1,6,-1
 742 190 l 1,7,-1
 741 1250 l 1,0,-1
735 3438 m 1,8,-1
 882 3438 l 1,9,-1
 1128 3062 l 1,10,-1
 989 3062 l 1,11,-1
 808 3307 l 1,12,-1
 628 3062 l 1,13,-1
 489 3062 l 1,14,-1
 735 3438 l 1,8,-1
EndSplineSet
Ligature2: "'liga' Standard Ligatures in Latin lookup 1 subtable" G j
Ligature2: "'liga' Standard Ligatures in Latin lookup 1 subtable" G i
EndChar

StartChar: ki
Encoding: 983059 983059 299
Width: 357
VWidth: 0
GlyphClass: 3
Flags: W
LayerCount: 2
Fore
SplineSet
0 2251 m 1,0,-1
 180 2250 l 1,1,-1
 179 0 l 1,2,-1
 358 157 l 1,3,-1
 472 68 l 1,4,-1
 0 -448 l 1,5,-1
 0 2251 l 1,0,-1
EndSplineSet
Ligature2: "'liga' Standard Ligatures in Latin lookup 1 subtable" k j
Ligature2: "'liga' Standard Ligatures in Latin lookup 1 subtable" k i
EndChar

StartChar: Ki
Encoding: 983060 983060 300
Width: 1084
VWidth: 0
GlyphClass: 3
Flags: W
LayerCount: 2
Fore
SplineSet
723 2252 m 1,0,-1
 903 2251 l 1,1,-1
 902 1 l 1,2,-1
 1081 158 l 1,3,-1
 1195 69 l 1,4,-1
 723 -447 l 1,5,-1
 723 2252 l 1,0,-1
711 3444 m 1,6,-1
 858 3444 l 1,7,-1
 1104 3068 l 1,8,-1
 965 3068 l 1,9,-1
 784 3313 l 1,10,-1
 604 3068 l 1,11,-1
 465 3068 l 1,12,-1
 711 3444 l 1,6,-1
EndSplineSet
Ligature2: "'liga' Standard Ligatures in Latin lookup 1 subtable" K j
Ligature2: "'liga' Standard Ligatures in Latin lookup 1 subtable" K i
EndChar

StartChar: pii
Encoding: 983061 983061 301
Width: 361
VWidth: 3070
GlyphClass: 3
Flags: W
LayerCount: 2
Fore
SplineSet
183 1149 m 1,0,-1
 263 1227 l 1,1,-1
 268 1230 l 1,2,-1
 271 1234 l 2,3,4
 311 1281 311 1281 355.5 1564.5 c 128,-1,5
 400 1848 400 1848 401 1958 c 0,6,7
 401 2068 401 2068 294 2068 c 0,8,9
 260 2067 260 2067 237.5 2058 c 128,-1,10
 215 2049 215 2049 203.5 2030 c 128,-1,11
 192 2011 192 2011 188.5 2000 c 128,-1,12
 185 1989 185 1989 180 1967 c 1,13,-1
 180 1958 l 2,14,15
 183 1892 183 1892 183 1422 c 2,16,-1
 183 1232 l 1,17,-1
 183 1149 l 1,0,-1
180 186 m 1,18,-1
 179 0 l 1,19,-1
 358 157 l 1,20,-1
 472 68 l 1,21,-1
 0 -448 l 1,22,-1
 0 188 l 1,23,-1
 3 1965 l 1,24,-1
 3 1966 l 1,25,26
 8 2052 8 2052 37 2115 c 0,27,28
 98 2249 98 2249 294 2249 c 0,29,30
 426 2249 426 2249 503 2165 c 128,-1,31
 580 2081 580 2081 580 1960 c 0,32,33
 580 1918 580 1918 573.5 1834 c 128,-1,34
 567 1750 567 1750 548 1624 c 128,-1,35
 529 1498 529 1498 501 1382 c 128,-1,36
 473 1266 473 1266 424 1164 c 128,-1,37
 375 1062 375 1062 315 1022 c 0,38,39
 293 1007 293 1007 271.5 987.5 c 128,-1,40
 250 968 250 968 224 942 c 128,-1,41
 198 916 198 916 189 907 c 2,42,-1
 180 900 l 1,43,-1
 180 187 l 1,44,-1
 180 186 l 1,18,-1
EndSplineSet
LCarets2: 1 0
Ligature2: "'liga' Standard Ligatures in Latin lookup 1 subtable" p j
Ligature2: "'liga' Standard Ligatures in Latin lookup 1 subtable" p i
EndChar

StartChar: Pii
Encoding: 983062 983062 302
Width: 925
VWidth: 3070
GlyphClass: 3
Flags: W
LayerCount: 2
Fore
SplineSet
737 1152 m 1,0,-1
 817 1230 l 1,1,-1
 822 1233 l 1,2,-1
 825 1237 l 2,3,4
 865 1284 865 1284 909.5 1567.5 c 128,-1,5
 954 1851 954 1851 955 1961 c 0,6,7
 955 2071 955 2071 848 2071 c 0,8,9
 814 2070 814 2070 791.5 2061 c 128,-1,10
 769 2052 769 2052 757.5 2033 c 128,-1,11
 746 2014 746 2014 742.5 2003 c 128,-1,12
 739 1992 739 1992 734 1970 c 1,13,-1
 734 1961 l 2,14,15
 737 1896 737 1896 737 1425 c 2,16,-1
 737 1235 l 1,17,-1
 737 1152 l 1,0,-1
734 189 m 1,18,-1
 733 3 l 1,19,-1
 912 160 l 1,20,-1
 1026 71 l 1,21,-1
 554 -445 l 1,22,-1
 554 191 l 1,23,-1
 557 1968 l 1,24,-1
 557 1969 l 1,25,26
 562 2055 562 2055 591 2118 c 0,27,28
 652 2252 652 2252 848 2252 c 0,29,30
 980 2252 980 2252 1057 2168 c 128,-1,31
 1134 2084 1134 2084 1134 1963 c 0,32,33
 1134 1921 1134 1921 1127.5 1837 c 128,-1,34
 1121 1753 1121 1753 1102 1627 c 128,-1,35
 1083 1501 1083 1501 1055 1385 c 128,-1,36
 1027 1269 1027 1269 978 1167 c 128,-1,37
 929 1065 929 1065 869 1025 c 0,38,39
 847 1010 847 1010 825.5 990.5 c 128,-1,40
 804 971 804 971 778 945 c 128,-1,41
 752 919 752 919 743 910 c 2,42,-1
 734 903 l 1,43,-1
 734 190 l 1,44,-1
 734 189 l 1,18,-1
639 3432 m 1,45,-1
 786 3432 l 1,46,-1
 1032 3056 l 1,47,-1
 893 3056 l 1,48,-1
 712 3301 l 1,49,-1
 532 3056 l 1,50,-1
 393 3056 l 1,51,-1
 639 3432 l 1,45,-1
EndSplineSet
Ligature2: "'liga' Standard Ligatures in Latin lookup 1 subtable" P j
Ligature2: "'liga' Standard Ligatures in Latin lookup 1 subtable" P i
EndChar

StartChar: bi
Encoding: 983063 983063 303
Width: 353
VWidth: 3070
GlyphClass: 3
Flags: W
LayerCount: 2
Fore
SplineSet
183 1083 m 1,0,-1
 263 1161 l 1,1,-1
 268 1164 l 1,2,-1
 271 1168 l 1,3,4
 400 1320 400 1320 401 1456 c 0,5,6
 401 1566 401 1566 294 1566 c 0,7,8
 260 1565 260 1565 237 1554.5 c 128,-1,9
 214 1544 214 1544 203 1523.5 c 128,-1,10
 192 1503 192 1503 188 1490.5 c 128,-1,11
 184 1478 184 1478 180 1456 c 1,12,13
 183 1390 183 1390 183 1288 c 2,14,-1
 183 1166 l 1,15,-1
 183 1083 l 1,0,-1
179 524 m 1,16,-1
 179 0 l 1,17,-1
 358 157 l 1,18,-1
 472 68 l 1,19,-1
 0 -448 l 1,20,-1
 0 544 l 1,21,-1
 3 1463 l 1,22,-1
 3 1464 l 1,23,24
 8 1550 8 1550 37 1613 c 0,25,26
 98 1747 98 1747 294 1747 c 0,27,28
 426 1747 426 1747 503 1663 c 128,-1,29
 580 1579 580 1579 580 1458 c 0,30,31
 580 1411 580 1411 567.5 1352 c 128,-1,32
 555 1293 555 1293 528 1221 c 128,-1,33
 501 1149 501 1149 445.5 1077.5 c 128,-1,34
 390 1006 390 1006 315 956 c 0,35,36
 293 941 293 941 271.5 921.5 c 128,-1,37
 250 902 250 902 224 876 c 128,-1,38
 198 850 198 850 189 841 c 2,39,-1
 180 834 l 1,40,-1
 179 524 l 1,16,-1
EndSplineSet
Ligature2: "'liga' Standard Ligatures in Latin lookup 1 subtable" b j
Ligature2: "'liga' Standard Ligatures in Latin lookup 1 subtable" b i
EndChar

StartChar: Bi
Encoding: 983064 983064 304
Width: 969
VWidth: 3070
GlyphClass: 3
LigCaretCntFixed: 1
Flags: W
LayerCount: 2
Fore
SplineSet
787 1088 m 1,0,-1
 867 1166 l 1,1,-1
 872 1169 l 1,2,-1
 875 1173 l 1,3,4
 1004 1325 1004 1325 1005 1461 c 0,5,6
 1005 1571 1005 1571 898 1571 c 0,7,8
 864 1570 864 1570 841 1559.5 c 128,-1,9
 818 1549 818 1549 807 1528.5 c 128,-1,10
 796 1508 796 1508 792 1495.5 c 128,-1,11
 788 1483 788 1483 784 1461 c 1,12,13
 787 1397 787 1397 787 1293 c 2,14,-1
 787 1171 l 1,15,-1
 787 1088 l 1,0,-1
783 528 m 1,16,-1
 783 5 l 1,17,-1
 962 162 l 1,18,-1
 1076 73 l 1,19,-1
 604 -443 l 1,20,-1
 604 548 l 1,21,-1
 607 1468 l 1,22,-1
 607 1469 l 1,23,24
 612 1555 612 1555 641 1618 c 0,25,26
 702 1752 702 1752 898 1752 c 0,27,28
 1030 1752 1030 1752 1107 1668 c 128,-1,29
 1184 1584 1184 1584 1184 1463 c 0,30,31
 1184 1416 1184 1416 1171.5 1357 c 128,-1,32
 1159 1298 1159 1298 1132 1226 c 128,-1,33
 1105 1154 1105 1154 1049.5 1082.5 c 128,-1,34
 994 1011 994 1011 919 961 c 0,35,36
 897 946 897 946 875.5 926.5 c 128,-1,37
 854 907 854 907 828 881 c 128,-1,38
 802 855 802 855 793 846 c 2,39,-1
 784 839 l 1,40,-1
 783 528 l 1,16,-1
663 3432 m 1,41,-1
 810 3432 l 1,42,-1
 1056 3056 l 1,43,-1
 917 3056 l 1,44,-1
 736 3301 l 1,45,-1
 556 3056 l 1,46,-1
 417 3056 l 1,47,-1
 663 3432 l 1,41,-1
EndSplineSet
Ligature2: "'liga' Standard Ligatures in Latin lookup 1 subtable" B j
Ligature2: "'liga' Standard Ligatures in Latin lookup 1 subtable" B i
LCarets2: 1 5
EndChar

StartChar: wi
Encoding: 983065 983065 305
Width: 506
VWidth: 0
GlyphClass: 3
LigCaretCntFixed: 1
Flags: W
LayerCount: 2
Fore
SplineSet
154 398 m 2,0,-1
 245 -69 l 1,1,-1
 504 158 l 1,2,-1
 602 19 l 1,3,-1
 130 -448 l 1,4,5
 54 -114 54 -114 11.5 140.5 c 128,-1,6
 -31 395 -31 395 -34 638 c 0,7,8
 -33 758 -33 758 -22 858 c 128,-1,9
 -11 958 -11 958 13.5 1044.5 c 128,-1,10
 38 1131 38 1131 81.5 1184 c 128,-1,11
 125 1237 125 1237 185 1248 c 0,12,13
 286 1266 286 1266 404 1108 c 1,14,-1
 405 926 l 1,15,16
 357 992 357 992 313.5 1015 c 128,-1,17
 270 1038 270 1038 239 1030 c 0,18,19
 187 1016 187 1016 165 929.5 c 128,-1,20
 143 843 143 843 143 727 c 0,21,22
 143 706 143 706 148.5 557 c 128,-1,23
 154 408 154 408 154 398 c 2,0,-1
EndSplineSet
Ligature2: "'liga' Standard Ligatures in Latin lookup 1 subtable" w i
LCarets2: 1 1
EndChar

StartChar: Wi
Encoding: 983066 983066 306
Width: 1073
VWidth: 0
GlyphClass: 3
Flags: W
LayerCount: 2
Fore
SplineSet
824 394 m 2,0,-1
 879 -3 l 1,1,-1
 1058 154 l 1,2,-1
 1172 65 l 1,3,-1
 700 -451 l 1,4,5
 698 -427 698 -427 690.5 -334.5 c 128,-1,6
 683 -242 683 -242 680.5 -210.5 c 128,-1,7
 678 -179 678 -179 672 -94.5 c 128,-1,8
 666 -10 666 -10 663 31.5 c 128,-1,9
 660 73 660 73 655 148.5 c 128,-1,10
 650 224 650 224 648 274.5 c 128,-1,11
 646 325 646 325 643 391 c 128,-1,12
 640 457 640 457 638.5 516.5 c 128,-1,13
 637 576 637 576 636 635 c 0,14,15
 637 720 637 720 645.5 810 c 128,-1,16
 654 900 654 900 673.5 1005.5 c 128,-1,17
 693 1111 693 1111 735 1178 c 128,-1,18
 777 1245 777 1245 835 1245 c 0,19,20
 927 1245 927 1245 1054 1075 c 1,21,-1
 1055 893 l 1,22,23
 958 1027 958 1027 899 1027 c 0,24,25
 813 1027 813 1027 813 724 c 0,26,27
 813 703 813 703 818.5 553.5 c 128,-1,28
 824 404 824 404 824 394 c 2,0,-1
711 3426 m 1,29,-1
 858 3426 l 1,30,-1
 1104 3050 l 1,31,-1
 965 3050 l 1,32,-1
 784 3295 l 1,33,-1
 604 3050 l 1,34,-1
 465 3050 l 1,35,-1
 711 3426 l 1,29,-1
EndSplineSet
Ligature2: "'liga' Standard Ligatures in Latin lookup 1 subtable" W i
EndChar

StartChar: fii
Encoding: 983067 983067 307
Width: 354
VWidth: 0
GlyphClass: 3
Flags: W
LayerCount: 2
Fore
SplineSet
-184 1094 m 2,0,1
 -184 1094 -184 1094 -184 1142 c 0,2,3
 -184 1245 -184 1245 -179 1352 c 128,-1,4
 -174 1459 -174 1459 -163 1589.5 c 128,-1,5
 -152 1720 -152 1720 -130 1831.5 c 128,-1,6
 -108 1943 -108 1943 -76.5 2038.5 c 128,-1,7
 -45 2134 -45 2134 3.5 2189 c 128,-1,8
 52 2244 52 2244 112 2244 c 0,9,10
 219 2244 219 2244 354 2067 c 1,11,-1
 355 1853 l 1,12,13
 244 1989 244 1989 164 1989 c 0,14,15
 128 1989 128 1989 100 1962 c 128,-1,16
 72 1935 72 1935 54.5 1883.5 c 128,-1,17
 37 1832 37 1832 25.5 1774.5 c 128,-1,18
 14 1717 14 1717 9 1638.5 c 128,-1,19
 4 1560 4 1560 2 1497.5 c 128,-1,20
 0 1435 0 1435 0 1355 c 0,21,22
 0 1325 0 1325 0.5 1273 c 128,-1,23
 1 1221 1 1221 1 1201 c 2,24,-1
 1 1118 l 2,25,26
 1 988 1 988 29 737 c 128,-1,27
 57 486 57 486 75 378 c 0,28,29
 78 362 78 362 87 333.5 c 128,-1,30
 96 305 96 305 99 292 c 2,31,-1
 179 0 l 1,32,-1
 358 157 l 1,33,-1
 472 68 l 1,34,-1
 0 -448 l 1,35,-1
 -81 291 l 1,36,37
 -182 925 -182 925 -184 1094 c 2,0,1
EndSplineSet
Ligature2: "'liga' Standard Ligatures in Latin lookup 1 subtable" f i
EndChar

StartChar: Fii
Encoding: 983068 983068 308
Width: 1099
VWidth: 0
GlyphClass: 3
Flags: W
LayerCount: 2
Fore
SplineSet
521 1102 m 2,0,1
 521 1102 521 1102 521 1150 c 0,2,3
 521 1253 521 1253 526 1360 c 128,-1,4
 531 1467 531 1467 542 1597.5 c 128,-1,5
 553 1728 553 1728 575 1839.5 c 128,-1,6
 597 1951 597 1951 628.5 2046.5 c 128,-1,7
 660 2142 660 2142 708.5 2197 c 128,-1,8
 757 2252 757 2252 817 2252 c 0,9,10
 924 2252 924 2252 1059 2075 c 1,11,-1
 1060 1861 l 1,12,13
 949 1997 949 1997 869 1997 c 0,14,15
 833 1997 833 1997 805 1970 c 128,-1,16
 777 1943 777 1943 759.5 1891.5 c 128,-1,17
 742 1840 742 1840 730.5 1782.5 c 128,-1,18
 719 1725 719 1725 714 1646.5 c 128,-1,19
 709 1568 709 1568 707 1505.5 c 128,-1,20
 705 1443 705 1443 705 1363 c 0,21,22
 705 1333 705 1333 705.5 1281 c 128,-1,23
 706 1229 706 1229 706 1209 c 2,24,-1
 706 1126 l 2,25,26
 706 996 706 996 734 745 c 128,-1,27
 762 494 762 494 780 386 c 0,28,29
 783 370 783 370 792 341.5 c 128,-1,30
 801 313 801 313 804 300 c 2,31,-1
 884 8 l 1,32,-1
 1063 165 l 1,33,-1
 1177 76 l 1,34,-1
 705 -440 l 1,35,-1
 624 299 l 1,36,37
 523 933 523 933 521 1102 c 2,0,1
688 3418 m 1,38,-1
 835 3418 l 1,39,-1
 1081 3042 l 1,40,-1
 942 3042 l 1,41,-1
 761 3287 l 1,42,-1
 581 3042 l 1,43,-1
 442 3042 l 1,44,-1
 688 3418 l 1,38,-1
EndSplineSet
Ligature2: "'liga' Standard Ligatures in Latin lookup 1 subtable" F i
EndChar

StartChar: hi
Encoding: 983069 983069 309
Width: 781
VWidth: 0
GlyphClass: 3
Flags: W
LayerCount: 2
Fore
SplineSet
347 2080 m 0,0,1
 311 2080 311 2080 276.5 2061 c 128,-1,2
 242 2042 242 2042 218.5 2015 c 128,-1,3
 195 1988 195 1988 177 1961 c 128,-1,4
 159 1934 159 1934 150 1915 c 2,5,-1
 141 1896 l 1,6,-1
 -14 2000 l 1,7,8
 -9 2010 -9 2010 1.5 2027 c 128,-1,9
 12 2044 12 2044 47.5 2087 c 128,-1,10
 83 2130 83 2130 122.5 2163 c 128,-1,11
 162 2196 162 2196 224 2223 c 128,-1,12
 286 2250 286 2250 351 2250 c 0,13,14
 418 2250 418 2250 468 2224.5 c 128,-1,15
 518 2199 518 2199 542 2162.5 c 128,-1,16
 566 2126 566 2126 580 2090 c 128,-1,17
 594 2054 594 2054 596 2028 c 2,18,-1
 599 2003 l 1,19,-1
 609 187 l 1,20,-1
 611 187 l 1,21,-1
 610 0 l 1,22,-1
 773 144 l 2,23,24
 781 154 781 154 784 158 c 1,25,-1
 787 156 l 1,26,-1
 789 157 l 1,27,-1
 902 68 l 1,28,-1
 431 -448 l 1,29,-1
 431 71 l 2,30,31
 430 78 430 78 430 92 c 2,32,-1
 418 1899 l 2,33,34
 419 1913 419 1913 419 1934 c 0,35,36
 419 2080 419 2080 347 2080 c 0,0,1
EndSplineSet
Ligature2: "'liga' Standard Ligatures in Latin lookup 1 subtable" h i
EndChar

StartChar: Hi
Encoding: 983070 983070 310
Width: 1248
VWidth: 0
GlyphClass: 3
Flags: W
LayerCount: 2
Fore
SplineSet
816 2078 m 0,0,1
 780 2078 780 2078 745.5 2059 c 128,-1,2
 711 2040 711 2040 687.5 2013 c 128,-1,3
 664 1986 664 1986 646 1959 c 128,-1,4
 628 1932 628 1932 619 1913 c 2,5,-1
 610 1894 l 1,6,-1
 455 1998 l 1,7,8
 460 2008 460 2008 470.5 2025 c 128,-1,9
 481 2042 481 2042 516.5 2085 c 128,-1,10
 552 2128 552 2128 591.5 2161 c 128,-1,11
 631 2194 631 2194 693 2221 c 128,-1,12
 755 2248 755 2248 820 2248 c 0,13,14
 887 2248 887 2248 937 2222.5 c 128,-1,15
 987 2197 987 2197 1011 2160.5 c 128,-1,16
 1035 2124 1035 2124 1049 2088 c 128,-1,17
 1063 2052 1063 2052 1066 2026 c 2,18,-1
 1068 2001 l 1,19,-1
 1078 185 l 1,20,-1
 1080 185 l 1,21,-1
 1079 -2 l 1,22,-1
 1242 142 l 2,23,24
 1250 152 1250 152 1253 156 c 1,25,-1
 1256 154 l 1,26,-1
 1258 155 l 1,27,-1
 1371 66 l 1,28,-1
 900 -450 l 1,29,-1
 900 69 l 2,30,31
 899 76 899 76 899 90 c 2,32,-1
 887 1897 l 2,33,34
 888 1911 888 1911 888 1932 c 0,35,36
 888 2078 888 2078 816 2078 c 0,0,1
747 3426 m 1,37,-1
 894 3426 l 1,38,-1
 1140 3050 l 1,39,-1
 1001 3050 l 1,40,-1
 820 3295 l 1,41,-1
 640 3050 l 1,42,-1
 501 3050 l 1,43,-1
 747 3426 l 1,37,-1
EndSplineSet
Ligature2: "'liga' Standard Ligatures in Latin lookup 1 subtable" H i
EndChar

StartChar: ti
Encoding: 983071 983071 311
Width: 160
VWidth: 0
GlyphClass: 3
Flags: W
LayerCount: 2
Fore
SplineSet
176 0 m 1,0,1
 149 -231 149 -231 105 -387.5 c 128,-1,2
 61 -544 61 -544 1 -641.5 c 128,-1,3
 -59 -739 -59 -739 -149 -816 c 0,4,5
 -223 -879 -223 -879 -304 -879 c 0,6,7
 -409 -879 -409 -879 -486.5 -783 c 128,-1,8
 -564 -687 -564 -687 -564 -561 c 0,9,10
 -564 -505 -564 -505 -544 -448 c 0,11,12
 -497 -316 -497 -316 -434.5 -246.5 c 128,-1,13
 -372 -177 -372 -177 -272 -146 c 1,14,15
 -251 -115 -251 -115 -219 -82 c 0,16,17
 -207 -70 -207 -70 -168 -18.5 c 128,-1,18
 -129 33 -129 33 -78 78.5 c 128,-1,19
 -27 124 -27 124 61 180 c 1,20,21
 140 414 140 414 140 625 c 0,22,23
 140 716 140 716 119.5 808.5 c 128,-1,24
 99 901 99 901 69.5 981 c 128,-1,25
 40 1061 40 1061 10.5 1144.5 c 128,-1,26
 -19 1228 -19 1228 -39.5 1333.5 c 128,-1,27
 -60 1439 -60 1439 -60 1550 c 0,28,29
 -60 1852 -60 1852 98 2250 c 1,30,-1
 277 2250 l 1,31,32
 138 1865 138 1865 138 1572 c 0,33,34
 138 1459 138 1459 158 1352 c 128,-1,35
 178 1245 178 1245 206 1161.5 c 128,-1,36
 234 1078 234 1078 262 997.5 c 128,-1,37
 290 917 290 917 310 826 c 128,-1,38
 330 735 330 735 330 645 c 0,39,40
 330 524 330 524 296 365 c 128,-1,41
 262 206 262 206 191 48 c 1,42,-1
 191 46 l 1,43,-1
 190 46 l 1,44,45
 183 31 183 31 169 3 c 1,46,47
 172 2 172 2 176 0 c 1,0,1
-185 -260 m 0,48,49
 -214 -313 -214 -313 -243 -378 c 0,50,51
 -254 -404 -254 -404 -254 -479 c 0,52,53
 -254 -567 -254 -567 -229 -567 c 0,54,55
 -200 -567 -200 -567 -143 -438 c 0,56,57
 -112 -368 -112 -368 -112 -323 c 0,58,59
 -112 -259 -112 -259 -174 -259 c 0,60,61
 -175 -259 -175 -259 -179 -259.5 c 128,-1,62
 -183 -260 -183 -260 -185 -260 c 0,48,49
-23 -77 m 1,63,64
 -74 -111 -74 -111 -106 -145 c 1,65,66
 -71 -160 -71 -160 -44 -187 c 1,67,68
 -33 -123 -33 -123 -23 -77 c 1,63,64
-378 -372 m 1,69,70
 -379 -374 -379 -374 -381.5 -377.5 c 128,-1,71
 -384 -381 -384 -381 -386 -382 c 0,72,73
 -458 -487 -458 -487 -458 -606 c 0,74,75
 -458 -662 -458 -662 -438.5 -697.5 c 128,-1,76
 -419 -733 -419 -733 -386 -733 c 0,77,78
 -378 -733 -378 -733 -373 -732 c 0,79,80
 -288 -714 -288 -714 -223 -646 c 1,81,82
 -281 -685 -281 -685 -304 -665 c 0,83,84
 -389 -592 -389 -592 -389 -465 c 0,85,86
 -389 -421 -389 -421 -378 -372 c 1,69,70
EndSplineSet
Ligature2: "'liga' Standard Ligatures in Latin lookup 1 subtable" t i
EndChar

StartChar: Ti
Encoding: 983072 983072 312
Width: 802
VWidth: 0
GlyphClass: 3
Flags: W
LayerCount: 2
Fore
SplineSet
834 -7 m 1,0,1
 807 -238 807 -238 763 -394.5 c 128,-1,2
 719 -551 719 -551 659 -648.5 c 128,-1,3
 599 -746 599 -746 509 -823 c 0,4,5
 435 -886 435 -886 354 -886 c 0,6,7
 249 -886 249 -886 171.5 -790 c 128,-1,8
 94 -694 94 -694 94 -568 c 0,9,10
 94 -512 94 -512 114 -455 c 0,11,12
 161 -323 161 -323 223.5 -253.5 c 128,-1,13
 286 -184 286 -184 386 -153 c 1,14,15
 407 -122 407 -122 439 -89 c 0,16,17
 451 -77 451 -77 490 -25.5 c 128,-1,18
 529 26 529 26 580 71.5 c 128,-1,19
 631 117 631 117 719 173 c 1,20,21
 798 407 798 407 798 618 c 0,22,23
 798 709 798 709 777.5 801.5 c 128,-1,24
 757 894 757 894 727.5 974 c 128,-1,25
 698 1054 698 1054 668.5 1137.5 c 128,-1,26
 639 1221 639 1221 618.5 1326.5 c 128,-1,27
 598 1432 598 1432 598 1543 c 0,28,29
 598 1845 598 1845 756 2243 c 1,30,-1
 935 2243 l 1,31,32
 796 1858 796 1858 796 1565 c 0,33,34
 796 1452 796 1452 816 1345 c 128,-1,35
 836 1238 836 1238 864 1154.5 c 128,-1,36
 892 1071 892 1071 920 990.5 c 128,-1,37
 948 910 948 910 968 819 c 128,-1,38
 988 728 988 728 988 638 c 0,39,40
 988 517 988 517 954 358 c 128,-1,41
 920 199 920 199 849 41 c 1,42,-1
 849 39 l 1,43,-1
 848 39 l 1,44,45
 841 24 841 24 827 -4 c 1,46,47
 830 -5 830 -5 834 -7 c 1,0,1
473 -267 m 0,48,49
 444 -320 444 -320 415 -385 c 0,50,51
 404 -411 404 -411 404 -486 c 0,52,53
 404 -574 404 -574 429 -574 c 0,54,55
 458 -574 458 -574 515 -445 c 0,56,57
 546 -375 546 -375 546 -330 c 0,58,59
 546 -266 546 -266 484 -266 c 0,60,61
 483 -266 483 -266 479 -266.5 c 128,-1,62
 475 -267 475 -267 473 -267 c 0,48,49
635 -84 m 1,63,64
 584 -118 584 -118 552 -152 c 1,65,66
 587 -167 587 -167 614 -194 c 1,67,68
 625 -130 625 -130 635 -84 c 1,63,64
280 -379 m 1,69,70
 278 -381 278 -381 276 -384.5 c 128,-1,71
 274 -388 274 -388 272 -389 c 0,72,73
 200 -494 200 -494 200 -613 c 0,74,75
 200 -669 200 -669 219.5 -704.5 c 128,-1,76
 239 -740 239 -740 272 -740 c 0,77,78
 280 -740 280 -740 285 -739 c 0,79,80
 370 -721 370 -721 435 -653 c 1,81,82
 377 -692 377 -692 354 -672 c 0,83,84
 269 -599 269 -599 269 -472 c 0,85,86
 269 -428 269 -428 280 -379 c 1,69,70
603 3444 m 1,87,-1
 750 3444 l 1,88,-1
 996 3068 l 1,89,-1
 857 3068 l 1,90,-1
 676 3313 l 1,91,-1
 496 3068 l 1,92,-1
 357 3068 l 1,93,-1
 603 3444 l 1,87,-1
EndSplineSet
Ligature2: "'liga' Standard Ligatures in Latin lookup 1 subtable" T i
EndChar

StartChar: di
Encoding: 983073 983073 313
Width: 56
VWidth: 0
GlyphClass: 3
Flags: W
LayerCount: 2
Fore
SplineSet
98 1251 m 1,0,-1
 277 1251 l 1,1,2
 174 1137 174 1137 174 992 c 0,3,4
 174 906 174 906 226 720 c 128,-1,5
 278 534 278 534 278 433 c 0,6,7
 278 248 278 248 143 90 c 1,8,-1
 171 46 l 1,9,10
 162 41 162 41 141 29 c 128,-1,11
 120 17 120 17 110 12 c 1,12,13
 135 9 135 9 156 0 c 1,14,15
 129 -231 129 -231 85 -387.5 c 128,-1,16
 41 -544 41 -544 -19 -641.5 c 128,-1,17
 -79 -739 -79 -739 -169 -816 c 0,18,19
 -243 -879 -243 -879 -324 -879 c 0,20,21
 -429 -879 -429 -879 -506.5 -783 c 128,-1,22
 -584 -687 -584 -687 -584 -561 c 0,23,24
 -584 -505 -584 -505 -564 -448 c 0,25,26
 -517 -316 -517 -316 -454.5 -246.5 c 128,-1,27
 -392 -177 -392 -177 -292 -146 c 1,28,29
 -271 -115 -271 -115 -239 -82 c 0,30,31
 -227 -69 -227 -69 -190 -21 c 128,-1,32
 -153 27 -153 27 -106 70.5 c 128,-1,33
 -59 114 -59 114 20 166 c 1,34,35
 96 288 96 288 96 431 c 0,36,37
 96 531 96 531 47 717 c 128,-1,38
 -2 903 -2 903 -2 989 c 0,39,40
 -2 1138 -2 1138 98 1251 c 1,0,-1
-205 -260 m 0,41,42
 -234 -313 -234 -313 -263 -378 c 0,43,44
 -274 -404 -274 -404 -274 -479 c 0,45,46
 -274 -567 -274 -567 -249 -567 c 0,47,48
 -220 -567 -220 -567 -163 -438 c 0,49,50
 -132 -368 -132 -368 -132 -323 c 0,51,52
 -132 -259 -132 -259 -194 -259 c 0,53,54
 -195 -259 -195 -259 -199 -259.5 c 128,-1,55
 -203 -260 -203 -260 -205 -260 c 0,41,42
-43 -77 m 1,56,57
 -94 -111 -94 -111 -126 -145 c 1,58,59
 -91 -160 -91 -160 -64 -187 c 1,60,61
 -53 -123 -53 -123 -43 -77 c 1,56,57
-398 -372 m 1,62,63
 -400 -374 -400 -374 -402 -377.5 c 128,-1,64
 -404 -381 -404 -381 -406 -382 c 0,65,66
 -478 -487 -478 -487 -478 -606 c 0,67,68
 -478 -662 -478 -662 -458.5 -697.5 c 128,-1,69
 -439 -733 -439 -733 -406 -733 c 0,70,71
 -398 -733 -398 -733 -393 -732 c 0,72,73
 -308 -714 -308 -714 -243 -646 c 1,74,75
 -301 -685 -301 -685 -324 -665 c 0,76,77
 -409 -592 -409 -592 -409 -465 c 0,78,79
 -409 -421 -409 -421 -398 -372 c 1,62,63
EndSplineSet
Ligature2: "'liga' Standard Ligatures in Latin lookup 1 subtable" d i
EndChar

StartChar: mi
Encoding: 983074 983074 314
Width: 750
VWidth: 0
GlyphClass: 3
Flags: W
LayerCount: 2
Fore
SplineSet
768 158 m 1,0,-1
 885 68 l 1,1,-1
 414 -448 l 1,2,-1
 414 188 l 1,3,-1
 411 896 l 2,4,5
 412 910 412 910 412 931 c 0,6,7
 412 1077 412 1077 339 1077 c 2,8,-1
 333 1077 l 2,9,10
 298 1074 298 1074 265 1053.5 c 128,-1,11
 232 1033 232 1033 209 1006.5 c 128,-1,12
 186 980 186 980 168.5 954.5 c 128,-1,13
 151 929 151 929 142 911 c 2,14,-1
 134 893 l 1,15,-1
 -21 997 l 1,16,17
 -16 1007 -16 1007 -5.5 1024 c 128,-1,18
 5 1041 5 1041 40.5 1084 c 128,-1,19
 76 1127 76 1127 115.5 1160 c 128,-1,20
 155 1193 155 1193 217 1220 c 128,-1,21
 279 1247 279 1247 343 1247 c 0,22,23
 392 1247 392 1247 432 1233.5 c 128,-1,24
 472 1220 472 1220 497.5 1198 c 128,-1,25
 523 1176 523 1176 542 1150 c 128,-1,26
 561 1124 561 1124 570 1097.5 c 128,-1,27
 579 1071 579 1071 584.5 1049 c 128,-1,28
 590 1027 590 1027 591 1014 c 2,29,-1
 592 1000 l 1,30,-1
 593 187 l 1,31,-1
 594 187 l 1,32,-1
 592 0 l 1,33,-1
 768 158 l 1,0,-1
EndSplineSet
Ligature2: "'liga' Standard Ligatures in Latin lookup 1 subtable" m i
EndChar

StartChar: Mi
Encoding: 983075 983075 315
Width: 1245
VWidth: 0
GlyphClass: 3
Flags: W
LayerCount: 2
Fore
SplineSet
1242 168 m 1,0,-1
 1359 78 l 1,1,-1
 888 -438 l 1,2,-1
 888 198 l 1,3,-1
 885 906 l 2,4,5
 886 920 886 920 886 941 c 0,6,7
 886 1087 886 1087 813 1087 c 2,8,-1
 807 1087 l 2,9,10
 772 1084 772 1084 739 1063.5 c 128,-1,11
 706 1043 706 1043 683 1016.5 c 128,-1,12
 660 990 660 990 642.5 964.5 c 128,-1,13
 625 939 625 939 616 921 c 2,14,-1
 608 903 l 1,15,-1
 453 1007 l 1,16,17
 458 1017 458 1017 468.5 1034 c 128,-1,18
 479 1051 479 1051 514.5 1094 c 128,-1,19
 550 1137 550 1137 589.5 1170 c 128,-1,20
 629 1203 629 1203 691 1230 c 128,-1,21
 753 1257 753 1257 817 1257 c 0,22,23
 866 1257 866 1257 906 1243.5 c 128,-1,24
 946 1230 946 1230 971.5 1208 c 128,-1,25
 997 1186 997 1186 1016 1160 c 128,-1,26
 1035 1134 1035 1134 1044 1107.5 c 128,-1,27
 1053 1081 1053 1081 1058.5 1059 c 128,-1,28
 1064 1037 1064 1037 1065 1024 c 2,29,-1
 1066 1010 l 1,30,-1
 1067 197 l 1,31,-1
 1068 197 l 1,32,-1
 1066 10 l 1,33,-1
 1242 168 l 1,0,-1
729 3432 m 1,34,-1
 876 3432 l 1,35,-1
 1122 3056 l 1,36,-1
 983 3056 l 1,37,-1
 802 3301 l 1,38,-1
 622 3056 l 1,39,-1
 483 3056 l 1,40,-1
 729 3432 l 1,34,-1
EndSplineSet
Ligature2: "'liga' Standard Ligatures in Latin lookup 1 subtable" M i
EndChar

StartChar: to
Encoding: 983076 983076 316
Width: 173
VWidth: 0
GlyphClass: 3
Flags: W
LayerCount: 2
Fore
SplineSet
128 2250 m 1,0,-1
 307 2250 l 1,1,2
 168 1865 168 1865 168 1572 c 0,3,4
 168 1459 168 1459 188 1352 c 128,-1,5
 208 1245 208 1245 236 1161.5 c 128,-1,6
 264 1078 264 1078 292 997.5 c 128,-1,7
 320 917 320 917 340 826 c 128,-1,8
 360 735 360 735 360 645 c 0,9,10
 360 644 360 644 360.5 616 c 128,-1,11
 361 588 361 588 361 564 c 0,12,13
 361 140 361 140 209 25 c 0,14,15
 159 -13 159 -13 86 -13 c 0,16,17
 18 -13 18 -13 -46 18.5 c 128,-1,18
 -110 50 -110 50 -154.5 112.5 c 128,-1,19
 -199 175 -199 175 -200 253 c 2,20,-1
 -200 293 l 2,21,22
 -200 430 -200 430 -171.5 531 c 128,-1,23
 -143 632 -143 632 -83.5 723 c 128,-1,24
 -24 814 -24 814 93 944 c 1,25,26
 89 955 89 955 73.5 1001.5 c 128,-1,27
 58 1048 58 1048 53.5 1063 c 128,-1,28
 49 1078 49 1078 35.5 1121 c 128,-1,29
 22 1164 22 1164 17.5 1186 c 128,-1,30
 13 1208 13 1208 3 1248.5 c 128,-1,31
 -7 1289 -7 1289 -11 1319 c 128,-1,32
 -15 1349 -15 1349 -20.5 1389 c 128,-1,33
 -26 1429 -26 1429 -28 1468.5 c 128,-1,34
 -30 1508 -30 1508 -30 1550 c 0,35,36
 -30 1852 -30 1852 128 2250 c 1,0,-1
153 729 m 1,37,38
 90 653 90 653 54.5 605 c 128,-1,39
 19 557 19 557 0 514.5 c 128,-1,40
 -19 472 -19 472 -25 448 c 128,-1,41
 -31 424 -31 424 -40 370 c 0,42,43
 -44 346 -44 346 -44 314 c 0,44,45
 -44 248 -44 248 -25 198.5 c 128,-1,46
 -6 149 -6 149 27 149 c 0,47,48
 55 149 55 149 86 189 c 0,49,50
 177 304 177 304 177 514 c 0,51,52
 177 576 177 576 170 625 c 0,53,54
 164 675 164 675 153 729 c 1,37,38
EndSplineSet
Ligature2: "'liga' Standard Ligatures in Latin lookup 1 subtable" t o.alt
Ligature2: "'liga' Standard Ligatures in Latin lookup 1 subtable" t o
EndChar

StartChar: To
Encoding: 983077 983077 317
Width: 702
VWidth: 0
GlyphClass: 3
Flags: W
LayerCount: 2
Fore
SplineSet
724 2252 m 1,0,-1
 903 2252 l 1,1,2
 764 1867 764 1867 764 1574 c 0,3,4
 764 1461 764 1461 784 1354 c 128,-1,5
 804 1247 804 1247 832 1163.5 c 128,-1,6
 860 1080 860 1080 888 999.5 c 128,-1,7
 916 919 916 919 936 828 c 128,-1,8
 956 737 956 737 956 647 c 0,9,10
 956 646 956 646 956.5 618 c 128,-1,11
 957 590 957 590 957 566 c 0,12,13
 957 142 957 142 805 27 c 0,14,15
 755 -11 755 -11 682 -11 c 0,16,17
 614 -11 614 -11 550 20.5 c 128,-1,18
 486 52 486 52 441.5 114.5 c 128,-1,19
 397 177 397 177 396 255 c 2,20,-1
 396 295 l 2,21,22
 396 432 396 432 424.5 533 c 128,-1,23
 453 634 453 634 512.5 725 c 128,-1,24
 572 816 572 816 689 946 c 1,25,26
 685 957 685 957 669.5 1003.5 c 128,-1,27
 654 1050 654 1050 649.5 1065 c 128,-1,28
 645 1080 645 1080 631.5 1123 c 128,-1,29
 618 1166 618 1166 613.5 1188 c 128,-1,30
 609 1210 609 1210 599 1250.5 c 128,-1,31
 589 1291 589 1291 585 1321 c 128,-1,32
 581 1351 581 1351 575.5 1391 c 128,-1,33
 570 1431 570 1431 568 1470.5 c 128,-1,34
 566 1510 566 1510 566 1552 c 0,35,36
 566 1854 566 1854 724 2252 c 1,0,-1
749 731 m 1,37,38
 686 655 686 655 650.5 607 c 128,-1,39
 615 559 615 559 596 516.5 c 128,-1,40
 577 474 577 474 571 450 c 128,-1,41
 565 426 565 426 556 372 c 0,42,43
 552 348 552 348 552 316 c 0,44,45
 552 250 552 250 571 200.5 c 128,-1,46
 590 151 590 151 623 151 c 0,47,48
 651 151 651 151 682 191 c 0,49,50
 773 306 773 306 773 516 c 0,51,52
 773 578 773 578 766 627 c 0,53,54
 760 677 760 677 749 731 c 1,37,38
627 3444 m 1,55,-1
 774 3444 l 1,56,-1
 1020 3068 l 1,57,-1
 881 3068 l 1,58,-1
 700 3313 l 1,59,-1
 520 3068 l 1,60,-1
 381 3068 l 1,61,-1
 627 3444 l 1,55,-1
EndSplineSet
Ligature2: "'liga' Standard Ligatures in Latin lookup 1 subtable" T o.alt
Ligature2: "'liga' Standard Ligatures in Latin lookup 1 subtable" T o
EndChar

StartChar: kly
Encoding: 983082 983082 322
Width: 86
VWidth: 0
GlyphClass: 3
Flags: W
LayerCount: 2
Fore
SplineSet
0 2250 m 1,0,-1
 179 2250 l 1,1,-1
 180 113 l 2,2,3
 180 86 180 86 160 -14 c 0,4,5
 148 -76 148 -76 90.5 -109 c 128,-1,6
 33 -142 33 -142 -27 -142 c 2,7,-1
 -42 -142 l 2,8,9
 -58 -144 -58 -144 -69 -144 c 0,10,11
 -124 -144 -124 -144 -180 -97 c 0,12,13
 -204 -77 -204 -77 -219.5 -40.5 c 128,-1,14
 -235 -4 -235 -4 -235 39 c 0,15,16
 -235 125 -235 125 -180 175 c 0,17,18
 -128 222 -128 222 -69 222 c 0,19,20
 -39 222 -39 222 0 145 c 1,21,-1
 0 2250 l 1,0,-1
EndSplineSet
Ligature2: "'liga' Standard Ligatures in Latin lookup 1 subtable" k lslash
EndChar

StartChar: Kly
Encoding: 983083 983083 323
Width: 761
VWidth: 0
GlyphClass: 3
Flags: W
LayerCount: 2
Fore
SplineSet
713 2250 m 1,0,-1
 892 2250 l 1,1,-1
 893 113 l 2,2,3
 894 85 894 85 874 -14 c 0,4,5
 861 -76 861 -76 803.5 -109 c 128,-1,6
 746 -142 746 -142 687 -142 c 2,7,-1
 671 -142 l 2,8,9
 655 -144 655 -144 644 -144 c 0,10,11
 591 -144 591 -144 533 -97 c 0,12,13
 509 -77 509 -77 494 -40.5 c 128,-1,14
 479 -4 479 -4 479 39 c 0,15,16
 479 126 479 126 533 175 c 0,17,18
 585 222 585 222 644 222 c 0,19,20
 675 222 675 222 713 145 c 1,21,-1
 713 2250 l 1,0,-1
699 3438 m 1,22,-1
 846 3438 l 1,23,-1
 1092 3062 l 1,24,-1
 953 3062 l 1,25,-1
 772 3307 l 1,26,-1
 592 3062 l 1,27,-1
 453 3062 l 1,28,-1
 699 3438 l 1,22,-1
EndSplineSet
Ligature2: "'liga' Standard Ligatures in Latin lookup 1 subtable" K lslash
EndChar

StartChar: Di
Encoding: 983084 983084 324
Width: 784
VWidth: 0
GlyphClass: 3
Flags: W
LayerCount: 2
Fore
SplineSet
776 1245 m 1,0,-1
 955 1245 l 1,1,2
 852 1131 852 1131 852 986 c 0,3,4
 852 900 852 900 904 714 c 128,-1,5
 956 528 956 528 956 427 c 0,6,7
 956 242 956 242 821 84 c 1,8,-1
 849 40 l 1,9,10
 840 35 840 35 819 23 c 128,-1,11
 798 11 798 11 788 6 c 1,12,13
 813 3 813 3 834 -6 c 1,14,15
 807 -237 807 -237 763 -393.5 c 128,-1,16
 719 -550 719 -550 659 -647.5 c 128,-1,17
 599 -745 599 -745 509 -822 c 0,18,19
 435 -885 435 -885 354 -885 c 0,20,21
 249 -885 249 -885 171.5 -789 c 128,-1,22
 94 -693 94 -693 94 -567 c 0,23,24
 94 -511 94 -511 114 -454 c 0,25,26
 161 -322 161 -322 223.5 -252.5 c 128,-1,27
 286 -183 286 -183 386 -152 c 1,28,29
 407 -121 407 -121 439 -88 c 0,30,31
 451 -75 451 -75 488 -27 c 128,-1,32
 525 21 525 21 572 64.5 c 128,-1,33
 619 108 619 108 698 160 c 1,34,35
 774 282 774 282 774 425 c 0,36,37
 774 525 774 525 725 711 c 128,-1,38
 676 897 676 897 676 983 c 0,39,40
 676 1132 676 1132 776 1245 c 1,0,-1
473 -266 m 0,41,42
 444 -319 444 -319 415 -384 c 0,43,44
 404 -410 404 -410 404 -485 c 0,45,46
 404 -573 404 -573 429 -573 c 0,47,48
 458 -573 458 -573 515 -444 c 0,49,50
 546 -374 546 -374 546 -329 c 0,51,52
 546 -265 546 -265 484 -265 c 0,53,54
 483 -265 483 -265 479 -265.5 c 128,-1,55
 475 -266 475 -266 473 -266 c 0,41,42
635 -83 m 1,56,57
 584 -117 584 -117 552 -151 c 1,58,59
 587 -166 587 -166 614 -193 c 1,60,61
 625 -129 625 -129 635 -83 c 1,56,57
280 -378 m 1,62,63
 278 -380 278 -380 276 -383.5 c 128,-1,64
 274 -387 274 -387 272 -388 c 0,65,66
 200 -493 200 -493 200 -612 c 0,67,68
 200 -668 200 -668 219.5 -703.5 c 128,-1,69
 239 -739 239 -739 272 -739 c 0,70,71
 280 -739 280 -739 285 -738 c 0,72,73
 370 -720 370 -720 435 -652 c 1,74,75
 377 -691 377 -691 354 -671 c 0,76,77
 269 -598 269 -598 269 -471 c 0,78,79
 269 -427 269 -427 280 -378 c 1,62,63
693 3444 m 1,80,-1
 840 3444 l 1,81,-1
 1086 3068 l 1,82,-1
 947 3068 l 1,83,-1
 766 3313 l 1,84,-1
 586 3068 l 1,85,-1
 447 3068 l 1,86,-1
 693 3444 l 1,80,-1
EndSplineSet
Ligature2: "'liga' Standard Ligatures in Latin lookup 1 subtable" D i
EndChar

StartChar: ps
Encoding: 983085 983085 325
Width: 361
VWidth: 3070
GlyphClass: 3
Flags: W
LayerCount: 2
Fore
SplineSet
87 188 m 0,0,1
 152 188 152 188 199 210.5 c 128,-1,2
 246 233 246 233 271 271.5 c 128,-1,3
 296 310 296 310 307 352.5 c 128,-1,4
 318 395 318 395 318 444 c 0,5,6
 318 499 318 499 306.5 544.5 c 128,-1,7
 295 590 295 590 270 629.5 c 128,-1,8
 245 669 245 669 198 691.5 c 128,-1,9
 151 714 151 714 87 714 c 2,10,-1
 85 714 l 2,11,12
 27 714 27 714 -18.5 689 c 128,-1,13
 -64 664 -64 664 -90.5 624 c 128,-1,14
 -117 584 -117 584 -130.5 538.5 c 128,-1,15
 -144 493 -144 493 -144 448 c 0,16,17
 -144 339 -144 339 -86 263.5 c 128,-1,18
 -28 188 -28 188 87 188 c 0,0,1
82 871 m 128,-1,20
 160 871 160 871 220.5 843.5 c 128,-1,21
 281 816 281 816 339 763 c 0,22,23
 397 709 397 709 433 627.5 c 128,-1,24
 469 546 469 546 469 448 c 128,-1,25
 469 350 469 350 430 262 c 128,-1,26
 391 174 391 174 339 133 c 0,27,28
 272 80 272 80 215 52.5 c 128,-1,29
 158 25 158 25 82 25 c 0,30,31
 5 25 5 25 -53.5 52.5 c 128,-1,32
 -112 80 -112 80 -174 133 c 0,33,34
 -230 179 -230 179 -265.5 263.5 c 128,-1,35
 -301 348 -301 348 -301 448 c 0,36,37
 -301 649 -301 649 -174 763 c 0,38,39
 -116 815 -116 815 -56 843 c 128,-1,19
 4 871 4 871 82 871 c 128,-1,20
183 1149 m 1,40,-1
 263 1227 l 1,41,-1
 268 1230 l 1,42,-1
 271 1234 l 2,43,44
 311 1281 311 1281 355.5 1564.5 c 128,-1,45
 400 1848 400 1848 401 1958 c 0,46,47
 401 2068 401 2068 294 2068 c 0,48,49
 260 2067 260 2067 237.5 2058 c 128,-1,50
 215 2049 215 2049 203.5 2030 c 128,-1,51
 192 2011 192 2011 188.5 2000 c 128,-1,52
 185 1989 185 1989 180 1967 c 1,53,-1
 180 1958 l 2,54,55
 183 1892 183 1892 183 1422 c 2,56,-1
 183 1232 l 1,57,-1
 183 1149 l 1,40,-1
180 900 m 1,58,-1
 179 230 l 1,59,-1
 180 110 l 2,60,61
 180 63 180 63 215 63 c 0,62,63
 243 63 243 63 284 91.5 c 128,-1,64
 325 120 325 120 355 158 c 1,65,-1
 469 68 l 1,66,67
 381 -5 381 -5 323.5 -33 c 128,-1,68
 266 -61 266 -61 180 -61 c 0,69,70
 104 -61 104 -61 52 -18.5 c 128,-1,71
 0 24 0 24 0 92 c 2,72,-1
 0 227 l 1,73,-1
 3 1965 l 1,74,-1
 3 1966 l 1,75,76
 8 2052 8 2052 37 2115 c 0,77,78
 98 2249 98 2249 294 2249 c 0,79,80
 426 2249 426 2249 503 2165 c 128,-1,81
 580 2081 580 2081 580 1960 c 0,82,83
 580 1918 580 1918 573.5 1834 c 128,-1,84
 567 1750 567 1750 548 1624 c 128,-1,85
 529 1498 529 1498 501 1382 c 128,-1,86
 473 1266 473 1266 424 1164 c 128,-1,87
 375 1062 375 1062 315 1022 c 0,88,89
 293 1007 293 1007 271.5 987.5 c 128,-1,90
 250 968 250 968 224 942 c 128,-1,91
 198 916 198 916 189 907 c 2,92,-1
 180 900 l 1,58,-1
EndSplineSet
Ligature2: "'liga' Standard Ligatures in Latin lookup 1 subtable" p s
EndChar

StartChar: Ps
Encoding: 983086 983086 326
Width: 934
VWidth: 3070
GlyphClass: 3
Flags: W
LayerCount: 2
Fore
SplineSet
667 188 m 0,0,1
 732 188 732 188 779 210.5 c 128,-1,2
 826 233 826 233 851 271.5 c 128,-1,3
 876 310 876 310 887 352.5 c 128,-1,4
 898 395 898 395 898 444 c 0,5,6
 898 499 898 499 886.5 544.5 c 128,-1,7
 875 590 875 590 850 629.5 c 128,-1,8
 825 669 825 669 778 691.5 c 128,-1,9
 731 714 731 714 667 714 c 2,10,-1
 665 714 l 2,11,12
 607 714 607 714 561.5 689 c 128,-1,13
 516 664 516 664 489.5 624 c 128,-1,14
 463 584 463 584 449.5 538.5 c 128,-1,15
 436 493 436 493 436 448 c 0,16,17
 436 339 436 339 494 263.5 c 128,-1,18
 552 188 552 188 667 188 c 0,0,1
662 871 m 128,-1,20
 740 871 740 871 800.5 843.5 c 128,-1,21
 861 816 861 816 919 763 c 0,22,23
 977 709 977 709 1013 627.5 c 128,-1,24
 1049 546 1049 546 1049 448 c 128,-1,25
 1049 350 1049 350 1010 262 c 128,-1,26
 971 174 971 174 919 133 c 0,27,28
 852 80 852 80 795 52.5 c 128,-1,29
 738 25 738 25 662 25 c 0,30,31
 585 25 585 25 526.5 52.5 c 128,-1,32
 468 80 468 80 406 133 c 0,33,34
 350 179 350 179 314.5 263.5 c 128,-1,35
 279 348 279 348 279 448 c 0,36,37
 279 649 279 649 406 763 c 0,38,39
 464 815 464 815 524 843 c 128,-1,19
 584 871 584 871 662 871 c 128,-1,20
763 1149 m 1,40,-1
 843 1227 l 1,41,-1
 848 1230 l 1,42,-1
 851 1234 l 2,43,44
 891 1281 891 1281 935.5 1564.5 c 128,-1,45
 980 1848 980 1848 981 1958 c 0,46,47
 981 2068 981 2068 874 2068 c 0,48,49
 840 2067 840 2067 817.5 2058 c 128,-1,50
 795 2049 795 2049 783.5 2030 c 128,-1,51
 772 2011 772 2011 768.5 2000 c 128,-1,52
 765 1989 765 1989 760 1967 c 1,53,-1
 760 1958 l 2,54,55
 763 1892 763 1892 763 1422 c 2,56,-1
 763 1232 l 1,57,-1
 763 1149 l 1,40,-1
760 900 m 1,58,-1
 759 230 l 1,59,-1
 760 110 l 2,60,61
 760 63 760 63 795 63 c 0,62,63
 823 63 823 63 864 91.5 c 128,-1,64
 905 120 905 120 935 158 c 1,65,-1
 1049 68 l 1,66,67
 961 -5 961 -5 903.5 -33 c 128,-1,68
 846 -61 846 -61 760 -61 c 0,69,70
 684 -61 684 -61 632 -18.5 c 128,-1,71
 580 24 580 24 580 92 c 2,72,-1
 580 227 l 1,73,-1
 583 1965 l 1,74,-1
 583 1966 l 1,75,76
 588 2052 588 2052 617 2115 c 0,77,78
 678 2249 678 2249 874 2249 c 0,79,80
 1006 2249 1006 2249 1083 2165 c 128,-1,81
 1160 2081 1160 2081 1160 1960 c 0,82,83
 1160 1918 1160 1918 1153.5 1834 c 128,-1,84
 1147 1750 1147 1750 1128 1624 c 128,-1,85
 1109 1498 1109 1498 1081 1382 c 128,-1,86
 1053 1266 1053 1266 1004 1164 c 128,-1,87
 955 1062 955 1062 895 1022 c 0,88,89
 873 1007 873 1007 851.5 987.5 c 128,-1,90
 830 968 830 968 804 942 c 128,-1,91
 778 916 778 916 769 907 c 2,92,-1
 760 900 l 1,58,-1
645 3438 m 1,93,-1
 792 3438 l 1,94,-1
 1038 3062 l 1,95,-1
 899 3062 l 1,96,-1
 718 3307 l 1,97,-1
 538 3062 l 1,98,-1
 399 3062 l 1,99,-1
 645 3438 l 1,93,-1
EndSplineSet
Ligature2: "'liga' Standard Ligatures in Latin lookup 1 subtable" P s
EndChar

StartChar: ksz
Encoding: 983087 983087 327
Width: 733
VWidth: 0
GlyphClass: 3
LigCaretCntFixed: 1
Flags: W
LayerCount: 2
Fore
SplineSet
-175 2250 m 1,0,-1
 4 2250 l 1,1,-1
 570 110 l 2,2,3
 583 64 583 64 617 64 c 0,4,5
 645 64 645 64 679 92.5 c 128,-1,6
 713 121 713 121 732 158 c 1,7,-1
 870 68 l 1,8,9
 802 -5 802 -5 751.5 -33 c 128,-1,10
 701 -61 701 -61 615 -61 c 0,11,12
 539 -61 539 -61 476 -18 c 128,-1,13
 413 25 413 25 395 92 c 2,14,-1
 -175 2250 l 1,0,-1
EndSplineSet
Ligature2: "'liga' Standard Ligatures in Latin lookup 1 subtable" k zdotaccent
Ligature2: "'liga' Standard Ligatures in Latin lookup 1 subtable" k scaron
Ligature2: "'liga' Standard Ligatures in Latin lookup 1 subtable" k s z
Ligature2: "'liga' Standard Ligatures in Latin lookup 1 subtable" k r z
Ligature2: "'liga' Standard Ligatures in Latin lookup 1 subtable" g scaron
Ligature2: "'liga' Standard Ligatures in Latin lookup 1 subtable" g s z
LCarets2: 2 288 288
EndChar

StartChar: Ksz
Encoding: 983088 983088 328
Width: 2148
VWidth: 0
GlyphClass: 3
Flags: W
LayerCount: 2
Fore
SplineSet
1239 2250 m 1,0,-1
 1418 2250 l 1,1,-1
 1984 110 l 2,2,3
 1997 64 1997 64 2031 64 c 0,4,5
 2059 64 2059 64 2093 92.5 c 128,-1,6
 2127 121 2127 121 2146 158 c 1,7,-1
 2284 68 l 1,8,9
 2216 -5 2216 -5 2165.5 -33 c 128,-1,10
 2115 -61 2115 -61 2029 -61 c 0,11,12
 1953 -61 1953 -61 1890 -18 c 128,-1,13
 1827 25 1827 25 1809 92 c 2,14,-1
 1239 2250 l 1,0,-1
993 3414 m 1,15,-1
 1140 3414 l 1,16,-1
 1386 3038 l 1,17,-1
 1247 3038 l 1,18,-1
 1066 3283 l 1,19,-1
 886 3038 l 1,20,-1
 747 3038 l 1,21,-1
 993 3414 l 1,15,-1
EndSplineSet
Ligature2: "'liga' Standard Ligatures in Latin lookup 1 subtable" K zcaron
Ligature2: "'liga' Standard Ligatures in Latin lookup 1 subtable" K zdotaccent
Ligature2: "'liga' Standard Ligatures in Latin lookup 1 subtable" K scaron
Ligature2: "'liga' Standard Ligatures in Latin lookup 1 subtable" K s z
Ligature2: "'liga' Standard Ligatures in Latin lookup 1 subtable" K r z
Ligature2: "'liga' Standard Ligatures in Latin lookup 1 subtable" G scaron
Ligature2: "'liga' Standard Ligatures in Latin lookup 1 subtable" G s z
EndChar

StartChar: psz
Encoding: 983089 983089 329
Width: 722
VWidth: 3070
GlyphClass: 3
LigCaretCntFixed: 1
Flags: W
LayerCount: 2
Fore
SplineSet
288 1149 m 1,0,-1
 348 1227 l 1,1,-1
 352 1230 l 1,2,-1
 354 1234 l 2,3,4
 366 1254 366 1254 366 1333 c 0,5,6
 366 1458 366 1458 339.5 1670 c 128,-1,7
 313 1882 313 1882 294 1958 c 0,8,9
 266 2068 266 2068 157 2068 c 0,10,11
 105 2067 105 2067 87 2045.5 c 128,-1,12
 69 2024 69 2024 69 1991 c 0,13,14
 69 1986 69 1986 69.5 1978 c 128,-1,15
 70 1970 70 1970 70 1967 c 2,16,-1
 73 1958 l 2,17,18
 91 1901 91 1901 218 1422 c 0,19,20
 228 1384 228 1384 244 1320 c 128,-1,21
 260 1256 260 1256 267 1232 c 2,22,-1
 288 1149 l 1,0,-1
351 900 m 1,23,-1
 526 230 l 1,24,-1
 560 110 l 2,25,26
 573 63 573 63 607 63 c 0,27,28
 635 63 635 63 668.5 91.5 c 128,-1,29
 702 120 702 120 722 158 c 1,30,-1
 860 68 l 1,31,32
 792 -5 792 -5 741.5 -33 c 128,-1,33
 691 -61 691 -61 605 -61 c 0,34,35
 529 -61 529 -61 466 -18.5 c 128,-1,36
 403 24 403 24 385 92 c 2,37,-1
 348 227 l 1,38,-1
 -107 1965 l 1,39,-1
 -107 1966 l 1,40,41
 -119 2026 -119 2026 -119 2060 c 0,42,43
 -119 2088 -119 2088 -113 2115 c 0,44,45
 -88 2249 -88 2249 109 2249 c 0,46,47
 241 2249 241 2249 341 2164.5 c 128,-1,48
 441 2080 441 2080 472 1960 c 0,49,50
 493 1882 493 1882 519 1704 c 128,-1,51
 545 1526 545 1526 545 1367 c 0,52,53
 545 1095 545 1095 455 1022 c 0,54,55
 437 1007 437 1007 420.5 988 c 128,-1,56
 404 969 404 969 384.5 942 c 128,-1,57
 365 915 365 915 359 907 c 2,58,-1
 351 900 l 1,23,-1
EndSplineSet
Ligature2: "'liga' Standard Ligatures in Latin lookup 1 subtable" p scaron
Ligature2: "'liga' Standard Ligatures in Latin lookup 1 subtable" p zdotaccent
Ligature2: "'liga' Standard Ligatures in Latin lookup 1 subtable" p s z
Ligature2: "'liga' Standard Ligatures in Latin lookup 1 subtable" p r z
Ligature2: "'liga' Standard Ligatures in Latin lookup 1 subtable" b scaron
Ligature2: "'liga' Standard Ligatures in Latin lookup 1 subtable" b s z
LCarets2: 2 288 288
EndChar

